<?xml version="1.0" encoding="utf-8"?>
<!-- Generator: Adobe Illustrator 19.2.1, SVG Export Plug-In . SVG Version: 6.00 Build 0)  -->
<svg version="1.1" xmlns="http://www.w3.org/2000/svg" xmlns:xlink="http://www.w3.org/1999/xlink" x="0px" y="0px"
	 viewBox="0 0 630.3 248.4" style="enable-background:new 0 0 630.3 248.4;" xml:space="preserve">
<style type="text/css">
	.st0{fill:#575756;}
	.st1{fill:#878787;}
	.st2{fill:#706F6F;}
	.st3{display:none;}
	.st4{display:inline;}
	.st5{display:inline;fill:#EDEDED;}
	.st6{fill:none;stroke:#EDEDED;stroke-width:0.75;stroke-miterlimit:10;}
	.st7{fill:none;stroke:#EDEDED;stroke-width:0.75;stroke-miterlimit:10;stroke-dasharray:1.9946,1.9946;}
	.st8{fill:none;stroke:#EDEDED;stroke-width:0.75;stroke-miterlimit:10;stroke-dasharray:2.0032,2.0032;}
	.st9{fill:none;stroke:#EDEDED;stroke-width:0.75;stroke-miterlimit:10;stroke-dasharray:2.0039,2.0039;}
</style>
<g id="Logo">
	<g id="text">
		<g id="shavington-cum-gresty">
			<path class="st0" d="M224.3,74.6l-0.3-2.2c-0.1-0.3-0.1-0.4-0.3-0.5c-0.4-0.1-1.1-0.3-1.9-0.3c-2,0-3,0.9-3,2.3
				c0,1.8,1.8,2.2,3.8,2.9c2.5,0.8,5.4,1.7,5.4,5.7c0,4.4-3.4,6.1-7.5,6.1c-2.4,0-5.1-0.6-6.1-1.1v-5.2h3l0.5,2.5
				c0.1,0.3,0.1,0.4,0.5,0.5c0.3,0.1,1.2,0.3,2.2,0.3c2.2,0,3.4-0.9,3.4-2.5c0-1.7-1.5-2.2-3.3-2.7c-2.6-0.7-5.9-1.5-5.9-5.8
				c0-4.1,3.1-6,7.2-6c2.3,0,4.3,0.6,5.5,1.1v5.2L224.3,74.6z"/>
			<path class="st0" d="M239.4,88.3v-8.7c0-0.8-0.1-2.3-1.4-2.3c-1,0-2.1,0.5-2.8,1v7.2c0,0.4,0,0.5,0.4,0.5l1.3,0.2v2.1h-7.4v-2.1
				l1.2-0.2c0.4-0.1,0.4-0.1,0.4-0.5V71.4c0-0.3-0.1-0.5-0.3-0.6l-1.5-0.5l0.3-2.2h5.5v7.6l0.1,0c1.2-1,2.6-1.6,4.3-1.6
				c2.8,0,3.9,1.5,3.9,4.3v7c0,0.4,0,0.5,0.4,0.5l1.3,0.2v2.1H239.4z"/>
			<path class="st0" d="M255.2,88.3l-0.3-1.4l-0.1,0c-1,1-2.3,1.8-4.5,1.8c-3.4,0-3.9-2.3-3.9-3.9c0-2.7,1.7-3.9,5-4.1l3.1-0.2v-1.5
				c0-1.3-0.1-2.1-1.8-2.1c-1.3,0-1.9,0.2-1.9,1.8l-3.8-0.3c0-3.6,3.3-4.1,5.7-4.1c4.1,0,5.7,1.1,5.7,4.8v6.5c0,0.4,0,0.5,0.4,0.5
				l1.3,0.2v2.1H255.2z M254.5,82.5l-1.8,0.1c-1.6,0.1-2.1,0.5-2.1,1.6s0.6,1.5,1.5,1.5c0.9,0,1.8-0.5,2.4-1V82.5z"/>
			<path class="st0" d="M265.5,88.3l-4.2-11c-0.1-0.3-0.2-0.4-0.6-0.5l-1.1-0.2l0.4-2.2h7.2v2.2l-1.7,0.2l2.7,7.6h0.2l2.8-7.6
				l-1.7-0.2l0.3-2.2h6.2v2.2l-1,0.2c-0.3,0.1-0.5,0.1-0.7,0.5l-4.2,11.1H265.5z"/>
			<path class="st0" d="M276.7,88.3v-2.1l1.4-0.2c0.4-0.1,0.4-0.1,0.4-0.5v-7.8c0-0.3-0.1-0.5-0.3-0.6l-1.4-0.5l0.3-2.2h5.5v11.1
				c0,0.4,0,0.5,0.4,0.5l1.4,0.2v2.1H276.7z M280.2,72.2c-1.5,0-2.4-0.9-2.4-2.4c0-1.5,0.9-2.3,2.4-2.3c1.5,0,2.4,0.8,2.4,2.3
				C282.6,71.4,281.7,72.2,280.2,72.2z"/>
			<path class="st0" d="M295.2,88.3v-8.6c0-1.3-0.1-2.3-1.4-2.3c-1,0-2.2,0.6-2.8,1v7.2c0,0.4,0,0.5,0.4,0.5l1.3,0.2v2.1h-7.4v-2.1
				l1.2-0.2c0.4-0.1,0.4-0.1,0.4-0.5v-7.8c0-0.3-0.1-0.5-0.3-0.6l-1.4-0.5l0.3-2.2h4.7l0.2,1.4l0.1,0.1c1.3-1,2.9-1.7,4.7-1.7
				c2.9,0,4,1.6,4,4.5v6.8c0,0.4,0,0.5,0.4,0.5l1.3,0.2v2.1H295.2z"/>
			<path class="st0" d="M313.6,76.8c0.5,0.6,1,1.5,1,2.7c0,3-2.3,4.7-5.7,4.7c-0.9,0-1.6-0.1-2.1-0.2l-0.9,1.4l2.6,0.2
				c4.6,0.3,7.3,0.4,7.3,4c0,3.1-2.7,4.8-7.3,4.8c-4.8,0-6.7-1.2-6.7-3.3c0-1.2,0.5-1.8,1.5-2.7c-0.9-0.4-1.2-1-1.2-1.8
				c0-0.6,0.3-1.1,0.8-1.6c0.5-0.5,1-1,1.7-1.6c-1.3-0.6-2.3-2-2.3-4c0-3.1,2-5.2,6.1-5.2c1.1,0,1.8,0.1,2.5,0.3h5.2v2.3L313.6,76.8
				z M305.7,89c-0.3,0.4-0.7,0.9-0.7,1.4c0,1.1,1.4,1.4,3.2,1.4c1.5,0,3.7-0.1,3.7-1.5c0-0.9-1-0.9-2.3-1L305.7,89z M308.7,76.7
				c-1.5,0-2.6,0.7-2.6,2.5c0,1.3,0.7,2.2,2.5,2.2c1.5,0,2.5-0.9,2.5-2.3C311.1,77.6,310.2,76.7,308.7,76.7z"/>
			<path class="st0" d="M327.5,87.5c-1.1,0.6-2.8,1.1-4.3,1.1c-3.2,0-4.4-1.3-4.4-4.3v-7c0-0.2,0-0.3-0.2-0.3h-1.9v-2.4
				c2.3-0.3,3.3-1.4,3.6-4.3h2.5v3.8c0,0.2,0,0.3,0.2,0.3h3.8V77h-4v6.4c0,1.6,0.4,2.2,1.8,2.2c0.7,0,1.5-0.2,2.2-0.4L327.5,87.5z"
				/>
			<path class="st0" d="M327.9,81.4c0-4.4,2.3-7.3,7.2-7.3c4.9,0,6.9,2.9,6.9,7c0,4.5-2.3,7.5-7.2,7.5
				C329.9,88.6,327.9,85.6,327.9,81.4z M337.8,81.3c0-3.1-1-4.3-2.7-4.3c-1.8,0-2.9,1.1-2.9,4.3c0,3.2,1,4.5,2.8,4.5
				C336.7,85.8,337.8,84.6,337.8,81.3z"/>
			<path class="st0" d="M353.2,88.3v-8.6c0-1.3-0.1-2.3-1.4-2.3c-1,0-2.2,0.6-2.8,1v7.2c0,0.4,0,0.5,0.4,0.5l1.3,0.2v2.1h-7.4v-2.1
				l1.2-0.2c0.4-0.1,0.4-0.1,0.4-0.5v-7.8c0-0.3-0.1-0.5-0.3-0.6l-1.4-0.5l0.3-2.2h4.7l0.2,1.4l0.1,0.1c1.3-1,2.9-1.7,4.7-1.7
				c2.9,0,4,1.6,4,4.5v6.8c0,0.4,0,0.5,0.4,0.5l1.3,0.2v2.1H353.2z"/>
			<path class="st0" d="M359.8,82.2v-3.4h7.2v3.4H359.8z"/>
			<path class="st0" d="M381,87.3c-1.2,0.7-3.1,1.3-5.1,1.3c-4.8,0-7-3-7-7.1c0-5,3-7.4,7.3-7.4c2.1,0,3.9,0.6,4.7,1.1v4.2l-2.9-0.1
				l-0.3-1.8c0-0.2-0.1-0.3-0.3-0.4c-0.3-0.1-0.8-0.2-1.4-0.2c-1.6,0-3,1.1-3,4.2c0,3.5,1.5,4.5,3.4,4.5c1.3,0,2.5-0.4,3.3-0.8
				L381,87.3z"/>
			<path class="st0" d="M393.1,88.3l-0.2-1.4l-0.1,0c-1.1,0.8-2.5,1.8-4.7,1.8c-2.8,0-3.9-1.6-3.9-4.7v-6.5c0-0.4,0-0.5-0.4-0.6
				l-1.3-0.3l0.3-2.2h5.5v8.8c0,1.6,0.3,2.2,1.4,2.2c1.2,0,2.1-0.7,2.7-1.2v-6.9c0-0.4,0-0.5-0.4-0.5l-1.1-0.3l0.3-2.2h5.3v11.1
				c0,0.3,0,0.5,0.4,0.5l1.3,0.2v2.1H393.1z"/>
			<path class="st0" d="M416.1,88.3v-8.6c0-1-0.1-2.3-1.5-2.3c-0.7,0-1.5,0.3-2.2,0.7c0.1,0.4,0.1,0.9,0.1,1.3v6.1
				c0,0.5,0,0.5,0.4,0.6l1.1,0.2v2.1h-5.5v-8.8c0-1-0.1-2.2-1.4-2.2c-0.8,0-1.7,0.4-2.2,0.9v7.2c0,0.5,0,0.5,0.4,0.5l1.3,0.2v2.1
				h-7.4v-2.1l1.2-0.2c0.4-0.1,0.4-0.1,0.4-0.5v-7.8c0-0.3-0.1-0.5-0.3-0.6l-1.4-0.5l0.3-2.2h4.7l0.2,1.4l0.1,0
				c1.2-1,2.6-1.7,4.3-1.7c1.3,0,2.5,0.3,3.3,1.6c0.9-0.7,2.4-1.6,4.3-1.6c2.9,0,3.9,1.4,3.9,4.5v6.8c0,0.4,0,0.5,0.4,0.6l1.3,0.2
				v2.1H416.1z"/>
			<path class="st0" d="M422.7,82.2v-3.4h7.2v3.4H422.7z"/>
			<path class="st0" d="M449.1,81.2c-0.3,0-0.4,0.1-0.4,0.4v5.7c-2,1-4.7,1.3-6.9,1.3c-7.3,0-9.8-4.3-9.8-10c0-5.7,3.3-10,10-10
				c1.9,0,4.4,0.5,6,1.5v5l-3-0.2l-0.4-2.4c-0.1-0.4-0.2-0.5-0.4-0.5c-0.7-0.2-1.6-0.3-2.5-0.3c-3.4,0-5.5,2.6-5.5,6.8
				c0,4.4,1.9,7,5.7,7c0.7,0,1.6-0.1,2.2-0.2c0.3-0.1,0.4-0.1,0.4-0.5v-3.5h-3L442,79h8.2v2.1L449.1,81.2z"/>
			<path class="st0" d="M451.2,88.3v-2.2l1.2-0.2c0.4-0.1,0.4-0.1,0.4-0.5v-7.8c0-0.3-0.1-0.5-0.3-0.6l-1.4-0.5l0.3-2.2h4.7l0.3,2.1
				h0.2c0.9-1.4,2.1-2.4,3.8-2.4c0.6,0,1.8,0.1,2.3,0.2v4.9l-3.2-0.1l-0.3-1.4c-0.1-0.2-0.1-0.3-0.3-0.3c-0.7,0-1.5,0.6-1.9,0.9v7.1
				c0,0.4,0,0.5,0.4,0.5l2.6,0.2v2.1H451.2z"/>
			<path class="st0" d="M476,87.2c-1.7,0.8-3.5,1.4-5.5,1.4c-5.1,0-6.9-3.2-6.9-7.4c0-4.8,3-7.1,6.6-7.1c3.5,0,5.9,1.8,5.9,6.5
				c0,0.3,0,1.3-0.1,1.8h-8.2c0.1,1.9,1,3.1,3.1,3.1c1,0,2.2-0.2,4-0.9L476,87.2z M472.2,79.8c0-2.2-0.9-2.8-2-2.8
				c-1.1,0-2.1,0.6-2.2,2.8H472.2z"/>
			<path class="st0" d="M485.8,78.6l-0.3-1.4c0-0.2-0.1-0.3-0.3-0.4c-0.3-0.1-1-0.2-1.7-0.2c-1.3,0-2.1,0.5-2.1,1.4
				c0,1.1,1.5,1.3,3.1,1.7c2.1,0.5,4.5,1.2,4.5,4.3c0,3.3-2.6,4.6-6,4.6c-2.4,0-4.8-0.6-5.3-1v-3.9l2.9,0.2l0.3,1.5
				c0,0.2,0.1,0.3,0.3,0.4c0.3,0.1,1,0.3,2.1,0.3c1.4,0,2.2-0.4,2.2-1.4c0-1.1-1.1-1.4-2.4-1.6c-2.2-0.4-5.2-0.9-5.2-4.4
				c0-3.3,2.8-4.7,5.9-4.7c2.1,0,4.2,0.5,4.9,0.8v3.9L485.8,78.6z"/>
			<path class="st0" d="M500.8,87.5c-1.1,0.6-2.8,1.1-4.3,1.1c-3.2,0-4.4-1.3-4.4-4.3v-7c0-0.2,0-0.3-0.2-0.3H490v-2.4
				c2.3-0.3,3.3-1.4,3.6-4.3h2.5v3.8c0,0.2,0,0.3,0.2,0.3h3.8V77h-4v6.4c0,1.6,0.4,2.2,1.8,2.2c0.7,0,1.5-0.2,2.2-0.4L500.8,87.5z"
				/>
			<path class="st0" d="M503.7,93.9v-2.2l2.1-0.2c0.3,0,0.5-0.2,0.7-0.6l1.1-2.5l-5.1-11.2c-0.1-0.3-0.2-0.4-0.6-0.5l-1.1-0.3
				l0.4-2.2h7.1v2.2l-1.7,0.2l3,7h0.2l2.8-7l-1.7-0.2l0.3-2.2h5.9v2.2l-0.9,0.2c-0.3,0.1-0.5,0.1-0.7,0.5l-5.9,14.4l2.8,0.3v2.1
				H503.7z"/>
		</g>
		<g id="neighbourhood">
			<path class="st1" d="M237.4,133.4l-18.5-25.2v25.2h-4.6V99.6h4.1l18.6,25.2V99.6h4.6v33.8H237.4z"/>
			<path class="st1" d="M252.5,122.5c0.3,4.1,3.1,7.8,7.8,7.8c3.2,0,5.7-1.2,7.2-3.9l3.2,2c-2.4,3.9-5.7,5.6-10.6,5.6
				c-7.7,0-12-5.6-12-12.6c0-7.2,5.3-12.6,12-12.6c6.4,0,11,4.8,11,11.2c0,0.8-0.1,1.9-0.2,2.5H252.5z M252.9,118.9h13.7
				c-0.2-3.4-2.8-6.5-6.4-6.5C256.3,112.5,253.7,115.3,252.9,118.9z"/>
			<path class="st1" d="M277.2,104.6v-4.9h4.4v4.9H277.2z M277.2,133.4v-24.1h4.4v24.1H277.2z"/>
			<path class="st1" d="M311.8,132.1c0,2.5-0.4,4.6-1.3,6.3c-2.2,4.2-6.4,5.7-10.9,5.7c-3.7,0-7.8-1.1-10.7-3.2l1.7-3.8
				c2.2,1.6,5.8,2.9,8.9,2.9c4.1,0,7.9-2,7.9-7.1v-3.3c-1.7,2.6-4.8,3.8-7.7,3.8c-6.9,0-12-5.4-12-12.4c0-6.3,4.8-12.4,12.2-12.4
				c2.8,0,5.6,1.3,7.6,3.2v-2.7h4.4V132.1z M307.4,116.4c-1.7-2.4-4.5-3.7-7-3.7c-5.6,0-8.2,4.3-8.2,8.4c0,4.3,3.2,8.2,8.1,8.2
				c2.6,0,5.9-1.6,7.1-4.5V116.4z"/>
			<path class="st1" d="M324,113.2c1.8-2.8,4.6-4.5,7.9-4.5c3.4,0,5.6,1.2,7,3c1.6,2.2,2.2,5.5,2.2,9.1v12.5h-4.4v-12.1
				c0-2.4-0.1-4.9-1.3-6.7c-0.8-1.2-2.1-1.9-4.2-1.9c-2.8,0-5.5,1.9-7.2,4.6v16h-4.4V97.2h4.4V113.2z"/>
			<path class="st1" d="M353.2,97.2v15.3c1.7-2.5,4.8-3.8,7.7-3.8c6.9,0,12.1,5.6,12.1,12.7c0,6.4-4.8,12.6-12.2,12.6
				c-2.8,0-5.6-1.2-7.6-3.2v2.6h-4.4V97.2H353.2z M353.2,126.3c1.6,2.4,4.5,3.7,7,3.7c5.6,0,8.2-4.5,8.2-8.6c0-4.5-3.1-8.5-8.2-8.5
				c-2.6,0-5.9,1.6-7.1,4.6V126.3z"/>
			<path class="st1" d="M401.6,121.3c0,7-5.3,12.6-12.3,12.6c-7,0-12.3-5.6-12.3-12.6c0-7,5.3-12.6,12.3-12.6
				C396.3,108.7,401.6,114.3,401.6,121.3z M389.3,112.8c-4.5,0-7.8,3.9-7.8,8.6c0,4.7,3.3,8.6,7.8,8.6s7.8-3.9,7.8-8.6
				C397.1,116.7,393.8,112.8,389.3,112.8z"/>
			<path class="st1" d="M424.4,129.4c-1.8,2.8-4.6,4.5-7.9,4.5c-3.4,0-5.6-1.2-7-3c-1.6-2.2-2.2-5.5-2.2-9.1v-12.5h4.4v12.1
				c0,2.4,0.1,4.9,1.3,6.7c0.8,1.2,2.1,1.9,4.2,1.9c2.8,0,5.5-1.9,7.2-4.6v-16h4.4v24.1h-4.4V129.4z"/>
			<path class="st1" d="M441.3,113.3c1.4-2.6,3.6-4.6,6.2-4.6c1,0,1.7,0.1,2.6,0.3l-0.8,4.7c-0.7-0.3-1.4-0.5-2.3-0.5
				c-2.5,0-4.2,1.4-5.7,4.1v16.2h-4.4v-24.1h4.4V113.3z"/>
			<path class="st1" d="M458.5,113.2c1.8-2.8,4.6-4.5,7.9-4.5c3.4,0,5.6,1.2,7,3c1.6,2.2,2.2,5.5,2.2,9.1v12.5h-4.4v-12.1
				c0-2.4-0.1-4.9-1.3-6.7c-0.8-1.2-2.1-1.9-4.2-1.9c-2.8,0-5.5,1.9-7.2,4.6v16h-4.4V97.2h4.4V113.2z"/>
			<path class="st1" d="M505.9,121.3c0,7-5.3,12.6-12.3,12.6c-7,0-12.3-5.6-12.3-12.6c0-7,5.3-12.6,12.3-12.6
				C500.7,108.7,505.9,114.3,505.9,121.3z M493.6,112.8c-4.5,0-7.8,3.9-7.8,8.6c0,4.7,3.3,8.6,7.8,8.6s7.8-3.9,7.8-8.6
				C501.4,116.7,498.2,112.8,493.6,112.8z"/>
			<path class="st1" d="M534.6,121.3c0,7-5.3,12.6-12.3,12.6c-7,0-12.3-5.6-12.3-12.6c0-7,5.3-12.6,12.3-12.6
				C529.3,108.7,534.6,114.3,534.6,121.3z M522.3,112.8c-4.5,0-7.8,3.9-7.8,8.6c0,4.7,3.3,8.6,7.8,8.6c4.5,0,7.8-3.9,7.8-8.6
				C530.1,116.7,526.8,112.8,522.3,112.8z"/>
			<path class="st1" d="M538.6,121.3c0-6.4,4.8-12.6,12.2-12.6c2.8,0,5.6,1.3,7.6,3.2V97.2h4.4v36.2h-4.4v-3.2
				c-1.7,2.6-4.8,3.8-7.7,3.8C543.7,134,538.6,128.4,538.6,121.3z M558.4,125.4v-9c-1.7-2.4-4.5-3.7-7-3.7c-5.6,0-8.2,4.5-8.2,8.7
				c0,4.4,3.1,8.5,8.2,8.5C553.9,129.9,557.1,128.3,558.4,125.4z"/>
		</g>
		<g id="plan">
			<path class="st1" d="M224.4,166.8h-5.5v13.5h-4.6v-33.8h10.1c5.5,0,11.9,2.7,11.9,10.1C236.3,164.1,229.9,166.8,224.4,166.8z
				 M224.1,150.7h-5.2v12h4.2c4.7,0,8.2-1.5,8.2-5.9C231.4,152.9,228.4,150.7,224.1,150.7z"/>
			<path class="st1" d="M246.2,180.3h-4.4v-36.2h4.4V180.3z"/>
			<path class="st1" d="M268.6,180.3v-2.6c-2,2.2-4.1,3.1-7.2,3.1c-4.4,0-8.5-2.2-8.5-7.3c0-6.1,5.5-8,10.8-8c1.2,0,2.8,0.1,4.8,0.5
				v-0.9c0-3.7-1.7-5.8-5.7-5.8c-2.8,0-5.7,1.1-7.7,2.1l-1.3-3.7c2.5-1.2,6.2-2.3,9.5-2.3c7,0,9.6,3.8,9.6,10v14.7H268.6z
				 M268.4,169.3c-1.8-0.4-3.1-0.5-4.3-0.5c-3,0-6.9,0.7-6.9,4.3c0,2.9,2.2,4,4.8,4c2.5,0,4.6-1.3,6.5-2.9V169.3z"/>
			<path class="st1" d="M285,156.2v4c1.8-2.8,4.6-4.5,7.9-4.5c3.4,0,5.6,1.2,7,3c1.6,2.2,2.2,5.5,2.2,9.1v12.5h-4.4v-12.1
				c0-2.4-0.1-4.9-1.3-6.7c-0.8-1.2-2.1-1.9-4.2-1.9c-2.8,0-5.5,1.9-7.2,4.6v16h-4.4v-24.1H285z"/>
		</g>
	</g>
	<path id="leaf" class="st2" d="M180.5,172.5l-17.7-17.7c7.5-9.2,11.9-20.9,11.9-33.7c0-29.6-24-53.6-53.6-53.6H67.5v53.6
		c0,29.6,24,53.6,53.6,53.6c12.5,0,24.1-4.3,33.2-11.6l17.8,17.8L180.5,172.5z M162.9,121.1c0,9.5-3.2,18.2-8.5,25.2l-32.6-32.6
		V79.4C144.5,79.7,162.9,98.3,162.9,121.1z M79.4,121.1V88.2l43.4,43.4H80.7C79.9,128.2,79.4,124.7,79.4,121.1z M109.9,101.8
		L87.4,79.4h22.5V101.8z M121.1,162.8c-14.8,0-27.8-7.7-35.2-19.4h48.8l11.2,11.2C139,159.8,130.4,162.8,121.1,162.8z"/>
</g>
<g id="Spacing_Guide" class="st3">
	<path class="st5" d="M41.5,33.8L23,8.6v25.2h-4.6V0h4.1L41,25.2V0h4.6v33.8H41.5z"/>
	<path class="st5" d="M41.5,67.5L23,42.4v25.2h-4.6V33.8h4.1L41,59V33.8h4.6v33.8H41.5z"/>
	<path class="st5" d="M606,214.6l-18.5-25.2v25.2h-4.6v-33.8h4.1l18.6,25.2v-25.2h4.6v33.8H606z"/>
	<path class="st5" d="M606,248.4l-18.5-25.2v25.2h-4.6v-33.8h4.1l18.6,25.2v-25.2h4.6v33.8H606z"/>
	<path class="st5" d="M33.8,205.1L8.6,223.6h25.2v4.6H0l0-4.1l25.2-18.6H0l0-4.6h33.8V205.1z"/>
	<path class="st5" d="M67.5,205.1l-25.2,18.5h25.2v4.6H33.8v-4.1L59,205.6H33.8V201h33.8V205.1z"/>
	<path class="st5" d="M214.3,24.2l-25.2,18.5h25.2v4.6h-33.8v-4.1l25.2-18.6h-25.2v-4.6h33.8V24.2z"/>
	<path class="st5" d="M596.5,19.7l-25.2,18.5h25.2v4.6h-33.8v-4.1l25.2-18.6h-25.2v-4.6h33.8V19.7z"/>
	<path class="st5" d="M630.3,19.7l-25.2,18.5h25.2v4.6h-33.8v-4.1l25.2-18.6h-25.2v-4.6h33.8V19.7z"/>
	<g class="st4">
		<g>
			<line class="st6" x1="0" y1="67.5" x2="1" y2="67.5"/>
			<line class="st7" x1="3" y1="67.5" x2="628.3" y2="67.5"/>
			<line class="st6" x1="629.3" y1="67.5" x2="630.3" y2="67.5"/>
		</g>
	</g>
	<g class="st4">
		<g>
			<line class="st6" x1="0" y1="99.6" x2="1" y2="99.6"/>
			<line class="st7" x1="3" y1="99.6" x2="628.3" y2="99.6"/>
			<line class="st6" x1="629.3" y1="99.6" x2="630.3" y2="99.6"/>
		</g>
	</g>
	<g class="st4">
		<g>
			<line class="st6" x1="0" y1="134" x2="1" y2="134"/>
			<line class="st7" x1="3" y1="134" x2="628.3" y2="134"/>
			<line class="st6" x1="629.3" y1="134" x2="630.3" y2="134"/>
		</g>
	</g>
	<g class="st4">
		<g>
			<line class="st6" x1="67.5" y1="0" x2="67.5" y2="1"/>
			<line class="st8" x1="67.5" y1="3" x2="67.5" y2="246.4"/>
			<line class="st6" x1="67.5" y1="247.4" x2="67.5" y2="248.4"/>
		</g>
	</g>
	<g class="st4">
		<g>
			<line class="st6" x1="180.5" y1="0" x2="180.5" y2="1"/>
			<line class="st8" x1="180.5" y1="3" x2="180.5" y2="246.4"/>
			<line class="st6" x1="180.5" y1="247.4" x2="180.5" y2="248.4"/>
		</g>
	</g>
	<g class="st4">
		<g>
			<line class="st6" x1="214.3" y1="0" x2="214.3" y2="1"/>
			<line class="st8" x1="214.3" y1="3" x2="214.3" y2="246.4"/>
			<line class="st6" x1="214.3" y1="247.4" x2="214.3" y2="248.4"/>
		</g>
	</g>
	<g class="st4">
		<g>
			<line class="st6" x1="562.8" y1="0" x2="562.8" y2="1"/>
			<line class="st9" x1="562.8" y1="3" x2="562.8" y2="246.5"/>
			<line class="st6" x1="562.8" y1="247.5" x2="562.8" y2="248.5"/>
		</g>
	</g>
	<g class="st4">
		<g>
			<line class="st6" x1="0" y1="180.8" x2="1" y2="180.8"/>
			<line class="st7" x1="3" y1="180.8" x2="628.3" y2="180.8"/>
			<line class="st6" x1="629.3" y1="180.8" x2="630.3" y2="180.8"/>
		</g>
	</g>
</g>
</svg>
