<svg id="Logo" xmlns="http://www.w3.org/2000/svg" viewBox="0 0 437.08 309.79"><defs><style>.cls-1{fill:#fff;}</style></defs><title>Artboard 1</title><g id="shavington-cum-gresty"><path class="cls-1" d="M77.54,183.95l-.32-2.16c-.05-.32-.13-.43-.32-.51A6.35,6.35,0,0,0,75,181c-2,0-3,.91-3,2.27,0,1.76,1.81,2.24,3.84,2.85,2.53.77,5.36,1.73,5.36,5.74,0,4.38-3.42,6.08-7.5,6.08a17.62,17.62,0,0,1-6.11-1.09v-5.2h3l.53,2.54c.05.32.11.4.45.48a9.54,9.54,0,0,0,2.24.29c2.16,0,3.36-.85,3.36-2.48s-1.52-2.24-3.31-2.75c-2.64-.75-5.9-1.47-5.9-5.76,0-4.11,3.1-6,7.15-6A14.53,14.53,0,0,1,80.55,179v5.2Z"/><path class="cls-1" d="M92.72,197.61v-8.7c0-.8-.08-2.27-1.41-2.27a5.26,5.26,0,0,0-2.77,1v7.15c0,.43,0,.48.43.53l1.28.19v2.11H82.87V195.5l1.2-.19c.37-.05.43-.13.43-.53V180.69c0-.29-.08-.48-.35-.56l-1.47-.51.29-2.16h5.5V185l.13,0a6.54,6.54,0,0,1,4.27-1.6c2.83,0,3.87,1.55,3.87,4.32v7c0,.43,0,.48.43.53l1.33.19v2.11Z"/><path class="cls-1" d="M108.49,197.61l-.27-1.44-.13,0a6,6,0,0,1-4.48,1.79c-3.36,0-3.9-2.29-3.9-3.95,0-2.67,1.65-3.9,5-4.11l3.07-.21v-1.47c0-1.25-.13-2.11-1.79-2.11-1.28,0-1.95.19-1.95,1.79l-3.76-.32c0-3.6,3.28-4.11,5.74-4.11,4.06,0,5.68,1.09,5.68,4.83v6.48c0,.43,0,.48.43.53l1.28.21v2.11Zm-.72-5.74L106,192c-1.57.11-2.13.51-2.13,1.57a1.34,1.34,0,0,0,1.52,1.47,4.38,4.38,0,0,0,2.43-1Z"/><path class="cls-1" d="M118.76,197.61l-4.24-11c-.13-.32-.24-.37-.56-.45l-1.12-.24.43-2.16h7.23v2.16l-1.71.21,2.72,7.6h.19l2.83-7.6-1.73-.21.35-2.16h6.16v2.16l-1,.16c-.35.08-.53.13-.67.45l-4.24,11.13Z"/><path class="cls-1" d="M130,197.61V195.5l1.36-.19c.37-.05.43-.13.43-.53v-7.85c0-.29-.08-.48-.35-.56l-1.44-.51.29-2.16h5.52v11.07c0,.43,0,.48.43.53l1.36.19v2.11Zm3.44-16a2.19,2.19,0,0,1-2.4-2.4,2.42,2.42,0,0,1,4.83,0A2.2,2.2,0,0,1,133.43,181.57Z"/><path class="cls-1" d="M148.43,197.61V189c0-1.28-.08-2.35-1.41-2.35a5.39,5.39,0,0,0-2.77,1v7.15c0,.43,0,.48.43.53l1.28.19v2.11h-7.36v-2.13l1.2-.16c.37-.05.43-.13.43-.53v-7.85c0-.29-.08-.48-.35-.56l-1.44-.51.32-2.16h4.67l.21,1.39.11.05a7.83,7.83,0,0,1,4.7-1.71c2.91,0,4,1.6,4,4.54v6.8c0,.43,0,.48.43.53l1.33.19v2.11Z"/><path class="cls-1" d="M166.92,186.16a4.22,4.22,0,0,1,1,2.69c0,3-2.32,4.7-5.68,4.7a8.5,8.5,0,0,1-2.11-.24l-.88,1.41,2.61.16c4.62.29,7.34.43,7.34,4,0,3.07-2.69,4.8-7.34,4.8-4.83,0-6.67-1.23-6.67-3.34a3.45,3.45,0,0,1,1.47-2.72,1.78,1.78,0,0,1-1.17-1.76,2.39,2.39,0,0,1,.77-1.63c.48-.51,1-1,1.65-1.6a4.26,4.26,0,0,1-2.29-4c0-3.07,2-5.18,6.11-5.18a9.19,9.19,0,0,1,2.45.27h5.2V186ZM159,198.33a2.37,2.37,0,0,0-.69,1.41c0,1.07,1.36,1.39,3.23,1.39,1.55,0,3.66-.11,3.66-1.55,0-.85-1-.91-2.29-1ZM162,186.08a2.27,2.27,0,0,0-2.56,2.45c0,1.31.72,2.21,2.48,2.21a2.26,2.26,0,0,0,2.51-2.27A2.19,2.19,0,0,0,162,186.08Z"/><path class="cls-1" d="M180.74,196.86a10.66,10.66,0,0,1-4.35,1.07c-3.18,0-4.38-1.28-4.38-4.3v-7c0-.16,0-.27-.21-.27h-1.87V184c2.35-.27,3.28-1.44,3.58-4.35H176v3.79c0,.19,0,.27.21.27H180v2.67h-4v6.38c0,1.57.37,2.19,1.81,2.19a6.37,6.37,0,0,0,2.16-.43Z"/><path class="cls-1" d="M181.22,190.75c0-4.43,2.32-7.31,7.2-7.31s6.86,2.94,6.86,7c0,4.54-2.3,7.47-7.2,7.47S181.22,194.94,181.22,190.75Zm9.85-.16c0-3.15-1-4.27-2.7-4.27s-2.93,1.09-2.93,4.3,1,4.51,2.83,4.51S191.06,193.92,191.06,190.59Z"/><path class="cls-1" d="M206.46,197.61V189c0-1.28-.08-2.35-1.41-2.35a5.39,5.39,0,0,0-2.77,1v7.15c0,.43,0,.48.43.53l1.28.19v2.11h-7.36v-2.13l1.2-.16c.37-.05.43-.13.43-.53v-7.85c0-.29-.08-.48-.35-.56l-1.44-.51.32-2.16h4.67l.21,1.39.11.05a7.83,7.83,0,0,1,4.7-1.71c2.91,0,4,1.6,4,4.54v6.8c0,.43,0,.48.43.53l1.33.19v2.11Z"/><path class="cls-1" d="M213.1,191.55v-3.39h7.23v3.39Z"/><path class="cls-1" d="M234.31,196.62a10.24,10.24,0,0,1-5.07,1.31c-4.83,0-7-3-7-7.07,0-5,3-7.42,7.31-7.42a9.71,9.71,0,0,1,4.75,1.12v4.19l-2.86-.13-.32-1.76a.45.45,0,0,0-.32-.43,4.64,4.64,0,0,0-1.36-.19c-1.6,0-3,1.09-3,4.22,0,3.47,1.55,4.46,3.44,4.46a8.54,8.54,0,0,0,3.34-.77Z"/><path class="cls-1" d="M246.34,197.61l-.21-1.44-.13,0a7.36,7.36,0,0,1-4.75,1.79c-2.8,0-3.87-1.6-3.87-4.7v-6.51c0-.43,0-.48-.43-.56l-1.28-.27.27-2.19h5.47v8.83c0,1.63.27,2.24,1.41,2.24a4.2,4.2,0,0,0,2.75-1.23v-6.86c0-.43,0-.45-.43-.53l-1.15-.27.29-2.19h5.31v11.07c0,.35,0,.48.37.51l1.33.19v2.13Z"/><path class="cls-1" d="M269.34,197.61V189c0-1-.11-2.29-1.49-2.29a4,4,0,0,0-2.16.72,10.43,10.43,0,0,1,.08,1.31v6.06c0,.45,0,.51.43.56l1.07.16v2.11h-5.52v-8.75c0-1-.08-2.16-1.41-2.16a3.71,3.71,0,0,0-2.21.85v7.23c0,.45,0,.45.43.53l1.31.19v2.11h-7.39V195.5l1.2-.19c.37-.05.43-.13.43-.53v-7.85c0-.29-.08-.48-.35-.56l-1.44-.51.29-2.16h4.7l.21,1.39.13,0a6.56,6.56,0,0,1,4.27-1.68,3.45,3.45,0,0,1,3.26,1.6,7.15,7.15,0,0,1,4.3-1.6c2.86,0,3.92,1.41,3.92,4.51v6.83c0,.43,0,.51.43.56l1.34.16v2.11Z"/><path class="cls-1" d="M276,191.55v-3.39h7.23v3.39Z"/><path class="cls-1" d="M302.4,190.54c-.32,0-.43.11-.43.37v5.74a17,17,0,0,1-6.91,1.28c-7.28,0-9.79-4.3-9.79-10s3.28-10,10-10a11.88,11.88,0,0,1,6,1.55v5l-3-.21-.4-2.4c-.08-.37-.19-.48-.43-.53a9.91,9.91,0,0,0-2.45-.35c-3.44,0-5.5,2.62-5.5,6.8,0,4.4,1.87,7,5.68,7a14.29,14.29,0,0,0,2.22-.19c.29-.05.43-.13.43-.48v-3.5h-3l.37-2.4h8.19v2.13Z"/><path class="cls-1" d="M304.42,197.61v-2.16l1.2-.16c.37-.05.43-.13.43-.53v-7.82c0-.29-.08-.48-.35-.56l-1.44-.51.29-2.16h4.7l.32,2.13h.16a4.47,4.47,0,0,1,3.76-2.4,12.43,12.43,0,0,1,2.32.24v4.86l-3.2-.11-.27-1.41c-.05-.24-.13-.29-.35-.29a3.54,3.54,0,0,0-1.92.93v7.07c0,.43,0,.51.43.53l2.64.21v2.13Z"/><path class="cls-1" d="M329.32,196.57a12.47,12.47,0,0,1-5.47,1.36c-5.15,0-6.91-3.2-6.91-7.36,0-4.83,3-7.12,6.62-7.12s5.87,1.84,5.87,6.46c0,.32,0,1.25-.05,1.79h-8.17c.13,1.89,1,3.15,3.15,3.15a11.37,11.37,0,0,0,4-.91Zm-3.84-7.42c0-2.24-.91-2.83-2-2.83s-2.08.64-2.24,2.83Z"/><path class="cls-1" d="M339.08,187.89l-.27-1.39c0-.21-.08-.32-.27-.37a6.35,6.35,0,0,0-1.71-.21c-1.33,0-2.08.51-2.08,1.36,0,1.09,1.47,1.33,3.1,1.71,2.11.48,4.48,1.23,4.48,4.35s-2.64,4.59-6,4.59a13.65,13.65,0,0,1-5.28-1V193.1l2.85.21.27,1.52c0,.24.08.35.32.4a7,7,0,0,0,2.05.27c1.41,0,2.21-.4,2.21-1.39s-1.07-1.39-2.43-1.63c-2.24-.4-5.18-.88-5.18-4.38,0-3.31,2.83-4.67,5.9-4.67a15.88,15.88,0,0,1,4.91.77v3.87Z"/><path class="cls-1" d="M354.08,196.86a10.65,10.65,0,0,1-4.35,1.07c-3.18,0-4.38-1.28-4.38-4.3v-7c0-.16,0-.27-.21-.27h-1.87V184c2.35-.27,3.28-1.44,3.58-4.35h2.54v3.79c0,.19,0,.27.21.27h3.76v2.67h-4v6.38c0,1.57.37,2.19,1.81,2.19a6.36,6.36,0,0,0,2.16-.43Z"/><path class="cls-1" d="M357,203.26V201.1l2.08-.24c.35,0,.51-.21.67-.59l1.15-2.53-5.1-11.15c-.11-.32-.24-.37-.56-.45l-1.09-.27.43-2.16h7.07v2.16l-1.68.21,3,7h.19l2.83-7-1.73-.21.35-2.16h5.95v2.16l-.85.16a.73.73,0,0,0-.67.45l-5.87,14.36,2.77.29v2.13Z"/></g><path id="leaf" class="cls-1" d="M160.6,153,146,138.45A44.11,44.11,0,0,0,111.7,66.59H67.56v44.14a44.11,44.11,0,0,0,71.5,34.61L153.69,160Zm-14.54-42.33a34.18,34.18,0,0,1-7,20.77l-26.86-26.86V76.37A34.4,34.4,0,0,1,146.06,110.72Zm-68.72,0V83.61l35.76,35.76H78.43A34.3,34.3,0,0,1,77.33,110.72Zm25.08-15.86-18.5-18.5h18.5Zm9.29,50.22a34.37,34.37,0,0,1-29-15.95h40.17l9.22,9.22A34.18,34.18,0,0,1,111.7,145.08Z"/><path class="cls-1" d="M84.33,243.12c-9.61,0-17.3-6.49-17.3-16.65,0-9.52,7.77-16.65,17.3-16.65A16.37,16.37,0,0,1,93,212.29l-2.07,3.4a12.51,12.51,0,0,0-6.58-1.93,12.25,12.25,0,0,0-12.61,12.7c0,7.82,5.24,12.7,12.61,12.7a12.46,12.46,0,0,0,7.13-2.25l2.35,3.27A16.74,16.74,0,0,1,84.33,243.12Z"/><path class="cls-1" d="M120,231.06A11.74,11.74,0,1,1,108.25,219,11.71,11.71,0,0,1,120,231.06Zm-11.73-8.19c-4.32,0-7.45,3.73-7.45,8.19s3.13,8.19,7.45,8.19,7.45-3.73,7.45-8.19S112.57,222.87,108.25,222.87Z"/><path class="cls-1" d="M156.41,242.56v-11.5c0-2.21,0-4.69-1.1-6.35a4.4,4.4,0,0,0-4-1.84c-2.21,0-4.65,1.56-6.35,3.82a25.63,25.63,0,0,1,.28,3.91v12h-4.19v-11.5c0-2.21,0-4.88-1.24-6.58a4,4,0,0,0-3.54-1.61c-2.35,0-4.83,2.12-6.35,4.23v15.46h-4.19v-23H130v3.5a9.27,9.27,0,0,1,7.22-4,7.19,7.19,0,0,1,6.39,3.17,5.86,5.86,0,0,1,.55,1.06,9.62,9.62,0,0,1,8-4.23c3.08,0,5.06,1,6.35,2.71,1.61,2.12,2.12,5.34,2.12,8.88v12Z"/><path class="cls-1" d="M198.69,242.56v-11.5c0-2.21,0-4.69-1.1-6.35a4.4,4.4,0,0,0-4-1.84c-2.21,0-4.65,1.56-6.35,3.82a25.63,25.63,0,0,1,.28,3.91v12h-4.19v-11.5c0-2.21,0-4.88-1.24-6.58a4,4,0,0,0-3.54-1.61c-2.35,0-4.83,2.12-6.35,4.23v15.46H168v-23h4.19v3.5a9.27,9.27,0,0,1,7.22-4,7.19,7.19,0,0,1,6.39,3.17,5.86,5.86,0,0,1,.55,1.06,9.62,9.62,0,0,1,8-4.23c3.08,0,5.06,1,6.35,2.71,1.61,2.12,2.12,5.34,2.12,8.88v12Z"/><path class="cls-1" d="M226.28,238.79a8.78,8.78,0,0,1-7.5,4.32c-3.22,0-5.34-1.1-6.67-2.9-1.56-2.12-2.07-5.2-2.07-8.69v-12h4.19v11.5c0,2.25.09,4.69,1.2,6.35a4.43,4.43,0,0,0,4,1.84c2.67,0,5.2-1.84,6.85-4.42V219.56h4.19v23h-4.19Z"/><path class="cls-1" d="M242.38,219.56v3.77a8.78,8.78,0,0,1,7.5-4.32c3.22,0,5.34,1.1,6.67,2.9,1.56,2.12,2.07,5.2,2.07,8.69v12h-4.19v-11.5c0-2.25-.09-4.69-1.2-6.35a4.43,4.43,0,0,0-4-1.84c-2.67,0-5.2,1.84-6.85,4.42v15.27h-4.19v-23Z"/><path class="cls-1" d="M266.07,215.05v-4.69h4.19v4.69Zm0,27.51v-23h4.19v23Z"/><path class="cls-1" d="M282.4,223.24v10.4c0,.6,0,1.1,0,1.79.14,2.44.92,3.86,3.22,3.86a5.92,5.92,0,0,0,2.58-.64l1.15,3.36a9.78,9.78,0,0,1-4.28,1c-3.22,0-5.2-1.43-6.17-3.59a12.62,12.62,0,0,1-.74-4.78V223.24h-3.08v-3.68h3.08V214h4.19v5.52h6.44v3.68Z"/><path class="cls-1" d="M295.65,219.56l6,17.44h.09l6.12-17.44h4.55l-12.93,33.35-3.68-1.43,3.63-9.61L291,219.56Z"/></svg>