<?xml version="1.0" encoding="utf-8"?>
<!-- Generator: Adobe Illustrator 19.2.1, SVG Export Plug-In . SVG Version: 6.00 Build 0)  -->
<svg version="1.1" xmlns="http://www.w3.org/2000/svg" xmlns:xlink="http://www.w3.org/1999/xlink" x="0px" y="0px"
	 viewBox="0 0 483.6 378.6" style="enable-background:new 0 0 483.6 378.6;" xml:space="preserve">
<style type="text/css">
	.st0{display:none;}
	.st1{display:inline;}
	.st2{display:inline;fill:#EDEDED;}
	.st3{fill:none;stroke:#EDEDED;stroke-width:0.75;stroke-miterlimit:10;}
	.st4{fill:none;stroke:#EDEDED;stroke-width:0.75;stroke-miterlimit:10;stroke-dasharray:1.9982,1.9982;}
	.st5{fill:none;stroke:#EDEDED;stroke-width:0.75;stroke-miterlimit:10;stroke-dasharray:1.9925,1.9925;}
	.st6{fill:none;stroke:#EDEDED;stroke-width:0.75;stroke-miterlimit:10;stroke-dasharray:1.9932,1.9932;}
</style>
<g id="Logo">
	<g id="text">
		<g id="shavington-cum-gresty">
			<path d="M77.5,204.9l-0.3-2.2c-0.1-0.3-0.1-0.4-0.3-0.5c-0.4-0.1-1.1-0.3-1.9-0.3c-2,0-3,0.9-3,2.3c0,1.8,1.8,2.2,3.8,2.9
				c2.5,0.8,5.4,1.7,5.4,5.7c0,4.4-3.4,6.1-7.5,6.1c-2.4,0-5.1-0.6-6.1-1.1v-5.2h3l0.5,2.5c0.1,0.3,0.1,0.4,0.5,0.5
				c0.3,0.1,1.2,0.3,2.2,0.3c2.2,0,3.4-0.9,3.4-2.5c0-1.7-1.5-2.2-3.3-2.7c-2.6-0.7-5.9-1.5-5.9-5.8c0-4.1,3.1-6,7.2-6
				c2.3,0,4.3,0.6,5.5,1.1v5.2L77.5,204.9z"/>
			<path d="M92.7,218.5v-8.7c0-0.8-0.1-2.3-1.4-2.3c-1,0-2.1,0.5-2.8,1v7.2c0,0.4,0,0.5,0.4,0.5l1.3,0.2v2.1h-7.4v-2.1l1.2-0.2
				c0.4-0.1,0.4-0.1,0.4-0.5v-14.1c0-0.3-0.1-0.5-0.3-0.6l-1.5-0.5l0.3-2.2h5.5v7.6l0.1,0c1.2-1,2.6-1.6,4.3-1.6
				c2.8,0,3.9,1.5,3.9,4.3v7c0,0.4,0,0.5,0.4,0.5l1.3,0.2v2.1H92.7z"/>
			<path d="M108.5,218.5l-0.3-1.4l-0.1,0c-1,1-2.3,1.8-4.5,1.8c-3.4,0-3.9-2.3-3.9-3.9c0-2.7,1.7-3.9,5-4.1l3.1-0.2v-1.5
				c0-1.3-0.1-2.1-1.8-2.1c-1.3,0-1.9,0.2-1.9,1.8l-3.8-0.3c0-3.6,3.3-4.1,5.7-4.1c4.1,0,5.7,1.1,5.7,4.8v6.5c0,0.4,0,0.5,0.4,0.5
				l1.3,0.2v2.1H108.5z M107.8,212.8l-1.8,0.1c-1.6,0.1-2.1,0.5-2.1,1.6c0,1.1,0.6,1.5,1.5,1.5c0.9,0,1.8-0.5,2.4-1V212.8z"/>
			<path d="M118.8,218.5l-4.2-11c-0.1-0.3-0.2-0.4-0.6-0.5l-1.1-0.2l0.4-2.2h7.2v2.2l-1.7,0.2l2.7,7.6h0.2l2.8-7.6l-1.7-0.2l0.3-2.2
				h6.2v2.2l-1,0.2c-0.3,0.1-0.5,0.1-0.7,0.5l-4.2,11.1H118.8z"/>
			<path d="M130,218.5v-2.1l1.4-0.2c0.4-0.1,0.4-0.1,0.4-0.5v-7.8c0-0.3-0.1-0.5-0.3-0.6l-1.4-0.5l0.3-2.2h5.5v11.1
				c0,0.4,0,0.5,0.4,0.5l1.4,0.2v2.1H130z M133.4,202.5c-1.5,0-2.4-0.9-2.4-2.4c0-1.5,0.9-2.3,2.4-2.3c1.5,0,2.4,0.8,2.4,2.3
				C135.9,201.6,135,202.5,133.4,202.5z"/>
			<path d="M148.4,218.5v-8.6c0-1.3-0.1-2.3-1.4-2.3c-1,0-2.2,0.6-2.8,1v7.2c0,0.4,0,0.5,0.4,0.5l1.3,0.2v2.1h-7.4v-2.1l1.2-0.2
				c0.4-0.1,0.4-0.1,0.4-0.5v-7.8c0-0.3-0.1-0.5-0.3-0.6l-1.4-0.5l0.3-2.2h4.7l0.2,1.4l0.1,0.1c1.3-1,2.9-1.7,4.7-1.7
				c2.9,0,4,1.6,4,4.5v6.8c0,0.4,0,0.5,0.4,0.5l1.3,0.2v2.1H148.4z"/>
			<path d="M166.9,207.1c0.5,0.6,1,1.5,1,2.7c0,3-2.3,4.7-5.7,4.7c-0.9,0-1.6-0.1-2.1-0.2l-0.9,1.4l2.6,0.2c4.6,0.3,7.3,0.4,7.3,4
				c0,3.1-2.7,4.8-7.3,4.8c-4.8,0-6.7-1.2-6.7-3.3c0-1.2,0.5-1.8,1.5-2.7c-0.9-0.4-1.2-1-1.2-1.8c0-0.6,0.3-1.1,0.8-1.6
				c0.5-0.5,1-1,1.7-1.6c-1.3-0.6-2.3-2-2.3-4c0-3.1,2-5.2,6.1-5.2c1.1,0,1.8,0.1,2.5,0.3h5.2v2.3L166.9,207.1z M159,219.3
				c-0.3,0.4-0.7,0.9-0.7,1.4c0,1.1,1.4,1.4,3.2,1.4c1.5,0,3.7-0.1,3.7-1.5c0-0.9-1-0.9-2.3-1L159,219.3z M162,207
				c-1.5,0-2.6,0.7-2.6,2.5c0,1.3,0.7,2.2,2.5,2.2c1.5,0,2.5-0.9,2.5-2.3C164.4,207.8,163.5,207,162,207z"/>
			<path d="M180.7,217.8c-1.1,0.6-2.8,1.1-4.3,1.1c-3.2,0-4.4-1.3-4.4-4.3v-7c0-0.2,0-0.3-0.2-0.3h-1.9v-2.4
				c2.3-0.3,3.3-1.4,3.6-4.3h2.5v3.8c0,0.2,0,0.3,0.2,0.3h3.8v2.7h-4v6.4c0,1.6,0.4,2.2,1.8,2.2c0.7,0,1.5-0.2,2.2-0.4L180.7,217.8z
				"/>
			<path d="M181.2,211.7c0-4.4,2.3-7.3,7.2-7.3c4.9,0,6.9,2.9,6.9,7c0,4.5-2.3,7.5-7.2,7.5C183.2,218.9,181.2,215.9,181.2,211.7z
				 M191.1,211.5c0-3.1-1-4.3-2.7-4.3c-1.8,0-2.9,1.1-2.9,4.3c0,3.2,1,4.5,2.8,4.5C190,216.1,191.1,214.9,191.1,211.5z"/>
			<path d="M206.5,218.5v-8.6c0-1.3-0.1-2.3-1.4-2.3c-1,0-2.2,0.6-2.8,1v7.2c0,0.4,0,0.5,0.4,0.5l1.3,0.2v2.1h-7.4v-2.1l1.2-0.2
				c0.4-0.1,0.4-0.1,0.4-0.5v-7.8c0-0.3-0.1-0.5-0.3-0.6l-1.4-0.5l0.3-2.2h4.7l0.2,1.4l0.1,0.1c1.3-1,2.9-1.7,4.7-1.7
				c2.9,0,4,1.6,4,4.5v6.8c0,0.4,0,0.5,0.4,0.5l1.3,0.2v2.1H206.5z"/>
			<path d="M213.1,212.5v-3.4h7.2v3.4H213.1z"/>
			<path d="M234.3,217.6c-1.2,0.7-3.1,1.3-5.1,1.3c-4.8,0-7-3-7-7.1c0-5,3-7.4,7.3-7.4c2.1,0,3.9,0.6,4.7,1.1v4.2l-2.9-0.1l-0.3-1.8
				c0-0.2-0.1-0.3-0.3-0.4c-0.3-0.1-0.8-0.2-1.4-0.2c-1.6,0-3,1.1-3,4.2c0,3.5,1.5,4.5,3.4,4.5c1.3,0,2.5-0.4,3.3-0.8L234.3,217.6z"
				/>
			<path d="M246.3,218.5l-0.2-1.4l-0.1,0c-1.1,0.8-2.5,1.8-4.7,1.8c-2.8,0-3.9-1.6-3.9-4.7v-6.5c0-0.4,0-0.5-0.4-0.6l-1.3-0.3
				l0.3-2.2h5.5v8.8c0,1.6,0.3,2.2,1.4,2.2c1.2,0,2.1-0.7,2.7-1.2v-6.9c0-0.4,0-0.5-0.4-0.5l-1.1-0.3l0.3-2.2h5.3v11.1
				c0,0.3,0,0.5,0.4,0.5l1.3,0.2v2.1H246.3z"/>
			<path d="M269.3,218.5v-8.6c0-1-0.1-2.3-1.5-2.3c-0.7,0-1.5,0.3-2.2,0.7c0.1,0.4,0.1,0.9,0.1,1.3v6.1c0,0.5,0,0.5,0.4,0.6l1.1,0.2
				v2.1h-5.5v-8.8c0-1-0.1-2.2-1.4-2.2c-0.8,0-1.7,0.4-2.2,0.9v7.2c0,0.5,0,0.5,0.4,0.5l1.3,0.2v2.1h-7.4v-2.1l1.2-0.2
				c0.4-0.1,0.4-0.1,0.4-0.5v-7.8c0-0.3-0.1-0.5-0.3-0.6l-1.4-0.5l0.3-2.2h4.7l0.2,1.4l0.1,0c1.2-1,2.6-1.7,4.3-1.7
				c1.3,0,2.5,0.3,3.3,1.6c0.9-0.7,2.4-1.6,4.3-1.6c2.9,0,3.9,1.4,3.9,4.5v6.8c0,0.4,0,0.5,0.4,0.6l1.3,0.2v2.1H269.3z"/>
			<path d="M276,212.5v-3.4h7.2v3.4H276z"/>
			<path d="M302.4,211.5c-0.3,0-0.4,0.1-0.4,0.4v5.7c-2,1-4.7,1.3-6.9,1.3c-7.3,0-9.8-4.3-9.8-10c0-5.7,3.3-10,10-10
				c1.9,0,4.4,0.5,6,1.5v5l-3-0.2l-0.4-2.4c-0.1-0.4-0.2-0.5-0.4-0.5c-0.7-0.2-1.6-0.3-2.5-0.3c-3.4,0-5.5,2.6-5.5,6.8
				c0,4.4,1.9,7,5.7,7c0.7,0,1.6-0.1,2.2-0.2c0.3-0.1,0.4-0.1,0.4-0.5v-3.5h-3l0.4-2.4h8.2v2.1L302.4,211.5z"/>
			<path d="M304.4,218.5v-2.2l1.2-0.2c0.4-0.1,0.4-0.1,0.4-0.5v-7.8c0-0.3-0.1-0.5-0.3-0.6l-1.4-0.5l0.3-2.2h4.7l0.3,2.1h0.2
				c0.9-1.4,2.1-2.4,3.8-2.4c0.6,0,1.8,0.1,2.3,0.2v4.9l-3.2-0.1l-0.3-1.4c-0.1-0.2-0.1-0.3-0.3-0.3c-0.7,0-1.5,0.6-1.9,0.9v7.1
				c0,0.4,0,0.5,0.4,0.5l2.6,0.2v2.1H304.4z"/>
			<path d="M329.3,217.5c-1.7,0.8-3.5,1.4-5.5,1.4c-5.1,0-6.9-3.2-6.9-7.4c0-4.8,3-7.1,6.6-7.1c3.5,0,5.9,1.8,5.9,6.5
				c0,0.3,0,1.3-0.1,1.8h-8.2c0.1,1.9,1,3.1,3.1,3.1c1,0,2.2-0.2,4-0.9L329.3,217.5z M325.5,210.1c0-2.2-0.9-2.8-2-2.8
				c-1.1,0-2.1,0.6-2.2,2.8H325.5z"/>
			<path d="M339.1,208.8l-0.3-1.4c0-0.2-0.1-0.3-0.3-0.4c-0.3-0.1-1-0.2-1.7-0.2c-1.3,0-2.1,0.5-2.1,1.4c0,1.1,1.5,1.3,3.1,1.7
				c2.1,0.5,4.5,1.2,4.5,4.3c0,3.3-2.6,4.6-6,4.6c-2.4,0-4.8-0.6-5.3-1V214l2.9,0.2l0.3,1.5c0,0.2,0.1,0.3,0.3,0.4
				c0.3,0.1,1,0.3,2.1,0.3c1.4,0,2.2-0.4,2.2-1.4c0-1.1-1.1-1.4-2.4-1.6c-2.2-0.4-5.2-0.9-5.2-4.4c0-3.3,2.8-4.7,5.9-4.7
				c2.1,0,4.2,0.5,4.9,0.8v3.9L339.1,208.8z"/>
			<path d="M354.1,217.8c-1.1,0.6-2.8,1.1-4.3,1.1c-3.2,0-4.4-1.3-4.4-4.3v-7c0-0.2,0-0.3-0.2-0.3h-1.9v-2.4
				c2.3-0.3,3.3-1.4,3.6-4.3h2.5v3.8c0,0.2,0,0.3,0.2,0.3h3.8v2.7h-4v6.4c0,1.6,0.4,2.2,1.8,2.2c0.7,0,1.5-0.2,2.2-0.4L354.1,217.8z
				"/>
			<path d="M357,224.2V222l2.1-0.2c0.3,0,0.5-0.2,0.7-0.6l1.1-2.5l-5.1-11.2c-0.1-0.3-0.2-0.4-0.6-0.5l-1.1-0.3l0.4-2.2h7.1v2.2
				l-1.7,0.2l3,7h0.2l2.8-7l-1.7-0.2l0.3-2.2h5.9v2.2l-0.9,0.2c-0.3,0.1-0.5,0.1-0.7,0.5l-5.9,14.4l2.8,0.3v2.1H357z"/>
		</g>
		<g id="neighbourhood">
			<path d="M90.7,263.7l-18.5-25.2v25.2h-4.6v-33.8h4.1l18.6,25.2v-25.2h4.6v33.8H90.7z"/>
			<path d="M105.8,252.7c0.3,4.1,3.1,7.8,7.8,7.8c3.2,0,5.7-1.2,7.2-3.9l3.2,2c-2.4,3.9-5.7,5.6-10.6,5.6c-7.7,0-12-5.6-12-12.6
				c0-7.2,5.3-12.6,12-12.6c6.4,0,11,4.8,11,11.2c0,0.8-0.1,1.9-0.2,2.5H105.8z M106.1,249.2h13.7c-0.2-3.4-2.8-6.5-6.4-6.5
				C109.5,242.7,107,245.6,106.1,249.2z"/>
			<path d="M130.5,234.8v-4.9h4.4v4.9H130.5z M130.5,263.7v-24.1h4.4v24.1H130.5z"/>
			<path d="M165,262.3c0,2.5-0.4,4.6-1.3,6.3c-2.2,4.2-6.4,5.7-10.9,5.7c-3.7,0-7.8-1.1-10.7-3.2l1.7-3.8c2.2,1.6,5.8,2.9,8.9,2.9
				c4.1,0,7.9-2,7.9-7.1v-3.3c-1.7,2.6-4.8,3.8-7.7,3.8c-6.9,0-12-5.4-12-12.4c0-6.3,4.8-12.4,12.2-12.4c2.8,0,5.6,1.3,7.6,3.2v-2.7
				h4.4V262.3z M160.7,246.7c-1.7-2.4-4.5-3.7-7-3.7c-5.6,0-8.2,4.3-8.2,8.4c0,4.3,3.2,8.2,8.1,8.2c2.6,0,5.9-1.6,7.1-4.5V246.7z"/>
			<path d="M177.2,243.5c1.8-2.8,4.6-4.5,7.9-4.5c3.4,0,5.6,1.2,7,3c1.6,2.2,2.2,5.5,2.2,9.1v12.5h-4.4v-12.1c0-2.4-0.1-4.9-1.3-6.7
				c-0.8-1.2-2.1-1.9-4.2-1.9c-2.8,0-5.5,1.9-7.2,4.6v16h-4.4v-36.2h4.4V243.5z"/>
			<path d="M206.5,227.5v15.3c1.7-2.5,4.8-3.8,7.7-3.8c6.9,0,12.1,5.6,12.1,12.7c0,6.4-4.8,12.6-12.2,12.6c-2.8,0-5.6-1.2-7.6-3.2
				v2.6h-4.4v-36.2H206.5z M206.5,256.5c1.6,2.4,4.5,3.7,7,3.7c5.6,0,8.2-4.5,8.2-8.6c0-4.5-3.1-8.5-8.2-8.5c-2.6,0-5.9,1.6-7.1,4.6
				V256.5z"/>
			<path d="M254.9,251.6c0,7-5.3,12.6-12.3,12.6c-7,0-12.3-5.6-12.3-12.6c0-7,5.3-12.6,12.3-12.6C249.6,239,254.9,244.6,254.9,251.6
				z M242.6,243c-4.5,0-7.8,3.9-7.8,8.6c0,4.7,3.3,8.6,7.8,8.6c4.5,0,7.8-3.9,7.8-8.6C250.4,246.9,247.1,243,242.6,243z"/>
			<path d="M277.7,259.7c-1.8,2.8-4.6,4.5-7.9,4.5c-3.4,0-5.6-1.2-7-3c-1.6-2.2-2.2-5.5-2.2-9.1v-12.5h4.4v12.1
				c0,2.4,0.1,4.9,1.3,6.7c0.8,1.2,2.1,1.9,4.2,1.9c2.8,0,5.5-1.9,7.2-4.6v-16h4.4v24.1h-4.4V259.7z"/>
			<path d="M294.6,243.6c1.4-2.6,3.6-4.6,6.2-4.6c1,0,1.7,0.1,2.6,0.3l-0.8,4.7c-0.7-0.3-1.4-0.5-2.3-0.5c-2.5,0-4.2,1.4-5.7,4.1
				v16.2h-4.4v-24.1h4.4V243.6z"/>
			<path d="M311.8,243.5c1.8-2.8,4.6-4.5,7.9-4.5c3.4,0,5.6,1.2,7,3c1.6,2.2,2.2,5.5,2.2,9.1v12.5h-4.4v-12.1c0-2.4-0.1-4.9-1.3-6.7
				c-0.8-1.2-2.1-1.9-4.2-1.9c-2.8,0-5.5,1.9-7.2,4.6v16h-4.4v-36.2h4.4V243.5z"/>
			<path d="M359.2,251.6c0,7-5.3,12.6-12.3,12.6c-7,0-12.3-5.6-12.3-12.6c0-7,5.3-12.6,12.3-12.6C353.9,239,359.2,244.6,359.2,251.6
				z M346.9,243c-4.5,0-7.8,3.9-7.8,8.6c0,4.7,3.3,8.6,7.8,8.6c4.5,0,7.8-3.9,7.8-8.6C354.7,246.9,351.4,243,346.9,243z"/>
			<path d="M387.9,251.6c0,7-5.3,12.6-12.3,12.6c-7,0-12.3-5.6-12.3-12.6c0-7,5.3-12.6,12.3-12.6C382.6,239,387.9,244.6,387.9,251.6
				z M375.5,243c-4.5,0-7.8,3.9-7.8,8.6c0,4.7,3.3,8.6,7.8,8.6c4.5,0,7.8-3.9,7.8-8.6C383.4,246.9,380.1,243,375.5,243z"/>
			<path d="M391.9,251.6c0-6.4,4.8-12.6,12.2-12.6c2.8,0,5.6,1.3,7.6,3.2v-14.7h4.4v36.2h-4.4v-3.2c-1.7,2.6-4.8,3.8-7.7,3.8
				C397,264.3,391.9,258.7,391.9,251.6z M411.6,255.7v-9c-1.7-2.4-4.5-3.7-7-3.7c-5.6,0-8.2,4.5-8.2,8.7c0,4.4,3.1,8.5,8.2,8.5
				C407.1,260.2,410.4,258.6,411.6,255.7z"/>
		</g>
		<g id="plan">
			<path d="M77.6,297.1h-5.5v13.5h-4.6v-33.8h10.1c5.5,0,11.9,2.7,11.9,10.1C89.6,294.4,83.1,297.1,77.6,297.1z M77.4,280.9h-5.2v12
				h4.2c4.7,0,8.2-1.5,8.2-5.9C84.6,283.2,81.7,280.9,77.4,280.9z"/>
			<path d="M99.4,310.6h-4.4v-36.2h4.4V310.6z"/>
			<path d="M121.9,310.6V308c-2,2.2-4.1,3.1-7.2,3.1c-4.4,0-8.5-2.2-8.5-7.3c0-6.1,5.5-8,10.8-8c1.2,0,2.8,0.1,4.8,0.5v-0.9
				c0-3.7-1.7-5.8-5.7-5.8c-2.8,0-5.7,1.1-7.7,2.1l-1.3-3.7c2.5-1.2,6.2-2.3,9.5-2.3c7,0,9.6,3.8,9.6,10v14.7H121.9z M121.7,299.6
				c-1.8-0.4-3.1-0.5-4.3-0.5c-3,0-6.9,0.7-6.9,4.3c0,2.9,2.2,4,4.8,4c2.5,0,4.6-1.3,6.5-2.9V299.6z"/>
			<path d="M138.3,286.4v4c1.8-2.8,4.6-4.5,7.9-4.5c3.4,0,5.6,1.2,7,3c1.6,2.2,2.2,5.5,2.2,9.1v12.5h-4.4v-12.1
				c0-2.4-0.1-4.9-1.3-6.7c-0.8-1.2-2.1-1.9-4.2-1.9c-2.8,0-5.5,1.9-7.2,4.6v16h-4.4v-24.1H138.3z"/>
		</g>
	</g>
	<path id="leaf" d="M180.5,172.5l-17.7-17.7c7.5-9.2,11.9-20.9,11.9-33.7c0-29.6-24-53.6-53.6-53.6H67.6v53.6
		c0,29.6,24,53.6,53.6,53.6c12.5,0,24.1-4.3,33.2-11.6l17.8,17.8L180.5,172.5z M162.9,121.1c0,9.5-3.2,18.2-8.5,25.2l-32.6-32.6
		V79.4C144.5,79.7,162.9,98.3,162.9,121.1z M79.4,121.1V88.2l43.4,43.4H80.8C79.9,128.3,79.4,124.7,79.4,121.1z M109.9,101.8
		L87.4,79.4h22.5V101.8z M121.2,162.8c-14.8,0-27.8-7.7-35.2-19.4h48.8l11.2,11.2C139,159.8,130.4,162.8,121.2,162.8z"/>
</g>
<g id="Spacing_Guide" class="st0">
	<path class="st2" d="M43.3,33.8L24.8,8.6v25.2h-4.6V0h4.1l18.6,25.2V0h4.6v33.8H43.3z"/>
	<path class="st2" d="M43.3,67.5L24.8,42.4v25.2h-4.6V33.8h4.1L42.8,59V33.8h4.6v33.8H43.3z"/>
	<path class="st2" d="M459.3,344.9l-18.5-25.2v25.2h-4.6v-33.8h4.1l18.6,25.2v-25.2h4.6v33.8H459.3z"/>
	<path class="st2" d="M459.3,378.6l-18.5-25.2v25.2h-4.6v-33.8h4.1l18.6,25.2v-25.2h4.6v33.8H459.3z"/>
	<path class="st2" d="M33.8,335.3L8.6,353.9h25.2v4.6H0l0-4.1l25.2-18.6H0l0-4.6h33.8V335.3z"/>
	<path class="st2" d="M67.5,335.3l-25.2,18.5h25.2v4.6H33.8v-4.1L59,335.9H33.8v-4.6h33.8V335.3z"/>
	<path class="st2" d="M46.6,197.8L28,172.6v25.2h-4.6V164h4.1L46,189.2V164h4.6v33.8H46.6z"/>
	<path class="st2" d="M449.8,24.2l-25.2,18.5h25.2v4.6H416v-4.1l25.2-18.6H416v-4.6h33.8V24.2z"/>
	<path class="st2" d="M483.6,24.2l-25.2,18.5h25.2v4.6h-33.8v-4.1L475,24.8h-25.2v-4.6h33.8V24.2z"/>
	<g class="st1">
		<g>
			<line class="st3" x1="0" y1="197.8" x2="1" y2="197.8"/>
			<line class="st4" x1="3" y1="197.8" x2="481.6" y2="197.8"/>
			<line class="st3" x1="482.6" y1="197.8" x2="483.6" y2="197.8"/>
		</g>
	</g>
	<g class="st1">
		<g>
			<line class="st3" x1="0" y1="229.9" x2="1" y2="229.9"/>
			<line class="st4" x1="3" y1="229.9" x2="481.6" y2="229.9"/>
			<line class="st3" x1="482.6" y1="229.9" x2="483.6" y2="229.9"/>
		</g>
	</g>
	<g class="st1">
		<g>
			<line class="st3" x1="0" y1="264.3" x2="1" y2="264.3"/>
			<line class="st4" x1="3" y1="264.3" x2="481.6" y2="264.3"/>
			<line class="st3" x1="482.6" y1="264.3" x2="483.6" y2="264.3"/>
		</g>
	</g>
	<g class="st1">
		<g>
			<line class="st3" x1="483.6" y1="180.9" x2="482.6" y2="180.9"/>
			<line class="st4" x1="480.6" y1="180.9" x2="2" y2="180.9"/>
			<line class="st3" x1="1" y1="180.9" x2="0" y2="180.9"/>
		</g>
	</g>
	<g class="st1">
		<g>
			<line class="st3" x1="483.6" y1="67.5" x2="482.6" y2="67.5"/>
			<line class="st4" x1="480.6" y1="67.5" x2="2" y2="67.5"/>
			<line class="st3" x1="1" y1="67.5" x2="0" y2="67.5"/>
		</g>
	</g>
	<g class="st1">
		<g>
			<line class="st3" x1="67.6" y1="0" x2="67.6" y2="1"/>
			<line class="st5" x1="67.6" y1="3" x2="67.6" y2="376.6"/>
			<line class="st3" x1="67.6" y1="377.6" x2="67.6" y2="378.6"/>
		</g>
	</g>
	<g class="st1">
		<g>
			<line class="st3" x1="416" y1="0" x2="416" y2="1"/>
			<line class="st6" x1="416" y1="3" x2="416" y2="376.8"/>
			<line class="st3" x1="416" y1="377.7" x2="416" y2="378.7"/>
		</g>
	</g>
	<g class="st1">
		<g>
			<line class="st3" x1="0" y1="311.1" x2="1" y2="311.1"/>
			<line class="st4" x1="3" y1="311.1" x2="481.6" y2="311.1"/>
			<line class="st3" x1="482.6" y1="311.1" x2="483.6" y2="311.1"/>
		</g>
	</g>
</g>
</svg>
