<svg id="Final" xmlns="http://www.w3.org/2000/svg" viewBox="0 0 595.28 841.89"><defs><style>.cls-1{fill:#fff;}</style></defs><title>CoatofArms-White</title><path class="cls-1" d="M127.82,384.48a18,18,0,0,0-30.9-15.8,18.28,18.28,0,0,0-2.09,2.76l0,0h0c-.26.47-.52.94-.76,1.43s-.58,1.22-.84,1.83a34,34,0,0,0,2.33,31.17l1,.43-.27.77a33.87,33.87,0,0,0,2.11,2.81,14.76,14.76,0,0,0,7.35-7.74l.07-.16.11-.24.4-1,.1-.05c.21-.42.42-.82.63-1.2.34-.6.72-1.18,1.11-1.74a19.1,19.1,0,0,1-2.41-6.61,22.1,22.1,0,0,0,7,1.62,25.46,25.46,0,0,1,4.65-3.07,13.55,13.55,0,0,0,.36-4.58A19,19,0,0,0,127.82,384.48Z"/><path class="cls-1" d="M160,243.56a20.1,20.1,0,0,1,9.87-4.15l.23-1.72a50.52,50.52,0,0,0-11.51-1.36,33.64,33.64,0,0,0-5.68.41c-10.13,1.89-14.94,6.4-17.11,9.44a54.4,54.4,0,0,1,22.39-1A19.44,19.44,0,0,1,160,243.56Z"/><path class="cls-1" d="M114.71,557.74a51.12,51.12,0,0,0,51.11-51.11,50.82,50.82,0,0,0-7.37-26.41,95.45,95.45,0,0,1-.7,13.62C156,507.42,151.49,517,144.27,522.4l0,.1-.32.17-.16.12,0,0a20.88,20.88,0,0,1-6,2.12,33.16,33.16,0,0,1-13.76-.23,26.11,26.11,0,0,1-6.21-2.25,19.3,19.3,0,0,0,4.06,9.1c.25.32.51.63.78.94l4,4.53-.06,0-5.63-2.17-1-.42c-5-2.11-12.49-6.55-15.6-15-5,8-2.92,17.48.57,23.06a35.14,35.14,0,0,1-8.53-3.16l-.22-.11A18.89,18.89,0,1,1,124,521.57a30.6,30.6,0,0,0,13.79.26,32.64,32.64,0,1,0-53.34,26,50.76,50.76,0,0,0,27,9.79C112.53,557.7,113.61,557.74,114.71,557.74Z"/><path class="cls-1" d="M155.43,479.61c-5.07-.33-13.18-3.41-25.29-14.48.47,7.47-1.13,15.56-3.64,18.82a3.89,3.89,0,0,1-1.07.94A25,25,0,0,0,135.29,495a10.4,10.4,0,0,0,4.87-6.94,34.23,34.23,0,0,1,6,28.43C154.94,506.17,155.63,488.08,155.43,479.61Z"/><path class="cls-1" d="M87.49,476.32a19,19,0,0,0,11.2,1.18A18,18,0,0,0,99,461.4a52.8,52.8,0,0,1-2.44-9.34,9.69,9.69,0,0,0,1.16.44c5.85,1.92,10.11,4.32,13.07,7.1a18.59,18.59,0,0,1,2.61,3,17.4,17.4,0,0,1,2.79,11.86c0,.32-.07.64-.11,1a39,39,0,0,1-2.79,9.74,20.12,20.12,0,0,0,7.31-1.11,13.06,13.06,0,0,0,3.16-1.67c.13-.09.27-.18.39-.28,3.15-4.1,5-20.39.15-27,7.68,8.12,21,20.62,31,21.48l.77,0h.3a10.57,10.57,0,0,0,1.93-.19,8.92,8.92,0,0,0,3.28-1.28.53.53,0,0,0,.18-.56,10,10,0,0,0,0-5.74,16,16,0,0,0-6.49-8.38c-.26-.18-.53-.35-.8-.52a19.06,19.06,0,0,0,6.19-4.34,18,18,0,0,0-16.15-15.51l.06-.09c-5.13-.44-10.2-.52-14.58-1.11h.26c7.39,0,13.42-4.34,15.66-10.44a19.56,19.56,0,0,0-2.39-3l.89-.3c10.21-3.84,15.76-11.61,14.89-19.37a33.26,33.26,0,0,0-4.22-1.67l-.19-.06q-1.38-.44-2.8-.77h0c-.87-.2-1.76-.37-2.65-.51l-.31-.05c-.86-.13-1.73-.22-2.6-.3l-.58,0c-.81-.05-1.63-.09-2.45-.09H143l-1.38,0c-.57,0-1.17.07-1.83.13l-.87.08a37.56,37.56,0,0,0-9.14,2.15c-.64.24-1.27.5-1.88.77,2.29-5.66,1.37-11.5-2.16-15.4a21.91,21.91,0,0,0-16.05,10.78,20.2,20.2,0,0,0-.93,1.87h0c0,.1-.08.18-.12.28l-.08.17c-6.58,15.71-28,11.31-28,11.31s9.8.44,12.29-6.59c-20.45-8.38-14.06-26.56-8.21-39.42-.28-.29-.56-.59-.87-.93a39.47,39.47,0,0,1-8.37-15.1,21.76,21.76,0,0,1-11.63,5.83c-16.8,25.87-7.84,45.22-3.26,60.23,3.94,12.92-1.21,28.3-3.81,34.73a19.71,19.71,0,0,0-1.33,3.06,21.91,21.91,0,0,0,2.73,19.14,13.36,13.36,0,0,0,8-2.69,19,19,0,0,0,14.37,18.92A18,18,0,0,0,87.49,476.32Zm4-9a14.66,14.66,0,0,1-4.75-7.41c-.86-2.92-.6-5.92-.55-8.75a31.26,31.26,0,0,0-.65-8.37,20,20,0,0,0-3.7-7.52l.15-.13a19.82,19.82,0,0,1,4.51,7.38,32.48,32.48,0,0,1,1.28,8.62,58.67,58.67,0,0,0,.9,8.31,25.67,25.67,0,0,0,3,7.74Zm42.84-38.21a23.77,23.77,0,0,0-8.31-.27c-2.79.25-5.59.61-8.44.75a29.3,29.3,0,0,1-8.61-.49,20.17,20.17,0,0,1-7.79-3.68l.09-.18a59.92,59.92,0,0,0,8.08,1.9,63.54,63.54,0,0,0,8.19.86c2.78.06,5.59-.09,8.42-.15a23.16,23.16,0,0,1,8.43,1.08Zm-26.15-14.78a28.34,28.34,0,0,0,3.81-3.72c1.14-1.43,2.15-3.06,3.5-4.48a9.9,9.9,0,0,1,5-2.86l.06.19-1.25.61c-.39.25-.77.5-1.15.76a10.32,10.32,0,0,0-1.87,2c-1.1,1.44-1.91,3.12-2.95,4.75a13.64,13.64,0,0,1-3.93,4.4,12.4,12.4,0,0,1-5.53,1.91l-.07-.19C105.3,416.43,106.81,415.46,108.16,414.31ZM71.79,440.1a31.61,31.61,0,0,1-4,7.65,72.66,72.66,0,0,0-4.3,7.22,15.14,15.14,0,0,0-1.8,8l-.2,0a15.27,15.27,0,0,1,1.08-8.46,73.58,73.58,0,0,1,3.84-7.64,76.42,76.42,0,0,0,3.51-7.51,25.59,25.59,0,0,0,1.87-8l.2,0A14.48,14.48,0,0,1,71.79,440.1Zm6.75,6.81c-.45,5-1.15,9.88-1.81,14.78-.35,2.45-.7,4.9-.94,7.36-.13,1.23-.2,2.46-.24,3.69a8.56,8.56,0,0,0,.55,3.57l-.17.1a8.77,8.77,0,0,1-.77-3.67c0-1.25,0-2.5,0-3.74.11-2.48.33-5,.55-7.43.47-4.93,1-9.86,1.21-14.78.12-2.46.18-4.92.12-7.37,0-1.23-.05-2.45-.11-3.66s-.12-2.43-.21-3.64a34.31,34.31,0,0,0-2.27-10.52,38.58,38.58,0,0,1-4.64-5.95,23.79,23.79,0,0,1-4-12.55l.3,0a27.28,27.28,0,0,0,5.39,11.37,44.63,44.63,0,0,0,4.29,4.76c.29.11.59.22.89.31l1,.35,1.08.27a19.32,19.32,0,0,0,2.17.45,55.7,55.7,0,0,0,8.85.69,140.23,140.23,0,0,0,17.88-1.07c5.95-.78,11.87-1.85,17.75-3.15s11.74-2.71,17.52-4.41l.06.19c-5.71,2-11.51,3.66-17.35,5.19S114,420.79,108,421.78a88.09,88.09,0,0,1-18.16,1.49,42.45,42.45,0,0,1-9.1-1.33,20.45,20.45,0,0,1-2.2-.7l-.76-.28c.91.8,1.84,1.59,2.79,2.34l2.52,1.94,2.59,1.86c1.75,1.22,3.5,2.42,5.32,3.55A127,127,0,0,0,102.17,437,186.15,186.15,0,0,0,126,446.93a136.32,136.32,0,0,0,25.07,6.39l0,.3a137.16,137.16,0,0,1-25.49-5.26,188.08,188.08,0,0,1-24.44-9.18c-7.88-3.7-15.77-7.75-22.48-13.57q-1-.9-2-1.86c.11.26.23.51.33.77a32.48,32.48,0,0,1,1.78,7.38A69.56,69.56,0,0,1,78.54,446.91Z"/><path class="cls-1" d="M150.38,304a37.2,37.2,0,0,0-15.31-3.25,14.34,14.34,0,0,0,1.59-8.72,13.57,13.57,0,0,0-15.06.7c-6.61,2.49-12.68-.39-16.93-4.48-.8-.13-1.61-.28-2.4-.46a16.54,16.54,0,0,1-4.69,10.83l-1,1.06-.8-.1.07.15a39.5,39.5,0,0,0,4.72,7.5c3.67,4.59,8.23,8.51,13,12.44a70.09,70.09,0,0,1,6.85,6.37,36.82,36.82,0,0,1,5.42,7.69,39.37,39.37,0,0,1,3.22,8.77,57.92,57.92,0,0,1,1.3,9.17l-.3,0a64.21,64.21,0,0,0-1.89-9,38.14,38.14,0,0,0-3.64-8.28,35.08,35.08,0,0,0-5.52-7.07,68,68,0,0,0-6.93-5.84c-2.44-1.84-5-3.62-7.39-5.62a35.82,35.82,0,0,1-6.53-6.9,31.87,31.87,0,0,1-4.65-9.82,19.8,19.8,0,0,1-6.75-2.79A69.41,69.41,0,0,1,87,307.24c-.07,1-.19,2-.34,3a26.48,26.48,0,0,1,3.27,6.87,31.47,31.47,0,0,1,1,11.7c-.25,3.89-1,7.7-1.54,11.47a43.78,43.78,0,0,0-.62,5.67,14.35,14.35,0,0,0,.8,5.59l-.18.08a14.75,14.75,0,0,1-1.22-5.67,44.53,44.53,0,0,1,.23-5.8c.39-3.83.9-7.63.94-11.41A44.09,44.09,0,0,0,88,317.63a42.66,42.66,0,0,0-1.7-5.34h0a53.36,53.36,0,0,1-5.75,15c-.83,1.51-1.74,3.06-2.72,4.59a155.79,155.79,0,0,1-19.26,23.72,19.26,19.26,0,0,0,7.74-1,18.92,18.92,0,0,0,10.66-9.17,37.51,37.51,0,0,0,1.22,5.93A36.62,36.62,0,0,0,86,365.58c.45.5.91,1,1.39,1.46.48-.11,1-.24,1.43-.39,6.79-2.22,11.85-9,12.89-18.26a34.78,34.78,0,0,0,5.93,7.15,11.35,11.35,0,0,0,6.59-5.94,22.68,22.68,0,0,0,1.87-12.68c-.09-.83-.22-1.66-.37-2.48a36.9,36.9,0,0,1,3.1,9.59,50.7,50.7,0,0,0,2.12,8.19c2.14,6.09,5.43,11.65,9.69,15.5a10.55,10.55,0,0,0,4.85-3.3,39.7,39.7,0,0,1,7.46,19.13,18.87,18.87,0,0,1-3.39,16c1.23-.11,2.46-.18,3.72-.18a41.53,41.53,0,0,1,12.54,1.91,33.84,33.84,0,0,0,2.68-12.07c0-.33,0-.65,0-1s0-.53,0-.8,0-.56,0-.85a55,55,0,0,0-12.81-34,35.8,35.8,0,0,0,11.64-1c1.64-6-2.4-12.86-11-17.23a35.45,35.45,0,0,0-7.57-2.76,33.09,33.09,0,0,0,5.82-1.24c1-4.23-.87-8.74-5-12.44C146.85,314.85,150.88,309.48,150.38,304Zm-42,38.72-.2,0a16.77,16.77,0,0,0-2.11-8.32,69.93,69.93,0,0,0-4.55-7.45c-1.63-2.44-3.42-4.8-4.81-7.41a46.85,46.85,0,0,1-3.56-8.14l.18-.09c1.88,2.33,3.48,4.77,5.1,7.2s3,5,4.45,7.59A71,71,0,0,1,107,334,17.37,17.37,0,0,1,108.42,342.71Zm16.28-11.84-.08-.07.22,0ZM137,309.73c-2.66-.69-5.38-.26-8.08.18a39.67,39.67,0,0,1-8.35.65,17.15,17.15,0,0,1-8.23-2.34L110.6,307c-.54-.46-1.06-1-1.56-1.45-.25-.25-.51-.49-.74-.75l-.65-.84c-.42-.57-.84-1.13-1.22-1.71l.15-.13a55.53,55.53,0,0,0,6.78,4.39,23.37,23.37,0,0,0,7.39,2.49,38.45,38.45,0,0,0,8.09-.05c2.72-.17,5.63-.39,8.26.63Z"/><path class="cls-1" d="M57.95,351.84q1.16-1.23,2.26-2.43l.31-.34q1-1.13,2-2.24l.26-.29q1-1.19,2-2.34l.3-.35q2-2.37,3.75-4.6L69,339q.88-1.14,1.7-2.24v0q.85-1.14,1.63-2.25h0c.72-1,1.41-2,2-3l.84-1.31c1-1.54,1.84-3,2.62-4.43,1.08-2,2-3.82,2.73-5.57.56-1.31,1-2.57,1.44-3.77s.73-2.34,1-3.44q.26-1.09.45-2.12.09-.51.17-1,.15-1,.24-1.93,0-.47.07-.92c.64-9.59-1.68-20.19-1.68-20.19a16.79,16.79,0,0,0,2.84,4.27,17,17,0,0,0,1.44,1.4q.38.33.77.63a17,17,0,0,0,5.22,2.72,16.48,16.48,0,0,0,1.9.48c.33.06.66.12,1,.16a13.38,13.38,0,0,0,3.1-5.05A13.82,13.82,0,0,0,99,289.8a14,14,0,0,0,.25-1.72,14.31,14.31,0,0,0,0-1.76,14.61,14.61,0,0,0-.19-1.78q-.07-.45-.18-.89h0q.67.25,1.35.47l.44.13.74.22.19.06.54.13.86.21.59.12.82.17.62.1.81.13.63.07.8.09.64,0,.78.05.65,0,.77,0h.73l.65,0,.72,0,.64,0,.72-.09.62-.08.73-.13.58-.1.74-.17.54-.13.75-.22.49-.15.79-.29.4-.15q.58-.24,1.14-.52c-1.92-4.83-2.18-10.66-5.72-14.4-2.5-2.64-4.7-4.56-5.63-7a7.41,7.41,0,0,1-.45-3.3,22.71,22.71,0,0,0,1.79,1.89c.34.33.7.65,1.07,1l.36.29.78.62.43.32.79.56.45.3.89.56.37.23q.64.38,1.3.72l.24.12,1.11.54.47.21.91.39.53.21.91.33.51.17,1.07.32.36.1q.71.19,1.42.35l.36.07,1.08.2.5.07.94.11.52,0,.94,0h.47c.44,0,.87,0,1.3,0l.21,0q.56,0,1.11-.11l.35,0c.43-.06.85-.14,1.26-.23-.7-4.76.31-10.07-2.08-14.19a5.11,5.11,0,0,1-.55-2.79,10.18,10.18,0,0,1,.55-2.76q.17-.49.38-1a20.47,20.47,0,0,1,7.94-8.8,29.22,29.22,0,0,1,3-1.69,38,38,0,0,1,9.76-3.13h.12l.27,0h.07l.46-.06h0l.62-.07.14,0,.78-.07H155l.91-.06H156l1.08,0h.23l1.2,0h1.38l.66,0,.43,0,.71,0,.42,0,.88.07.31,0,1.23.13.33,0,1,.12.48.07.86.13.53.09.86.16.55.11.93.2.51.11,1.22.3.25.06,1.49.41.45.14,1.08.33.58.19,1,.34.62.22,1,.38.61.24,1.08.45.53.23c.54.24,1.08.48,1.62.74h0c-.72,0-1.44-.06-2.15,0l-.75,0c-.49,0-1,.06-1.46.1l-.77.09c-.49.07-1,.15-1.44.25l-.65.13a19.34,19.34,0,0,0-2,.57,9.06,9.06,0,0,0,0,2.38c-.35,0-.69,0-1,0l-.68,0-.8.09-.66.09-.79.16-.63.14c-.27.07-.53.15-.79.23l-.6.19c-.26.09-.52.2-.78.3l-.56.23c-.27.12-.52.25-.78.38l-.5.25c-.28.15-.55.32-.82.49l-.4.24q-.59.39-1.15.83t-1,.88a15.5,15.5,0,0,0-2.56,3.08,12.61,12.61,0,0,0,1.46,2.57,13.37,13.37,0,0,0,2,2.19,18,18,0,0,0-5.9,4.69,18.12,18.12,0,0,0-1.26,1.73q-.29.45-.55.92a18.11,18.11,0,0,0-.93,1.93q-.2.5-.38,1a18,18,0,0,0-.58,2.07q-.11.53-.2,1.07c.39.43.82.84,1.25,1.23l.29.26c.43.38.88.74,1.34,1.07l.19.13q.64.45,1.31.84l.31.18q.74.42,1.52.77l.31.13q.71.3,1.44.55l.26.09c.54.18,1.1.32,1.66.45l.38.08c.55.11,1.1.2,1.65.27H164c.58.06,1.17.09,1.77.09h1.06l.76-.05.47,0,.83-.11.4-.06c.41-.07.82-.16,1.23-.26a18.88,18.88,0,0,0,6.57-3,16.93,16.93,0,0,0-1.21,4.1,16,16,0,0,0-.2,2.1,15.15,15.15,0,0,0,.09,2.1,12.61,12.61,0,0,0,1.34.62l.21.09a12.84,12.84,0,0,0,1.34.43l.26.06a13.17,13.17,0,0,0,1.41.26l.18,0a13.56,13.56,0,0,0,1.43.09H182c.35,0,.69,0,1,0l.18,0,.87-.1.37-.07.69-.14.41-.1.64-.18.43-.14.63-.23.42-.17.63-.29.4-.19.68-.37.33-.19c.33-.2.67-.41,1-.64a6,6,0,0,1,.9-.49L192,277a7,7,0,0,1,.68-.23l.42-.09c.22,0,.44-.09.67-.12l.48,0,.7,0h.22l.39,0,.46,0,.72.07.46.05.83.14.4.07c.42.09.84.19,1.27.31a33.42,33.42,0,0,1,8.51,3.92,28.62,28.62,0,0,1,11.32,3.27l0,0a3.57,3.57,0,0,0,.45-.37c.08-.08.15-.17.23-.25l.19-.23c.08-.11.17-.23.25-.36l.12-.21c.08-.15.17-.3.25-.47l.07-.18a12.75,12.75,0,0,0,.87-3.67s0-.09,0-.14q.07-.65.1-1.39h0c.33-7.44-4.88-15.37-7.39-19.18a80.8,80.8,0,0,0-5.44-6c-.52-.65-1.45-1.5-2-2.12-1.07-1.26-2.19-2.19-3.34-3.38a76.54,76.54,0,0,0-13.42-11,75.75,75.75,0,0,0-41.12-12.06q-3.89,0-7.68.39h0a40.29,40.29,0,0,0-10.38,3.51,30.24,30.24,0,0,0-8.79,6.54,18.74,18.74,0,0,0-4.88,9.72A16,16,0,0,0,120,254.24a16.37,16.37,0,0,1-3.09-10.82,19.85,19.85,0,0,1,4.48-10.6,31.17,31.17,0,0,1,7.39-6.63c-.68.19-1.37.37-2,.58q-1.79.56-3.54,1.2a76,76,0,0,0-19.38,10.51l-.12.09a39.78,39.78,0,0,0-4.33,9.19,28.45,28.45,0,0,0-1.28,10.54,26.11,26.11,0,0,0,2.94,10.3,27,27,0,0,0,6.9,8.39,27.27,27.27,0,0,1-11.34-18.53,30.33,30.33,0,0,1,.6-11.28,37.47,37.47,0,0,1,1.36-4.37l-.37.32q-2.71,2.46-5.17,5.17a75.89,75.89,0,0,0-19.79,51.21s0,.05,0,.08a149.23,149.23,0,0,1-6.56,30.92A98.76,98.76,0,0,1,55,354.92c.85-.87,1.66-1.72,2.46-2.56Zm30.54-86h.1a36.85,36.85,0,0,0,.13,5.25c.14,1.74.38,3.48.69,5.2s.77,3.41,1.14,5.11a52.25,52.25,0,0,0,1.3,5.07l-.09,0a16.24,16.24,0,0,1-2.18-4.87,32.33,32.33,0,0,1-1-5.23A42.67,42.67,0,0,1,88.49,265.8Z"/><path class="cls-1" d="M502.06,374.65c-.26-.61-.54-1.23-.84-1.83s-.5-1-.76-1.43h0l0,0a18.28,18.28,0,0,0-2.09-2.76,18,18,0,0,0-30.9,15.8,19,19,0,0,0,10,.54,13.55,13.55,0,0,0,.36,4.58,25.46,25.46,0,0,1,4.65,3.07,22.1,22.1,0,0,0,7-1.62,19.1,19.1,0,0,1-2.41,6.61c.39.57.77,1.14,1.11,1.74.22.38.43.78.63,1.2l.1.05.4,1,.11.24.07.16a14.76,14.76,0,0,0,7.35,7.74A33.87,33.87,0,0,0,499,407l-.27-.77,1-.43A34,34,0,0,0,502.06,374.65Z"/><path class="cls-1" d="M459.48,246.18c-2.17-3-7-7.56-17.11-9.44a33.64,33.64,0,0,0-5.68-.41,50.52,50.52,0,0,0-11.51,1.36l.23,1.72a20.1,20.1,0,0,1,9.87,4.15,19.44,19.44,0,0,1,1.81,1.64,54.4,54.4,0,0,1,22.39,1Z"/><path class="cls-1" d="M490.09,490a32.64,32.64,0,0,0-32.63,31.87,30.6,30.6,0,0,0,13.79-.26,18.88,18.88,0,1,1,27.9,17.62l-.22.11a35.14,35.14,0,0,1-8.53,3.16c3.48-5.58,5.56-15.06.57-23.06-3.11,8.48-10.58,12.92-15.6,15l-1,.42L468.7,537l-.06,0,4-4.53c.27-.31.53-.62.78-.94a19.3,19.3,0,0,0,4.06-9.1,26.11,26.11,0,0,1-6.21,2.25,33.16,33.16,0,0,1-13.76.23,20.88,20.88,0,0,1-6-2.12l0,0-.16-.12-.32-.17,0-.1c-7.22-5.38-11.76-15-13.48-28.56a95.45,95.45,0,0,1-.7-13.62,51.11,51.11,0,0,0,34.43,76.66,51.35,51.35,0,0,0,9.31.86c1.09,0,2.18,0,3.25-.11a50.76,50.76,0,0,0,27-9.79A32.65,32.65,0,0,0,490.09,490Z"/><path class="cls-1" d="M439.85,479.61c-.21,8.47.49,26.56,9.26,36.9a34.23,34.23,0,0,1,6-28.43A10.4,10.4,0,0,0,460,495a25,25,0,0,0,9.87-10.13,3.89,3.89,0,0,1-1.07-.94c-2.51-3.27-4.11-11.35-3.64-18.82C453,476.2,444.92,479.28,439.85,479.61Z"/><path class="cls-1" d="M538.62,453.28c-2.59-6.43-7.75-21.81-3.81-34.73,4.58-15,13.53-34.35-3.26-60.23a21.76,21.76,0,0,1-11.63-5.83,39.47,39.47,0,0,1-8.37,15.1c-.3.34-.59.64-.87.93,5.85,12.86,12.24,31-8.21,39.42,2.49,7,12.29,6.59,12.29,6.59s-21.46,4.4-28-11.31l-.08-.17c0-.1-.08-.18-.12-.28h0a20.2,20.2,0,0,0-.93-1.87,21.91,21.91,0,0,0-16.05-10.78c-3.53,3.9-4.45,9.74-2.16,15.4-.61-.27-1.23-.53-1.88-.77a37.56,37.56,0,0,0-9.14-2.15l-.87-.08c-.66-.06-1.26-.1-1.83-.13l-1.38,0h-.45c-.82,0-1.64,0-2.45.09l-.58,0c-.87.07-1.74.17-2.6.3l-.31.05c-.89.14-1.78.31-2.65.51h0q-1.42.33-2.8.77l-.19.06a33.26,33.26,0,0,0-4.22,1.67c-.86,7.75,4.68,15.52,14.89,19.37l.89.3a19.56,19.56,0,0,0-2.39,3c2.24,6.11,8.27,10.42,15.66,10.44h.26c-4.38.59-9.45.66-14.58,1.11l.06.09a18,18,0,0,0-16.15,15.51,19.06,19.06,0,0,0,6.19,4.34c-.27.17-.54.34-.8.52a16,16,0,0,0-6.49,8.38,10,10,0,0,0,0,5.74.53.53,0,0,0,.18.56,8.92,8.92,0,0,0,3.28,1.28,10.57,10.57,0,0,0,1.93.19h.3l.77,0c10.07-.85,23.36-13.36,31-21.48-4.84,6.62-3,22.9.15,27,.12.1.26.18.39.28a13.06,13.06,0,0,0,3.16,1.67,20.12,20.12,0,0,0,7.31,1.11,39,39,0,0,1-2.79-9.74c0-.32-.08-.64-.11-1a17.4,17.4,0,0,1,2.79-11.86,18.59,18.59,0,0,1,2.61-3c3-2.78,7.22-5.18,13.07-7.1a9.69,9.69,0,0,0,1.16-.44,52.8,52.8,0,0,1-2.44,9.34,18,18,0,0,0,.28,16.1,19,19,0,0,0,11.2-1.18,18,18,0,0,0,7.1,15.39,19,19,0,0,0,14.37-18.92,13.36,13.36,0,0,0,8,2.69A21.91,21.91,0,0,0,540,456.34,19.71,19.71,0,0,0,538.62,453.28Zm-63.78-50a9.9,9.9,0,0,1,5,2.86c1.35,1.42,2.36,3.05,3.5,4.48a28.34,28.34,0,0,0,3.81,3.72c1.35,1.16,2.86,2.12,4.41,3.33l-.07.19a12.4,12.4,0,0,1-5.53-1.91,13.64,13.64,0,0,1-3.93-4.4c-1-1.63-1.85-3.31-2.95-4.75a10.32,10.32,0,0,0-1.87-2c-.37-.26-.76-.51-1.15-.76l-1.25-.61ZM461,429.08l-.07-.19a23.16,23.16,0,0,1,8.43-1.08c2.83.05,5.64.21,8.42.15a63.54,63.54,0,0,0,8.19-.86,59.92,59.92,0,0,0,8.08-1.9l.09.18a20.17,20.17,0,0,1-7.79,3.68,29.3,29.3,0,0,1-8.61.49c-2.85-.14-5.66-.5-8.44-.75A23.77,23.77,0,0,0,461,429.08Zm48.79,13.69a31.26,31.26,0,0,0-.65,8.37c0,2.83.31,5.83-.55,8.75a14.66,14.66,0,0,1-4.75,7.41l-.15-.13a25.67,25.67,0,0,0,3-7.74,58.67,58.67,0,0,0,.9-8.31,32.48,32.48,0,0,1,1.28-8.62,19.82,19.82,0,0,1,4.51-7.38l.15.13A20,20,0,0,0,509.76,442.77Zm8.58,4c.25,4.92.74,9.85,1.21,14.78.21,2.47.43,4.94.55,7.43.07,1.24.07,2.49,0,3.74a8.77,8.77,0,0,1-.77,3.67l-.17-.1a8.56,8.56,0,0,0,.55-3.57c0-1.23-.1-2.46-.24-3.69-.25-2.46-.59-4.9-.94-7.36-.67-4.91-1.36-9.82-1.81-14.78a69.56,69.56,0,0,1-.19-15,32.48,32.48,0,0,1,1.78-7.38c.1-.26.22-.51.33-.77q-1,1-2,1.86c-6.71,5.82-14.6,9.88-22.48,13.57a188.08,188.08,0,0,1-24.44,9.18,137.16,137.16,0,0,1-25.49,5.26l0-.3a136.32,136.32,0,0,0,25.07-6.39A186.15,186.15,0,0,0,493.11,437a127,127,0,0,0,11.17-6.36c1.82-1.13,3.57-2.33,5.32-3.55l2.59-1.86,2.52-1.94c1-.76,1.88-1.54,2.79-2.34l-.76.28a20.45,20.45,0,0,1-2.2.7,42.45,42.45,0,0,1-9.1,1.33,88.09,88.09,0,0,1-18.16-1.49c-6-1-11.9-2.27-17.75-3.76s-11.64-3.23-17.35-5.19l.06-.19c5.78,1.7,11.64,3.14,17.52,4.41s11.8,2.37,17.75,3.15a140.23,140.23,0,0,0,17.88,1.07,55.7,55.7,0,0,0,8.85-.69,19.32,19.32,0,0,0,2.17-.45l1.08-.27,1-.35c.3-.09.6-.2.89-.31a44.63,44.63,0,0,0,4.29-4.76,27.28,27.28,0,0,0,5.39-11.37l.3,0a23.79,23.79,0,0,1-4,12.55,38.58,38.58,0,0,1-4.64,5.95,34.31,34.31,0,0,0-2.27,10.52c-.09,1.21-.18,2.42-.21,3.64s-.11,2.44-.11,3.66C518.16,441.87,518.21,444.33,518.34,446.79ZM533.82,463l-.2,0a15.14,15.14,0,0,0-1.8-8,72.66,72.66,0,0,0-4.3-7.22,31.61,31.61,0,0,1-4-7.65,14.48,14.48,0,0,1-.18-8.68l.2,0a25.59,25.59,0,0,0,1.87,8,76.42,76.42,0,0,0,3.51,7.51,73.58,73.58,0,0,1,3.84,7.64A15.27,15.27,0,0,1,533.82,463Z"/><path class="cls-1" d="M507.93,367c.48-.47.94-1,1.39-1.46a36.62,36.62,0,0,0,7.8-14.22,37.51,37.51,0,0,0,1.22-5.93,19,19,0,0,0,18.4,10.13,155.79,155.79,0,0,1-19.26-23.72c-1-1.54-1.89-3.08-2.72-4.59a53.36,53.36,0,0,1-5.75-15h0a42.66,42.66,0,0,0-1.7,5.34,44.09,44.09,0,0,0-1.35,11.1c0,3.78.55,7.58.94,11.41a44.53,44.53,0,0,1,.23,5.8,14.75,14.75,0,0,1-1.22,5.67l-.18-.08a14.35,14.35,0,0,0,.8-5.59,43.78,43.78,0,0,0-.62-5.67c-.58-3.78-1.3-7.58-1.54-11.47a31.47,31.47,0,0,1,1-11.7,26.48,26.48,0,0,1,3.27-6.87c-.15-1-.27-2-.34-3a69.41,69.41,0,0,1,.23-10.84,19.8,19.8,0,0,1-6.75,2.79,31.87,31.87,0,0,1-4.65,9.82,35.82,35.82,0,0,1-6.53,6.9c-2.43,2-5,3.78-7.39,5.62a68,68,0,0,0-6.93,5.84,35.08,35.08,0,0,0-5.52,7.07,38.14,38.14,0,0,0-3.64,8.28,64.21,64.21,0,0,0-1.89,9l-.3,0a57.92,57.92,0,0,1,1.3-9.17,39.37,39.37,0,0,1,3.22-8.77,36.82,36.82,0,0,1,5.42-7.69,70.09,70.09,0,0,1,6.85-6.37c4.78-3.93,9.35-7.85,13-12.44a39.5,39.5,0,0,0,4.72-7.5l.07-.15-.8.1-1-1.06A16.54,16.54,0,0,1,493,287.77c-.8.18-1.6.33-2.4.46-4.26,4.09-10.32,7-16.93,4.48a13.57,13.57,0,0,0-15.06-.7,14.34,14.34,0,0,0,1.59,8.72A37.2,37.2,0,0,0,444.9,304c-.5,5.5,3.53,10.86,10.9,13.95-4.17,3.69-6,8.21-5,12.44a33.09,33.09,0,0,0,5.82,1.24,35.45,35.45,0,0,0-7.57,2.76c-8.62,4.36-12.67,11.22-11,17.23a35.8,35.8,0,0,0,11.64,1,55,55,0,0,0-12.81,34c0,.28,0,.56,0,.85s0,.53,0,.8,0,.65,0,1a33.84,33.84,0,0,0,2.68,12.07A41.53,41.53,0,0,1,452,399.34c1.25,0,2.49.07,3.72.18a19,19,0,0,1-3.39-16,39.7,39.7,0,0,1,7.46-19.13,10.55,10.55,0,0,0,4.85,3.3c4.26-3.86,7.56-9.41,9.69-15.5a50.7,50.7,0,0,0,2.12-8.19,36.9,36.9,0,0,1,3.1-9.59c-.15.82-.28,1.65-.37,2.48a22.68,22.68,0,0,0,1.87,12.68,11.35,11.35,0,0,0,6.59,5.94,34.78,34.78,0,0,0,5.93-7.15c1,9.28,6.1,16,12.89,18.26C507,366.79,507.45,366.92,507.93,367Zm-37.35-36.16-.13,0,.22,0Zm-12.31-21.14-.07-.19c2.63-1,5.54-.8,8.26-.63a38.45,38.45,0,0,0,8.09.05,23.37,23.37,0,0,0,7.39-2.49,55.53,55.53,0,0,0,6.78-4.39l.15.13c-.38.59-.8,1.15-1.22,1.71l-.65.84c-.23.27-.5.5-.74.75-.51.5-1,1-1.56,1.45l-1.76,1.24a17.15,17.15,0,0,1-8.23,2.34,39.67,39.67,0,0,1-8.35-.65C463.65,309.47,460.93,309,458.27,309.73Zm40.25,9.78c-1.39,2.61-3.18,5-4.81,7.41a69.93,69.93,0,0,0-4.55,7.45,16.77,16.77,0,0,0-2.11,8.32l-.2,0a17.37,17.37,0,0,1,1.39-8.75,71,71,0,0,1,4.1-7.89c1.49-2.54,2.83-5.16,4.45-7.59s3.23-4.88,5.1-7.2l.18.09A46.85,46.85,0,0,1,498.52,319.51Z"/><path class="cls-1" d="M349.61,268.51a51.83,51.83,0,0,0,1.22,10.84c.91,3.42,2.35,6.81,5.09,9.09a14.14,14.14,0,0,0,10,3,17.67,17.67,0,0,0,5.32-1.07,13.4,13.4,0,0,0,4.64-2.76c-3-.85-5.37-3.71-5.67-10.5-.46-10.45,8.36-21.17,9.11-23s.5-5.7,2.76-8l.29-.28.25-.23c.05,0,.09-.1.14-.14.36-.36.71-.72,1-1.1,4.55-5.18,5.64-11.32,3.47-16.06a20.24,20.24,0,0,0-7.84.73,21.75,21.75,0,0,0,4.92-5.33c3.79-5.84,3.93-12.4,1-17.19a20.78,20.78,0,0,0-17.6,9.44c-8.19,12.07-13.72,18.16-18.47,53.64.06-.39.13-.79.2-1.18Z"/><path class="cls-1" d="M386,251.87a80.8,80.8,0,0,0-5.44,6c-2.5,3.81-7.71,11.74-7.39,19.18h0q0,.74.1,1.39c0,.05,0,.09,0,.14a12.75,12.75,0,0,0,.87,3.67l.07.18c.08.17.16.32.25.47l.12.21c.08.13.16.25.25.36l.19.23c.08.09.15.18.23.25a3.57,3.57,0,0,0,.45.37l0,0a28.62,28.62,0,0,1,11.32-3.27,33.42,33.42,0,0,1,8.51-3.92c.43-.12.85-.22,1.27-.31l.4-.07.83-.14.46-.05.72-.07.46,0,.39,0h.22l.7,0,.48,0c.23,0,.45.08.67.12l.42.09a7,7,0,0,1,.68.23l.33.12a6,6,0,0,1,.9.49c.33.23.66.44,1,.64l.33.19.68.37.4.19.63.29.42.17.63.23.43.14.64.18.41.1.69.14.37.07.87.1.18,0c.35,0,.7,0,1,0h.14a13.56,13.56,0,0,0,1.43-.09l.18,0a13.17,13.17,0,0,0,1.41-.26l.26-.06a12.84,12.84,0,0,0,1.34-.43l.21-.09a12.61,12.61,0,0,0,1.34-.62,15.15,15.15,0,0,0,.09-2.1,16,16,0,0,0-.2-2.1,16.93,16.93,0,0,0-1.21-4.1,18.88,18.88,0,0,0,6.57,3c.41.1.82.18,1.23.26l.4.06.83.11.47,0,.76.05h1.06c.59,0,1.18,0,1.77-.09h.11c.56-.06,1.11-.15,1.65-.27l.38-.08c.56-.13,1.11-.27,1.66-.45l.26-.09q.73-.25,1.44-.55l.31-.13q.78-.35,1.52-.77l.31-.18q.67-.4,1.31-.84l.19-.13c.46-.33.91-.69,1.34-1.07l.29-.26c.43-.39.85-.8,1.25-1.23q-.08-.54-.2-1.07a18,18,0,0,0-.58-2.07q-.18-.51-.38-1a18.11,18.11,0,0,0-.93-1.93q-.26-.47-.55-.92a18.07,18.07,0,0,0-2.72-3.3,17.91,17.91,0,0,0-4.44-3.12,13.37,13.37,0,0,0,2-2.19,12.61,12.61,0,0,0,1.46-2.57,15.5,15.5,0,0,0-2.56-3.08q-.49-.46-1-.88t-1.15-.83l-.4-.24c-.27-.17-.54-.34-.82-.49l-.5-.25c-.26-.13-.52-.26-.78-.38l-.56-.23c-.26-.1-.52-.21-.78-.3l-.6-.19c-.26-.08-.52-.16-.79-.23l-.63-.14-.79-.16-.66-.09-.8-.09-.68,0c-.34,0-.69,0-1,0a9.06,9.06,0,0,0,0-2.38,19.34,19.34,0,0,0-2-.57l-.65-.13c-.47-.1-1-.18-1.44-.25l-.77-.09c-.48,0-1-.08-1.46-.1l-.75,0c-.71,0-1.43,0-2.15,0h0c.54-.26,1.08-.51,1.62-.74l.53-.23,1.08-.45.61-.24,1-.38.62-.22,1-.34.58-.19,1.08-.33.45-.14,1.49-.41.25-.06,1.22-.3.51-.11.93-.2.55-.11.86-.16.53-.09.86-.13.48-.07,1-.12.33,0,1.23-.13.31,0,.88-.07.42,0,.71,0,.43,0,.66,0h1.38l1.2,0h.23l1.08,0h.08l.91.06h.15l.78.07.14,0,.62.07h0l.46.06h.07l.27,0h.12a38,38,0,0,1,9.76,3.13,29.22,29.22,0,0,1,3,1.69,20.47,20.47,0,0,1,7.94,8.8q.22.51.38,1a10.18,10.18,0,0,1,.55,2.76A5.11,5.11,0,0,1,464,254c-2.39,4.12-1.38,9.43-2.08,14.19.41.1.84.17,1.26.23l.35,0q.55.07,1.11.11l.21,0c.43,0,.86,0,1.3,0h.47l.94,0,.52,0,.94-.11.5-.07,1.08-.2L471,268q.71-.15,1.42-.35l.36-.1,1.07-.32.51-.17.91-.33.53-.21.91-.39.47-.21,1.11-.54.24-.12q.66-.35,1.3-.72l.37-.23.89-.56.45-.3.79-.56.43-.32.78-.62.36-.29c.37-.31.73-.63,1.07-1a22.71,22.71,0,0,0,1.79-1.89,7.41,7.41,0,0,1-.45,3.3c-.93,2.46-3.13,4.37-5.63,7-3.54,3.74-3.8,9.57-5.72,14.4q.56.28,1.14.52l.4.15.79.29.49.15.75.22.54.13.74.17.58.1.73.13.62.08.72.09.64,0,.72,0,.65,0h.73l.77,0,.65,0,.78-.05.64,0,.8-.09.63-.07.81-.13.62-.1.82-.17.59-.12.86-.21.54-.13.19-.06.74-.22.44-.13q.68-.22,1.35-.47h0q-.1.45-.18.89a14.61,14.61,0,0,0-.19,1.78,14.31,14.31,0,0,0,0,1.76,14,14,0,0,0,.25,1.72,13.82,13.82,0,0,0,.45,1.66,13.38,13.38,0,0,0,3.1,5.05c.33,0,.66-.09,1-.16a16.48,16.48,0,0,0,1.9-.48,17,17,0,0,0,5.22-2.72q.4-.3.77-.63a17,17,0,0,0,1.44-1.4,16.79,16.79,0,0,0,2.84-4.27s-2.32,10.6-1.68,20.19q0,.45.07.92.09.93.24,1.93.08.5.17,1,.19,1,.45,2.12c.26,1.09.59,2.24,1,3.44s.88,2.45,1.44,3.77c.75,1.75,1.65,3.6,2.73,5.57.78,1.42,1.65,2.89,2.62,4.43l.84,1.31c.63,1,1.32,2,2,3h0q.78,1.1,1.63,2.25v0q.82,1.1,1.7,2.24l.17.22q1.74,2.23,3.75,4.6l.3.35q1,1.15,2,2.34l.26.29q1,1.1,2,2.24l.31.34q1.09,1.2,2.26,2.43l.49.52c.8.84,1.62,1.69,2.46,2.56a98.76,98.76,0,0,1-11.67-24.42,149.23,149.23,0,0,1-6.56-30.92s0-.05,0-.08a75.89,75.89,0,0,0-19.79-51.21q-2.46-2.71-5.17-5.17l-.37-.32a37.47,37.47,0,0,1,1.36,4.37,30.33,30.33,0,0,1,.6,11.28A27.27,27.27,0,0,1,487.35,277a27,27,0,0,0,6.9-8.39,26.11,26.11,0,0,0,2.94-10.3,28.45,28.45,0,0,0-1.28-10.54,39.78,39.78,0,0,0-4.33-9.19l-.12-.09A76,76,0,0,0,472.08,228q-1.75-.64-3.54-1.2c-.67-.21-1.36-.39-2-.58a31.17,31.17,0,0,1,7.39,6.63,19.85,19.85,0,0,1,4.48,10.6,16.37,16.37,0,0,1-3.09,10.82,16,16,0,0,0,2.34-10.74,18.74,18.74,0,0,0-4.88-9.72,30.24,30.24,0,0,0-8.79-6.54,40.29,40.29,0,0,0-10.38-3.51h0q-3.79-.38-7.68-.39a75.75,75.75,0,0,0-41.12,12.06,76.54,76.54,0,0,0-13.42,11c-1.15,1.18-2.27,2.12-3.34,3.38C387.47,250.37,386.55,251.23,386,251.87Zm118.7,29.5c.37-1.7.82-3.39,1.14-5.11s.55-3.45.69-5.2a36.85,36.85,0,0,0,.13-5.25h.1a42.67,42.67,0,0,1-.13,10.58,32.33,32.33,0,0,1-1,5.23,16.24,16.24,0,0,1-2.18,4.87l-.09,0A52.25,52.25,0,0,0,504.73,281.37Z"/><path class="cls-1" d="M223.85,344.14c-.85-.61-1.33-1-1.35-1h0a18.71,18.71,0,0,0-2.3-1.3,19.74,19.74,0,0,0-19.91,1.74,15.94,15.94,0,0,0,3.82,10l0,.05-.62.27L201,355.29a19.94,19.94,0,0,0-5,4.71h63.73c.07-1.11.18-2.23.35-3.36C246,359.17,228.74,347.67,223.85,344.14Z"/><path class="cls-1" d="M240.19,270.57l-1.8-5.05,7.45,2.78c-4.7-34.25-10.2-40.36-18.28-52.27a20.78,20.78,0,0,0-17.6-9.44c-3,4.79-2.82,11.35,1,17.19a21.75,21.75,0,0,0,4.92,5.33,20.24,20.24,0,0,0-7.84-.73c-2.18,4.74-1.08,10.88,3.47,16.06.34.38.69.75,1,1.1,0,0,.09.1.14.14l.25.23.29.28c2.27,2.3,2,6.21,2.76,8s9.57,12.51,9.11,23c-.3,6.79-2.7,9.65-5.67,10.5a13.4,13.4,0,0,0,4.64,2.76,17.67,17.67,0,0,0,5.32,1.07,14.14,14.14,0,0,0,10-3,15.59,15.59,0,0,0,4.57-7.35l-3.75-10.52Z"/><path class="cls-1" d="M240.1,289.37a15.12,15.12,0,0,1-10.79,2.86,18.27,18.27,0,0,1-5.43-1.4,13.67,13.67,0,0,1-4.61-3.1l.05-.05a24.62,24.62,0,0,0-15.5-3.5,13.49,13.49,0,0,0-.76,7.84A22.18,22.18,0,0,0,190,295.08c-.28,6.15,3.09,12.32,9.4,16.09a23.91,23.91,0,0,0-9,4.62c1,5.38,6,9.94,13.42,11.55a28.19,28.19,0,0,0,19.1-2.78h0a23.74,23.74,0,0,0,2.09-1.29s17.08-10.23,29.79-11.7l-10.07-28.22A15,15,0,0,1,240.1,289.37Z"/><path class="cls-1" d="M271.56,331.89a22.81,22.81,0,0,0-10.15-6,3,3,0,0,1-2.19-1.92l-3.38-9.46c-10.42.93-25.64,9.12-29.17,11.3l-.68.44-.35.23q-.55.34-1.13.67l-2,1a31.67,31.67,0,0,1-13,2.83,29.91,29.91,0,0,1-6.3-.66c-.62-.13-1.22-.29-1.81-.46l-.51-.16q-.65-.2-1.28-.43l-.48-.18q-.76-.3-1.48-.63l-.13-.06q-.84-.4-1.62-.86l-.08-.05c-.48-.28-.95-.59-1.39-.9l-.17-.12a18.36,18.36,0,0,1-3.73-3.52c-4.76-7.11-3.9-16.49-3.9-16.49a23.2,23.2,0,0,0-6.53-18.84,11.48,11.48,0,0,0-5.61,3.9,21.33,21.33,0,0,0-14.26-8.09c-4.38,4.91-5.75,12.29-2.91,19.45a22.33,22.33,0,0,0,2.14,4.07h0l0,0c.42.63.86,1.23,1.33,1.81,1.37,2.19,2.62,5.57-2.57,5.85h-.07c-1.34-.14-2.68-.27-4-.36s-2.55-.16-3.83-.2a21.61,21.61,0,0,1-5.59,4.76A14.67,14.67,0,0,1,147.77,331l-.12.52.3.15a28.48,28.48,0,0,1,8.57,6.44,88.81,88.81,0,0,1,22,5.37,14.79,14.79,0,0,0-7.77,7.82A12.6,12.6,0,0,0,183,356.67c5.18-.59,7.69-6,12.39-4.54q1.28.83,2.52,1.71c.47-.37.95-.72,1.44-1.05l.09-.06.09-.05.26-.15a18.78,18.78,0,0,1-2.45-8.18,65.79,65.79,0,0,1-7.88,4.2,19.94,19.94,0,0,1-10,1.78,19.45,19.45,0,0,0,9.55-2.68,76.89,76.89,0,0,0,8.25-5.57h0l1.25-.92a22.4,22.4,0,0,1,13.19-4.23,22.88,22.88,0,0,1,9.78,2.2,21.72,21.72,0,0,1,2.61,1.47l0,0,.11.07.1.08s.49.38,1.26.93c4,2.89,18,12.31,30.31,12.31a19.77,19.77,0,0,0,4.76-.56,48.89,48.89,0,0,1,2.53-8.1A46.76,46.76,0,0,1,271.56,331.89Z"/><path class="cls-1" d="M359.66,360h39.62a19.94,19.94,0,0,0-5-4.71l-2.55-1.44-.62-.27,0-.05a15.94,15.94,0,0,0,3.82-10,19.74,19.74,0,0,0-19.91-1.74,18.71,18.71,0,0,0-2.3,1.3h0s-.5.39-1.35,1a89.82,89.82,0,0,1-12.08,7.29C359.74,354.92,360,358.54,359.66,360Z"/><path class="cls-1" d="M337.61,306.89l-.06.12c-.47,1-.94,1.85-1.41,2.68-.33.65-.63,1.26-.92,1.86,12.57-1.75,35.05,11.69,35.05,11.72a23.74,23.74,0,0,0,2.09,1.29h0a28.19,28.19,0,0,0,19.1,2.78c7.47-1.61,12.39-6.17,13.42-11.55a23.91,23.91,0,0,0-9-4.62c6.3-3.77,9.67-9.94,9.4-16.09A22.18,22.18,0,0,0,392.21,292a13.49,13.49,0,0,0-.76-7.84,24.62,24.62,0,0,0-15.5,3.5l.05.05a13.67,13.67,0,0,1-4.61,3.1,18.27,18.27,0,0,1-5.43,1.4,15.12,15.12,0,0,1-10.79-2.86,16.17,16.17,0,0,1-5.81-9.69,29.22,29.22,0,0,1-.32-8.41c-.2,1.55-.4,3.13-.6,4.8a93.73,93.73,0,0,0-.84,15.37,19.91,19.91,0,0,1-5.19-1.45,50.3,50.3,0,0,1-4.64,16.53A3,3,0,0,1,337.61,306.89Z"/><path class="cls-1" d="M450.57,318.8A21.61,21.61,0,0,1,445,314c-1.28,0-2.56.11-3.83.2s-2.69.22-4,.36h-.07c-5.19-.28-3.94-3.66-2.57-5.85.47-.58.91-1.18,1.33-1.81l0,0h0a22.33,22.33,0,0,0,2.14-4.07c2.84-7.15,1.48-14.53-2.91-19.45a21.33,21.33,0,0,0-14.26,8.09,11.48,11.48,0,0,0-5.61-3.9,23.2,23.2,0,0,0-6.53,18.84s.86,9.38-3.9,16.49a18.36,18.36,0,0,1-3.73,3.52l-.17.12c-.45.31-.91.62-1.39.9l-.08.05q-.78.46-1.62.86l-.13.06q-.72.34-1.48.63l-.48.18q-.63.23-1.28.43l-.51.16c-.59.17-1.19.33-1.81.46a29.91,29.91,0,0,1-6.3.66,31.67,31.67,0,0,1-13-2.83l-2-1q-.58-.33-1.13-.67l-.35-.23-.68-.44c-3.74-2.31-20.63-11.39-31-11.39a13.86,13.86,0,0,0-2.39.19c-.53.09-1,.16-1.51.22a23.72,23.72,0,0,0-2.1,6.28c.91,1.64,6.89,5.23,10.14,7.18a60.77,60.77,0,0,1,8.83,5.93,19.42,19.42,0,0,1,7.52,9.39,35.34,35.34,0,0,1,.86,4.72,87.82,87.82,0,0,0,10.72-6.57c.77-.55,1.21-.9,1.26-.93l.1-.08.11-.07,0,0a21.72,21.72,0,0,1,2.61-1.47,22.88,22.88,0,0,1,9.78-2.2,22.4,22.4,0,0,1,13.19,4.23l1.25.92h0a76.89,76.89,0,0,0,8.25,5.57,19.45,19.45,0,0,0,9.55,2.68,19.94,19.94,0,0,1-10-1.78,65.79,65.79,0,0,1-7.88-4.2,18.78,18.78,0,0,1-2.45,8.18l.26.15.09.05.09.06c.5.33,1,.69,1.44,1.05q1.25-.88,2.52-1.71c4.7-1.43,7.21,3.94,12.39,4.54a12.6,12.6,0,0,0,12.26-5.35,14.79,14.79,0,0,0-7.77-7.82,88.81,88.81,0,0,1,22-5.37,28.48,28.48,0,0,1,8.57-6.44l.3-.15-.12-.52A14.67,14.67,0,0,1,450.57,318.8Z"/><path class="cls-1" d="M356.2,355.19s-.14-.83-.49-2.06c-.22-.8-.54-1.79-1-2.85a25.47,25.47,0,0,0-1.48-3.15q-.24-.43-.49-.84l0,0c-.32-.51-.64-1-1-1.43l0,0,0,0c-.29-.37-.59-.71-.89-1l-.34-.36c-.25-.25-.5-.48-.75-.7s-.37-.32-.56-.47h0c-.22-.17-.43-.32-.66-.47s-.43-.28-.65-.4l-.28-.15h0a10.64,10.64,0,0,0-1.06-.49h0c-.25-.1-.5-.19-.75-.27h0l-.58-.16h0a10.92,10.92,0,0,0-1.1-.22h0l-.19,0a11.85,11.85,0,0,0-1.45-.09c-.42,0-.86,0-1.29.08s-.7.08-1.05.14h0a26.8,26.8,0,0,0-8.77,3.48l-.09.06c-.38.23-.78.48-1.17.73h0l-.34.23c-.47.31-.94.64-1.4,1l-.21.16c-.52.38-1,.76-1.56,1.16l-.5.4c-1.47,1.18-2.89,2.44-4.25,3.75l-.45.44c-.67.65-1.32,1.32-2,2h0l-.09.09c-.38.4-.75.81-1.11,1.21-.53.59-1,1.18-1.54,1.77l0,0-.81,1,0,0-.82,1-.06.07-.24.28-.55.66-.34.41,20.43-.1,22.49-.11c0-.12.1-1,.11-1.16Z"/><path class="cls-1" d="M305.84,300.65a4.14,4.14,0,0,1-.17-1.3c0-.05,0-.1,0-.15a4.09,4.09,0,0,1,.06-.51,4,4,0,0,1,.19-.67,4.11,4.11,0,0,1,0-8.12,3.85,3.85,0,0,1-.17-.59c0-.09,0-.17,0-.26s0-.17,0-.26a4.13,4.13,0,0,1,0-.75l-62-16.47,17.18,48.13c16.61-11.24,36.55-17,44.95-19Zm-46.92-14.14a2.13,2.13,0,1,1,1.18-2.77A2.13,2.13,0,0,1,258.92,286.51ZM263,298.05a2.13,2.13,0,1,1,1.18-2.77A2.13,2.13,0,0,1,263,298.05Zm4.21,11.43a2.13,2.13,0,1,1,1.18-2.77A2.13,2.13,0,0,1,267.21,309.49Zm6.33-18.91a2.13,2.13,0,1,1,3,0A2.13,2.13,0,0,1,273.54,290.57Zm5.75,12.9a2.13,2.13,0,1,1,1.18-2.77A2.13,2.13,0,0,1,279.29,303.47Zm14-5.42a2.13,2.13,0,1,1,1.18-2.77A2.13,2.13,0,0,1,293.29,298.05Z"/><path class="cls-1" d="M306.12,286.55h0a4.07,4.07,0,0,1,.38-.61l0-.05a4.06,4.06,0,0,1,.45-.48l.09-.09a4.09,4.09,0,0,1,2.7-1h0a4.14,4.14,0,0,1,3.19,1.52,4.14,4.14,0,0,1,3.19-1.52h0a4.11,4.11,0,0,1,3.84,5.59,4.11,4.11,0,0,1,0,8.12,4.11,4.11,0,0,1-7,4.07,4.16,4.16,0,0,1-.68.65h0a4.15,4.15,0,0,1-.8.48h0a67.59,67.59,0,0,0,.66,15.45l3.37-1a.35.35,0,0,1,.44.23l.86,2.86a.35.35,0,0,1-.23.44l-3.45,1-.27.08c1.73,7.6,5.27,15.79,12.3,21.82l.18-.14.72-.54.9-.65.9-.62,1.13-.74.7-.43,1-.59.7-.39q.67-.36,1.34-.68l.65-.3,1.13-.48.51-.21h0l.65-.22h0c.56-.2,1.11-.37,1.67-.52l.58-.15h0a18.79,18.79,0,0,1,4.48-.59A15.13,15.13,0,0,1,344,337l.23,0h0a13.48,13.48,0,0,1,4.69,1.45l0,0q.48.26.94.55l.08,0c.31.2.61.41.9.63h0a15.86,15.86,0,0,1,1.69,1.49h0l.1.1h0q.33.34.65.7h0l.08.1q.38.44.73.89h0l.34.47h0q.38.52.72,1.06l0,0,.06.1a16.52,16.52,0,0,0-6.59-8.12h0c-4.37-4.23-20-11-20.11-15.21-.08-2.87,3-9.33,4.88-13.07.49-.86.95-1.74,1.39-2.64l.1-.18h0a47.86,47.86,0,0,0,4.74-20.85c0-25.54-19.74-46.24-44.09-46.24-.59,0-1.18,0-1.77,0l-.6,0-1.16.07-.7.07-1,.11-.74.1-1,.15-.75.13-.93.18-.76.17-.9.22-.76.2-.88.25-.76.23-.85.28-.77.26-.81.31-.77.3-.77.33-.78.34-.55.26q-.93.44-1.84.92l-.53.28-.9.51-.54.31-.88.55-.52.33-.87.58-.5.34-.86.63-.46.35-.86.68-.41.34-.87.73-.35.31-.89.81-.26.25c-.32.3-.64.61-.95.92l-.09.1a46,46,0,0,0-5.93,7.39l-.07.11q-.4.62-.77,1.25l-.1.17q-.37.62-.72,1.26l-.1.19q-.35.64-.67,1.29l-.09.18q-.33.66-.64,1.34l-.06.13q-.32.71-.63,1.43h0l50.62,21.21A4.12,4.12,0,0,1,306.12,286.55Z"/><path class="cls-1" d="M311.62,287.37a2.11,2.11,0,0,0-.32-.41l-.11-.1a2.1,2.1,0,0,0-.3-.22l-.12-.07a2.13,2.13,0,0,0-.45-.18h0a2.13,2.13,0,0,0-.46-.06h-.15a2.1,2.1,0,0,0-.36,0l-.15,0a2,2,0,0,0-.84.47h0l-.06.06h0a2.1,2.1,0,0,0-.24.28h0l0,0h0a2.11,2.11,0,0,0-.2.37h0a2.07,2.07,0,0,0,.43,2.29l.11.1a2.1,2.1,0,0,0,.3.22l.12.07a2.13,2.13,0,0,0,.45.18h0a2.13,2.13,0,0,0,.46.06h.15a2.1,2.1,0,0,0,.36,0l.14,0a2.12,2.12,0,0,0,1.25-3.1Z"/><path class="cls-1" d="M307.68,299.76h0a2.12,2.12,0,1,0,4.13-.89h0l0-.09h0a2.11,2.11,0,0,0-.15-.34h0l-.06-.1a2.09,2.09,0,0,0-.23-.3h0l-.1-.11a1.95,1.95,0,0,0-.87-.49l-.15,0a2.1,2.1,0,0,0-.35,0h-.15a2.13,2.13,0,0,0-.46.06h0a2.13,2.13,0,0,0-.45.18l-.12.07a2.1,2.1,0,0,0-.3.22l-.11.1a2,2,0,0,0-.5.83h0v.05a2.1,2.1,0,0,0-.08.42v0h0a2.11,2.11,0,0,0,0,.41Z"/><circle class="cls-1" cx="319.34" cy="293.95" r="2.13"/><circle class="cls-1" cx="306.59" cy="293.95" r="2.13"/><path class="cls-1" d="M316.15,297.35a2.13,2.13,0,1,0,1.84,1.06A2.12,2.12,0,0,0,316.15,297.35Z"/><path class="cls-1" d="M317.22,286.59a2.13,2.13,0,1,0,.78,2.9A2.12,2.12,0,0,0,317.22,286.59Z"/><path class="cls-1" d="M309.12,294a3.84,3.84,0,1,0,3.84-3.84A3.85,3.85,0,0,0,309.12,294Zm5.69,0a1.84,1.84,0,1,1-1.84-1.84A1.84,1.84,0,0,1,314.81,294Z"/><path class="cls-1" d="M349.88,149.32c.26-.13.26-.17,0-.1l0-.08-.09-.17c-1.35-2.51-3.28-6.67-5.56-8.27-.87-.61-1.85-1.1-2.65-1.8a32.79,32.79,0,0,1-2.43-2.57c-1,.43-1.15.86-1.1,4.18-.57-.49-1.11-1-1.66-1.42a12.11,12.11,0,0,0-7.69-2.77,13.4,13.4,0,0,1-3.19-.2,30.54,30.54,0,0,1-3.83-1.62c-.58.77.05,2.21,1.21,3.72-1.67.11-3.36.1-5,.37a19.77,19.77,0,0,0-7.71,3.34c-2.22,1.47-4.51,2.63-7.52,1.69,1.09,2.82,3.51,3.22,5.44,3.76-2.36,1.37-4.79,7.35-5.61,12.08-.07.24-.13.48-.2.72-.22-.44-.44-.88-.66-1.32a36,36,0,0,1-3.31-9.1c-.27-1.47-.81-2.9-1.24-4.39,3.28-2.5,4.35-9.06,2.13-12.75l-5.34,2.62a8.54,8.54,0,0,0-4.56,5c-5.68-1.14-9.89,1.33-13.45,5.5-1.32,1.55-2.81,2.95-4.18,4.45-.59.65-1.09,1.37-1.64,2.07s-.24,1.36,0,2.2c1.84,4.23,5,6.38,9.68,6.26,1.24,0,1.51.59.79,1.74a28.86,28.86,0,0,0-2.85,9.24,35.83,35.83,0,0,0,.26,6c.09,1-.08,1.63-1.22,1.66a6.17,6.17,0,0,0-.61.15c-3.4.45-5,1.19-5.13,6.29,0,1.69.34,2.25,2,3.32l.18-.89,1.57.94c0-.89,0-1.54,0-2.19.15-2,1.41-2.69,3.14-1.68A11.68,11.68,0,0,1,280,187.2c.85.85,1.56,1.84,2.44,2.66,1.43,1.34,2.14,1.31,4-.2a7.38,7.38,0,0,1,1.11,2.4,10,10,0,0,1-.5,3.84,61.43,61.43,0,0,1-2.93,6.58A18.45,18.45,0,0,0,283,216.21c.66,2.4,1.59,3.6,4.32,6.1-2.2.91-5,.73-6.54,3.52-.12,1,2.82.29,3,.29,3.09-.41,6.16-1,9.26-1.19,2.54-.17,5.12.16,7.68.17,2,0,4-.06,5.94-.23,1.19-.1,1.94-.76,1.5-2.23a11.82,11.82,0,0,0,1.81-.37c4.12-.42,9.78-2.35,11.1-4.42.39,1.66.65,3.74,3,4.77-.69-2.59.38-4.51,1.71-6.34a16.84,16.84,0,0,0,3.12-6.44c.29-1.4.34-2.84.5-4.26,1.24,1,2.45,1.63,3.12,1.17a26,26,0,0,1-1.24-3.32,11.42,11.42,0,0,1-.06-2.72,10.32,10.32,0,0,0-2.08-6.65c-.37-.48-.75-1-1.15-1.46,2.83.16,3.2.05,3.6-.78a28,28,0,0,1-2.1-2.16c-.56-.71-.94-1.55-1.43-2.32-.94-1.47-3.07-2.83-5-3.94a47.66,47.66,0,0,1-.3-9.41,19.27,19.27,0,0,1,2.05-6.83,8.35,8.35,0,0,1,8.87-4.62c3.82.48,6.05,3.89,4.66,7.49-.53,1.36-1.4,2.59-2.06,3.9a17.87,17.87,0,0,0,5.73-1.32,15.07,15.07,0,0,0,8.53-10.22C351.95,157.51,351.8,153.13,349.88,149.32Z"/><path class="cls-1" d="M273.77,232.74l7.63,4.45a47.36,47.36,0,0,1,7.51-1.72l-6.5-5.72A54.16,54.16,0,0,0,273.77,232.74Z"/><path class="cls-1" d="M262.47,239.47l8.92,2.24a48,48,0,0,1,6.36-3.19l-7.23-4.22A55.19,55.19,0,0,0,262.47,239.47Z"/><path class="cls-1" d="M256.73,244.55l0,0h0a3.49,3.49,0,0,0,0,4.84,3.34,3.34,0,0,0,4.76,0l0,0a49.22,49.22,0,0,1,3.86-3.54c.84-.69,1.72-1.35,2.61-2l-8.37-2.1C258.62,242.72,257.65,243.61,256.73,244.55Z"/><path class="cls-1" d="M334.89,244.58h0l0,0s-2.67-2.58-4.1-3.77-2.76-2.18-4.22-3.17l2,10.4c.47.44.94.88,1.39,1.34l0,0,.09.11a3.35,3.35,0,0,0,4.79,0A3.49,3.49,0,0,0,334.89,244.58Z"/><path class="cls-1" d="M314.44,231.37l3.66,9.15a48.58,48.58,0,0,1,6.86,4.41l-1.84-9.5A54.55,54.55,0,0,0,314.44,231.37Z"/><path class="cls-1" d="M295.61,228.09A54.6,54.6,0,0,0,286,229l6.94,6.1c.94-.06,1.89-.09,2.84-.09a47.84,47.84,0,0,1,5.26.3l-5.51-7.14Z"/><path class="cls-1" d="M299.36,228.21l5.93,7.68,0,0a47.44,47.44,0,0,1,8.92,2.73l-3.39-8.47A54.21,54.21,0,0,0,299.36,228.21Z"/><path class="cls-1" d="M309.93,323.19l-.34.1-3.45,1a.35.35,0,0,1-.44-.23l-.86-2.86a.35.35,0,0,1,.23-.44l3.45-1,.69-.21c-.07-.42-.15-.84-.21-1.27a69.52,69.52,0,0,1-.53-15.17A161.38,161.38,0,0,0,280,312.64a115,115,0,0,0-17,9.27c.64.22,1.27.46,1.89.73a28.45,28.45,0,0,1,4.64,2.54c.45.3.89.63,1.32,1s.8.64,1.18,1a22.33,22.33,0,0,1,3.64,4.11c.36.52.69,1.05,1,1.6a22.87,22.87,0,0,1,2.81,9.91,35.35,35.35,0,0,1-.92,10.12,35,35,0,0,0,.18-10,21.75,21.75,0,0,0-3.35-9.21c-.17-.27-.36-.53-.55-.78h0q-.65.66-1.27,1.37l-.05.06q-.6.68-1.17,1.4l-.13.16q-.54.68-1.06,1.39l-.22.31c-.31.44-.62.89-.92,1.34l-.32.5c-.26.41-.52.83-.78,1.26-.14.24-.28.49-.42.74s-.42.74-.62,1.12-.37.73-.55,1.1-.29.57-.43.86q-.47,1-.91,2.06c-.49,1.18-.91,2.36-1.29,3.55a44.44,44.44,0,0,0-1.45,5.83q-.28,1.62-.44,3.2c0,.32,0,.63-.07.94H269a2.91,2.91,0,1,1,1.32,0h39.55l1.59-1.92,0,0h0l1.31-1.58.15-.18,1.39-1.66c.56-.67,1.15-1.34,1.75-2l.49-.53q.73-.8,1.49-1.58l.43-.44c1.33-1.34,2.72-2.65,4.16-3.89l.15-.13C316.52,340.51,312.14,332.71,309.93,323.19ZM272.24,350a2.28,2.28,0,1,1,1.26-3A2.28,2.28,0,0,1,272.24,350Zm2.83-9.22a1.85,1.85,0,1,1,1-2.41A1.85,1.85,0,0,1,275.07,340.74Zm25.26-20.64-3.39,1,1,3.39a.42.42,0,0,1-.28.52l-2.74.83a.42.42,0,0,1-.52-.28l-1-3.39-3.39,1a.42.42,0,0,1-.52-.28l-.83-2.74a.42.42,0,0,1,.28-.52l3.39-1-1-3.39a.42.42,0,0,1,.28-.52l2.74-.83a.42.42,0,0,1,.52.28l1,3.39,3.39-1a.42.42,0,0,1,.52.28l.83,2.74A.42.42,0,0,1,300.33,320.1Zm4.07,37.22a2.78,2.78,0,1,1,1.54-3.62A2.78,2.78,0,0,1,304.4,357.32Zm8.7-9a2.5,2.5,0,1,1,1.39-3.25A2.5,2.5,0,0,1,313.1,348.29Z"/><path class="cls-1" d="M434.6,581a28.43,28.43,0,0,1,21.57-10.06c.44,0,.89.05,1.34,0h.23a15.89,15.89,0,0,0,14.73-11.32h0a54.56,54.56,0,0,0,9.86.91c.89,0,1.84,0,2.83-.09a28.56,28.56,0,0,1-27.48,23.07h-.42q-.67,0-1.34,0a15.88,15.88,0,0,0-13.1,24.32l0,0a54.57,54.57,0,0,0-7.18,6.81c-.59.67-1.19,1.4-1.8,2.19A28.48,28.48,0,0,1,434.6,581Z"/><path class="cls-1" d="M162.13,581a28.43,28.43,0,0,0-21.57-10.06c-.44,0-.89.05-1.34,0H139a15.89,15.89,0,0,1-14.73-11.32h0a54.56,54.56,0,0,1-9.86.91c-.89,0-1.84,0-2.83-.09A28.56,28.56,0,0,0,139,583.56h.42q.67,0,1.34,0a15.88,15.88,0,0,1,13.1,24.32l0,0a54.57,54.57,0,0,1,7.18,6.81c.59.67,1.19,1.4,1.8,2.19A28.48,28.48,0,0,0,162.13,581Z"/><path class="cls-1" d="M156.22,590.07a25.48,25.48,0,0,1,8.55-2.87c8.66-1,14.33,4.19,19.15,10.37,4.39,5.63,8.24,11.68,12.61,17.32s9.42,9.83,17.14,9.09c-14,6-24.73-1.5-36.19-9,2.91,6.4,7.13,10.91,13,13.39,5.61,2.35,11.55,3.89,17.26,6,5.15,1.92,10.46,3.65,15.2,6.35,7.1,4,10.31,10.91,11.54,18.82-5.11-6.89-12.43-9.89-20.3-11.71-6-1.4-12.18-2.41-18.3-3.47-12.24-2.12-24.57-3.76-35.81-9.69-13.78-7.28-19.77-21.57-14.22-35.75C150.16,592.08,154.21,591.11,156.22,590.07ZM96,560.06"/><path class="cls-1" d="M451,598.9c5.55,14.18-.43,28.47-14.22,35.75-11.23,5.94-23.57,7.57-35.81,9.69-6.12,1.06-12.25,2.07-18.3,3.47-7.87,1.82-15.19,4.82-20.3,11.71,1.23-7.91,4.45-14.79,11.54-18.82,4.74-2.7,10-4.43,15.2-6.35,5.71-2.12,11.65-3.66,17.26-6,5.92-2.48,10.13-7,13-13.39-11.47,7.51-22.21,15-36.19,9,7.72.75,12.86-3.55,17.14-9.09s8.22-11.69,12.61-17.32c4.82-6.19,10.5-11.37,19.15-10.37a25.48,25.48,0,0,1,8.55,2.87C442.67,591.11,446.72,592.08,451,598.9Zm49.9-38.84"/><polygon class="cls-1" points="412.11 519.22 329.61 519.22 329.61 512.22 417.11 512.22 412.11 519.22"/><polygon class="cls-1" points="336.61 647.51 329.61 655 329.61 513.66 336.61 513.66 336.61 647.51"/><rect class="cls-1" x="329.6" y="369.59" width="7" height="81.04"/><rect class="cls-1" x="329.6" y="447.64" width="99.12" height="3"/><rect class="cls-1" x="318.23" y="501" width="102.11" height="3"/><rect class="cls-1" x="318.23" y="501" width="3" height="160.34"/><rect class="cls-1" x="318.23" y="366" width="3" height="99"/><rect class="cls-1" x="318.23" y="458" width="109.21" height="7"/><rect class="cls-1" x="258.48" y="512.22" width="3" height="139.3"/><rect class="cls-1" x="180.4" y="512.22" width="81.08" height="7"/><rect class="cls-1" x="257.87" y="369.21" width="3" height="81.42"/><rect class="cls-1" x="170.95" y="447.64" width="89.92" height="3"/><polygon class="cls-1" points="275.95 665 268.95 660 268.95 501 275.95 501 275.95 665"/><rect class="cls-1" x="176.95" y="501" width="99" height="3"/><rect class="cls-1" x="270.95" y="366" width="7" height="99"/><rect class="cls-1" x="169.95" y="458" width="107.5" height="7"/><path class="cls-1" d="M425.1,371c3.14,52.76-.82,100.8-11.79,142.9-9.27,35.59-23.54,67-42.41,93.43-17.47,24.44-35.6,39.83-47.73,48.43-12.57,8.92-22.33,13.15-25.58,14.11-3.25-1-13-5.19-25.58-14.11-12.13-8.6-30.26-24-47.73-48.43-18.87-26.4-33.14-57.84-42.41-93.43-11-42.1-14.93-90.14-11.79-142.9h255m7.49-8h-270c-18,252,126,315,135,315s153-63,135-315Z"/></svg>