<?xml version="1.0" encoding="utf-8"?>
<!-- Generator: Adobe Illustrator 19.2.1, SVG Export Plug-In . SVG Version: 6.00 Build 0)  -->
<svg version="1.1" xmlns="http://www.w3.org/2000/svg" xmlns:xlink="http://www.w3.org/1999/xlink" x="0px" y="0px"
	 viewBox="0 0 248.1 248.6" style="enable-background:new 0 0 248.1 248.6;" xml:space="preserve">
<style type="text/css">
	.st0{display:none;}
	.st1{display:inline;}
	.st2{display:inline;fill:#EDEDED;}
	.st3{fill:none;stroke:#EDEDED;stroke-width:0.75;stroke-miterlimit:10;}
	.st4{fill:none;stroke:#EDEDED;stroke-width:0.75;stroke-miterlimit:10;stroke-dasharray:2.0006,2.0006;}
	.st5{fill:none;stroke:#EDEDED;stroke-width:0.75;stroke-miterlimit:10;stroke-dasharray:2.0043,2.0043;}
	.st6{fill:none;stroke:#EDEDED;stroke-width:0.75;stroke-miterlimit:10;stroke-dasharray:2.005,2.005;}
</style>
<g id="Logo">
	<path id="leaf" d="M180.5,172.5l-17.7-17.7c7.5-9.2,11.9-20.9,11.9-33.7c0-29.6-24-53.6-53.6-53.6H67.6v53.6
		c0,29.6,24,53.6,53.6,53.6c12.5,0,24.1-4.3,33.2-11.6l17.8,17.8L180.5,172.5z M162.9,121.1c0,9.5-3.2,18.2-8.5,25.2l-32.6-32.6
		V79.4C144.5,79.7,162.9,98.3,162.9,121.1z M79.4,121.1V88.2l43.4,43.4H80.8C79.9,128.3,79.4,124.8,79.4,121.1z M109.9,101.9
		L87.4,79.4h22.5V101.9z M121.2,162.9c-14.8,0-27.8-7.7-35.2-19.4h48.8l11.2,11.2C139,159.8,130.4,162.9,121.2,162.9z"/>
</g>
<g id="Spacing_Guide" class="st0">
	<path class="st2" d="M43.3,33.8L24.8,8.6v25.2h-4.6V0h4.1l18.6,25.2V0h4.6v33.8H43.3z"/>
	<path class="st2" d="M43.3,67.5L24.8,42.4v25.2h-4.6V33.8h4.1L42.8,59V33.8h4.6v33.8H43.3z"/>
	<path class="st2" d="M223.8,214.7l-18.5-25.2v25.2h-4.6v-33.8h4.1l18.6,25.2v-25.2h4.6v33.8H223.8z"/>
	<path class="st2" d="M223.8,248.5l-18.5-25.2v25.2h-4.6v-33.8h4.1l18.6,25.2v-25.2h4.6v33.8H223.8z"/>
	<path class="st2" d="M33.8,205.2L8.6,223.7h25.2v4.6H0l0-4.1l25.2-18.6H0l0-4.6h33.8V205.2z"/>
	<path class="st2" d="M67.5,205.2l-25.2,18.5h25.2v4.6H33.8v-4.1L59,205.7H33.8v-4.6h33.8V205.2z"/>
	<path class="st2" d="M214.3,24.2l-25.2,18.5h25.2v4.6h-33.8v-4.1l25.2-18.6h-25.2v-4.6h33.8V24.2z"/>
	<path class="st2" d="M248.1,24.2l-25.2,18.5h25.2v4.6h-33.8v-4.1l25.2-18.6h-25.2v-4.6h33.8V24.2z"/>
	<g class="st1">
		<g>
			<line class="st3" x1="248.1" y1="67.5" x2="247.1" y2="67.5"/>
			<line class="st4" x1="245.1" y1="67.5" x2="2" y2="67.5"/>
			<line class="st3" x1="1" y1="67.5" x2="0" y2="67.5"/>
		</g>
	</g>
	<g class="st1">
		<g>
			<line class="st3" x1="67.6" y1="0" x2="67.6" y2="1"/>
			<line class="st5" x1="67.6" y1="3" x2="67.6" y2="246.5"/>
			<line class="st3" x1="67.6" y1="247.5" x2="67.6" y2="248.5"/>
		</g>
	</g>
	<g class="st1">
		<g>
			<line class="st3" x1="180.5" y1="0" x2="180.5" y2="1"/>
			<line class="st6" x1="180.5" y1="3" x2="180.5" y2="246.6"/>
			<line class="st3" x1="180.5" y1="247.6" x2="180.5" y2="248.6"/>
		</g>
	</g>
	<g class="st1">
		<g>
			<line class="st3" x1="0" y1="180.9" x2="1" y2="180.9"/>
			<line class="st4" x1="3" y1="180.9" x2="246.1" y2="180.9"/>
			<line class="st3" x1="247.1" y1="180.9" x2="248.1" y2="180.9"/>
		</g>
	</g>
</g>
</svg>
