<?xml version="1.0" encoding="utf-8"?>
<!-- Generator: Adobe Illustrator 21.0.0, SVG Export Plug-In . SVG Version: 6.00 Build 0)  -->
<svg version="1.1" xmlns="http://www.w3.org/2000/svg" xmlns:xlink="http://www.w3.org/1999/xlink" x="0px" y="0px"
	 viewBox="0 0 537.7 204.9" style="enable-background:new 0 0 537.7 204.9;" xml:space="preserve">
<style type="text/css">
	.st0{fill:#006633;}
	.st1{fill:#3AAA35;}
	.st2{fill:#95C11F;}
	.st3{display:none;}
	.st4{display:inline;}
	.st5{fill:none;stroke:#EDEDED;stroke-width:0.75;stroke-miterlimit:10;}
	.st6{fill:none;stroke:#EDEDED;stroke-width:0.75;stroke-miterlimit:10;stroke-dasharray:2.0004,2.0004;}
	.st7{fill:none;stroke:#EDEDED;stroke-width:0.75;stroke-miterlimit:10;stroke-dasharray:2.0085,2.0085;}
	.st8{fill:none;stroke:#EDEDED;stroke-width:0.75;stroke-miterlimit:10;stroke-dasharray:2.0093,2.0093;}
	.st9{display:inline;fill:#EDEDED;}
	.st10{fill:#EDEDED;}
</style>
<g id="Logo">
	<g>
		<path class="st0" d="M175.3,76.6l-0.3-2.2c-0.1-0.3-0.1-0.4-0.3-0.5c-0.4-0.1-1.1-0.3-1.9-0.3c-2,0-3,0.9-3,2.3
			c0,1.8,1.8,2.2,3.8,2.9c2.5,0.8,5.4,1.7,5.4,5.7c0,4.4-3.4,6.1-7.5,6.1c-2.4,0-5.1-0.6-6.1-1.1v-5.2h3l0.5,2.5
			c0.1,0.3,0.1,0.4,0.5,0.5c0.3,0.1,1.2,0.3,2.2,0.3c2.2,0,3.4-0.9,3.4-2.5c0-1.7-1.5-2.2-3.3-2.7c-2.6-0.7-5.9-1.5-5.9-5.8
			c0-4.1,3.1-6,7.2-6c2.3,0,4.3,0.6,5.5,1.1v5.2L175.3,76.6z"/>
		<path class="st0" d="M190.5,90.3v-8.7c0-0.8-0.1-2.3-1.4-2.3c-1,0-2.1,0.5-2.8,1v7.2c0,0.4,0,0.5,0.4,0.5l1.3,0.2v2.1h-7.4v-2.1
			l1.2-0.2c0.4-0.1,0.4-0.1,0.4-0.5V73.4c0-0.3-0.1-0.5-0.3-0.6l-1.5-0.5l0.3-2.2h5.5v7.6l0.1,0c1.2-1,2.6-1.6,4.3-1.6
			c2.8,0,3.9,1.5,3.9,4.3v7c0,0.4,0,0.5,0.4,0.5l1.3,0.2v2.1H190.5z"/>
		<path class="st0" d="M206.2,90.3l-0.3-1.4l-0.1,0c-1,1-2.3,1.8-4.5,1.8c-3.4,0-3.9-2.3-3.9-3.9c0-2.7,1.7-3.9,5-4.1l3.1-0.2v-1.5
			c0-1.3-0.1-2.1-1.8-2.1c-1.3,0-1.9,0.2-1.9,1.8l-3.8-0.3c0-3.6,3.3-4.1,5.7-4.1c4.1,0,5.7,1.1,5.7,4.8v6.5c0,0.4,0,0.5,0.4,0.5
			l1.3,0.2v2.1H206.2z M205.5,84.6l-1.8,0.1c-1.6,0.1-2.1,0.5-2.1,1.6c0,1.1,0.6,1.5,1.5,1.5c0.9,0,1.8-0.5,2.4-1V84.6z"/>
		<path class="st0" d="M216.5,90.3l-4.2-11c-0.1-0.3-0.2-0.4-0.6-0.5l-1.1-0.2l0.4-2.2h7.2v2.2l-1.7,0.2l2.7,7.6h0.2l2.8-7.6
			l-1.7-0.2l0.3-2.2h6.2v2.2l-1,0.2c-0.3,0.1-0.5,0.1-0.7,0.5l-4.2,11.1H216.5z"/>
		<path class="st0" d="M227.7,90.3v-2.1l1.4-0.2c0.4-0.1,0.4-0.1,0.4-0.5v-7.8c0-0.3-0.1-0.5-0.3-0.6l-1.4-0.5l0.3-2.2h5.5v11.1
			c0,0.4,0,0.5,0.4,0.5l1.4,0.2v2.1H227.7z M231.2,74.3c-1.5,0-2.4-0.9-2.4-2.4c0-1.5,0.9-2.3,2.4-2.3c1.5,0,2.4,0.8,2.4,2.3
			C233.6,73.4,232.7,74.3,231.2,74.3z"/>
		<path class="st0" d="M246.2,90.3v-8.6c0-1.3-0.1-2.3-1.4-2.3c-1,0-2.2,0.6-2.8,1v7.2c0,0.4,0,0.5,0.4,0.5l1.3,0.2v2.1h-7.4v-2.1
			l1.2-0.2c0.4-0.1,0.4-0.1,0.4-0.5v-7.8c0-0.3-0.1-0.5-0.3-0.6l-1.4-0.5l0.3-2.2h4.7l0.2,1.4l0.1,0.1c1.3-1,2.9-1.7,4.7-1.7
			c2.9,0,4,1.6,4,4.5v6.8c0,0.4,0,0.5,0.4,0.5l1.3,0.2v2.1H246.2z"/>
		<path class="st0" d="M264.7,78.8c0.5,0.6,1,1.5,1,2.7c0,3-2.3,4.7-5.7,4.7c-0.9,0-1.6-0.1-2.1-0.2l-0.9,1.4l2.6,0.2
			c4.6,0.3,7.3,0.4,7.3,4c0,3.1-2.7,4.8-7.3,4.8c-4.8,0-6.7-1.2-6.7-3.3c0-1.2,0.5-1.8,1.5-2.7c-0.9-0.4-1.2-1-1.2-1.8
			c0-0.6,0.3-1.1,0.8-1.6c0.5-0.5,1-1,1.7-1.6c-1.3-0.6-2.3-2-2.3-4c0-3.1,2-5.2,6.1-5.2c1.1,0,1.8,0.1,2.5,0.3h5.2v2.3L264.7,78.8z
			 M256.8,91c-0.3,0.4-0.7,0.9-0.7,1.4c0,1.1,1.4,1.4,3.2,1.4c1.5,0,3.7-0.1,3.7-1.5c0-0.9-1-0.9-2.3-1L256.8,91z M259.7,78.8
			c-1.5,0-2.6,0.7-2.6,2.5c0,1.3,0.7,2.2,2.5,2.2c1.5,0,2.5-0.9,2.5-2.3C262.1,79.6,261.2,78.8,259.7,78.8z"/>
		<path class="st0" d="M278.5,89.5c-1.1,0.6-2.8,1.1-4.3,1.1c-3.2,0-4.4-1.3-4.4-4.3v-7c0-0.2,0-0.3-0.2-0.3h-1.9v-2.4
			c2.3-0.3,3.3-1.4,3.6-4.3h2.5v3.8c0,0.2,0,0.3,0.2,0.3h3.8v2.7h-4v6.4c0,1.6,0.4,2.2,1.8,2.2c0.7,0,1.5-0.2,2.2-0.4L278.5,89.5z"
			/>
		<path class="st0" d="M279,83.4c0-4.4,2.3-7.3,7.2-7.3c4.9,0,6.9,2.9,6.9,7c0,4.5-2.3,7.5-7.2,7.5C280.9,90.6,279,87.6,279,83.4z
			 M288.8,83.3c0-3.1-1-4.3-2.7-4.3c-1.8,0-2.9,1.1-2.9,4.3c0,3.2,1,4.5,2.8,4.5C287.7,87.8,288.8,86.6,288.8,83.3z"/>
		<path class="st0" d="M304.2,90.3v-8.6c0-1.3-0.1-2.3-1.4-2.3c-1,0-2.2,0.6-2.8,1v7.2c0,0.4,0,0.5,0.4,0.5l1.3,0.2v2.1h-7.4v-2.1
			l1.2-0.2c0.4-0.1,0.4-0.1,0.4-0.5v-7.8c0-0.3-0.1-0.5-0.3-0.6l-1.4-0.5l0.3-2.2h4.7l0.2,1.4l0.1,0.1c1.3-1,2.9-1.7,4.7-1.7
			c2.9,0,4,1.6,4,4.5v6.8c0,0.4,0,0.5,0.4,0.5l1.3,0.2v2.1H304.2z"/>
		<path class="st0" d="M310.8,84.2v-3.4h7.2v3.4H310.8z"/>
		<path class="st0" d="M332.1,89.3c-1.2,0.7-3.1,1.3-5.1,1.3c-4.8,0-7-3-7-7.1c0-5,3-7.4,7.3-7.4c2.1,0,3.9,0.6,4.7,1.1v4.2
			l-2.9-0.1l-0.3-1.8c0-0.2-0.1-0.3-0.3-0.4c-0.3-0.1-0.8-0.2-1.4-0.2c-1.6,0-3,1.1-3,4.2c0,3.5,1.5,4.5,3.4,4.5
			c1.3,0,2.5-0.4,3.3-0.8L332.1,89.3z"/>
		<path class="st0" d="M344.1,90.3l-0.2-1.4l-0.1,0c-1.1,0.8-2.5,1.8-4.7,1.8c-2.8,0-3.9-1.6-3.9-4.7v-6.5c0-0.4,0-0.5-0.4-0.6
			l-1.3-0.3l0.3-2.2h5.5v8.8c0,1.6,0.3,2.2,1.4,2.2c1.2,0,2.1-0.7,2.7-1.2v-6.9c0-0.4,0-0.5-0.4-0.5l-1.1-0.3l0.3-2.2h5.3v11.1
			c0,0.3,0,0.5,0.4,0.5l1.3,0.2v2.1H344.1z"/>
		<path class="st0" d="M367.1,90.3v-8.6c0-1-0.1-2.3-1.5-2.3c-0.7,0-1.5,0.3-2.2,0.7c0.1,0.4,0.1,0.9,0.1,1.3v6.1
			c0,0.5,0,0.5,0.4,0.6l1.1,0.2v2.1h-5.5v-8.8c0-1-0.1-2.2-1.4-2.2c-0.8,0-1.7,0.4-2.2,0.9v7.2c0,0.5,0,0.5,0.4,0.5l1.3,0.2v2.1
			h-7.4v-2.1l1.2-0.2c0.4-0.1,0.4-0.1,0.4-0.5v-7.8c0-0.3-0.1-0.5-0.3-0.6l-1.4-0.5l0.3-2.2h4.7l0.2,1.4l0.1,0
			c1.2-1,2.6-1.7,4.3-1.7c1.3,0,2.5,0.3,3.3,1.6c0.9-0.7,2.4-1.6,4.3-1.6c2.9,0,3.9,1.4,3.9,4.5v6.8c0,0.4,0,0.5,0.4,0.6l1.3,0.2
			v2.1H367.1z"/>
		<path class="st0" d="M373.8,84.2v-3.4h7.2v3.4H373.8z"/>
		<path class="st0" d="M400.1,83.2c-0.3,0-0.4,0.1-0.4,0.4v5.7c-2,1-4.7,1.3-6.9,1.3c-7.3,0-9.8-4.3-9.8-10c0-5.7,3.3-10,10-10
			c1.9,0,4.4,0.5,6,1.5v5l-3-0.2l-0.4-2.4c-0.1-0.4-0.2-0.5-0.4-0.5c-0.7-0.2-1.6-0.3-2.5-0.3c-3.4,0-5.5,2.6-5.5,6.8
			c0,4.4,1.9,7,5.7,7c0.7,0,1.6-0.1,2.2-0.2c0.3-0.1,0.4-0.1,0.4-0.5v-3.5h-3L393,81h8.2v2.1L400.1,83.2z"/>
		<path class="st0" d="M402.2,90.3v-2.2l1.2-0.2c0.4-0.1,0.4-0.1,0.4-0.5v-7.8c0-0.3-0.1-0.5-0.3-0.6l-1.4-0.5l0.3-2.2h4.7l0.3,2.1
			h0.2c0.9-1.4,2.1-2.4,3.8-2.4c0.6,0,1.8,0.1,2.3,0.2v4.9l-3.2-0.1l-0.3-1.4c-0.1-0.2-0.1-0.3-0.3-0.3c-0.7,0-1.5,0.6-1.9,0.9v7.1
			c0,0.4,0,0.5,0.4,0.5l2.6,0.2v2.1H402.2z"/>
		<path class="st0" d="M427.1,89.3c-1.7,0.8-3.5,1.4-5.5,1.4c-5.1,0-6.9-3.2-6.9-7.4c0-4.8,3-7.1,6.6-7.1c3.5,0,5.9,1.8,5.9,6.5
			c0,0.3,0,1.3-0.1,1.8h-8.2c0.1,1.9,1,3.1,3.1,3.1c1,0,2.2-0.2,4-0.9L427.1,89.3z M423.2,81.8c0-2.2-0.9-2.8-2-2.8
			c-1.1,0-2.1,0.6-2.2,2.8H423.2z"/>
		<path class="st0" d="M436.8,80.6l-0.3-1.4c0-0.2-0.1-0.3-0.3-0.4c-0.3-0.1-1-0.2-1.7-0.2c-1.3,0-2.1,0.5-2.1,1.4
			c0,1.1,1.5,1.3,3.1,1.7c2.1,0.5,4.5,1.2,4.5,4.3c0,3.3-2.6,4.6-6,4.6c-2.4,0-4.8-0.6-5.3-1v-3.9l2.9,0.2l0.3,1.5
			c0,0.2,0.1,0.3,0.3,0.4c0.3,0.1,1,0.3,2.1,0.3c1.4,0,2.2-0.4,2.2-1.4c0-1.1-1.1-1.4-2.4-1.6c-2.2-0.4-5.2-0.9-5.2-4.4
			c0-3.3,2.8-4.7,5.9-4.7c2.1,0,4.2,0.5,4.9,0.8v3.9L436.8,80.6z"/>
		<path class="st0" d="M451.8,89.5c-1.1,0.6-2.8,1.1-4.3,1.1c-3.2,0-4.4-1.3-4.4-4.3v-7c0-0.2,0-0.3-0.2-0.3H441v-2.4
			c2.3-0.3,3.3-1.4,3.6-4.3h2.5v3.8c0,0.2,0,0.3,0.2,0.3h3.8v2.7h-4v6.4c0,1.6,0.4,2.2,1.8,2.2c0.7,0,1.5-0.2,2.2-0.4L451.8,89.5z"
			/>
		<path class="st0" d="M454.7,96v-2.2l2.1-0.2c0.3,0,0.5-0.2,0.7-0.6l1.1-2.5l-5.1-11.2c-0.1-0.3-0.2-0.4-0.6-0.5l-1.1-0.3l0.4-2.2
			h7.1v2.2l-1.7,0.2l3,7h0.2l2.8-7l-1.7-0.2l0.3-2.2h5.9v2.2l-0.9,0.2c-0.3,0.1-0.5,0.1-0.7,0.5l-5.9,14.4l2.8,0.3V96H454.7z"/>
	</g>
	<path class="st1" d="M135.8,131.1l-10.4-10.4c4.4-5.4,7-12.3,7-19.7c0-17.3-14.1-31.4-31.4-31.4H69.5v31.4
		c0,17.3,14.1,31.4,31.4,31.4c7.4,0,14.1-2.5,19.5-6.8l10.4,10.4L135.8,131.1z M125.4,100.9c0,5.6-1.9,10.7-5,14.8l-19.1-19.1V76.5
		C114.6,76.7,125.4,87.6,125.4,100.9z M76.5,100.9V81.6l25.5,25.5H77.3C76.7,105.1,76.5,103.1,76.5,100.9z M94.3,89.6L81.2,76.5
		h13.2V89.6z M100.9,125.4c-8.7,0-16.3-4.5-20.6-11.4h28.6l6.6,6.6C111.4,123.6,106.4,125.4,100.9,125.4z"/>
	<path class="st2" d="M180.9,136c-10,0-18-6.8-18-17.4c0-9.9,8.1-17.4,18-17.4c3.3,0,6.4,1,9,2.6l-2.2,3.6c-2-1.2-4.4-2-6.9-2
		c-7.6,0-13.2,5.6-13.2,13.2c0,8.2,5.5,13.2,13.2,13.2c2.6,0,5.1-0.8,7.4-2.4l2.4,3.4C188,134.9,184.5,136,180.9,136z"/>
	<path class="st2" d="M218.1,123.4c0,7-5.2,12.6-12.2,12.6c-7,0-12.2-5.6-12.2-12.6c0-7,5.2-12.6,12.2-12.6
		C212.9,110.8,218.1,116.4,218.1,123.4z M205.9,114.9c-4.5,0-7.8,3.9-7.8,8.5s3.3,8.5,7.8,8.5c4.5,0,7.8-3.9,7.8-8.5
		S210.4,114.9,205.9,114.9z"/>
	<path class="st2" d="M256.2,135.4v-12c0-2.3,0-4.9-1.2-6.6c-0.8-1.2-2.1-1.9-4.1-1.9c-2.3,0-4.8,1.6-6.6,4c0.2,1.2,0.3,2.6,0.3,4.1
		v12.5h-4.4v-12c0-2.3,0-5.1-1.3-6.9c-0.7-1-1.9-1.7-3.7-1.7c-2.4,0-5,2.2-6.6,4.4v16.1h-4.4v-24h4.4v3.6c1.8-2.5,4.8-4.2,7.5-4.2
		s5.2,1,6.7,3.3c0.2,0.3,0.4,0.8,0.6,1.1c2.1-2.9,5.1-4.4,8.4-4.4c3.2,0,5.3,1.1,6.6,2.8c1.7,2.2,2.2,5.6,2.2,9.3v12.5H256.2z"/>
	<path class="st2" d="M300.3,135.4v-12c0-2.3,0-4.9-1.2-6.6c-0.8-1.2-2.1-1.9-4.1-1.9c-2.3,0-4.8,1.6-6.6,4c0.2,1.2,0.3,2.6,0.3,4.1
		v12.5h-4.4v-12c0-2.3,0-5.1-1.3-6.9c-0.7-1-1.9-1.7-3.7-1.7c-2.4,0-5,2.2-6.6,4.4v16.1h-4.4v-24h4.4v3.6c1.8-2.5,4.8-4.2,7.5-4.2
		s5.2,1,6.7,3.3c0.2,0.3,0.4,0.8,0.6,1.1c2.1-2.9,5.1-4.4,8.4-4.4c3.2,0,5.3,1.1,6.6,2.8c1.7,2.2,2.2,5.6,2.2,9.3v12.5H300.3z"/>
	<path class="st2" d="M329.1,131.5c-1.8,2.8-4.6,4.5-7.8,4.5c-3.4,0-5.6-1.2-7-3c-1.6-2.2-2.2-5.4-2.2-9.1v-12.5h4.4v12
		c0,2.4,0.1,4.9,1.2,6.6c0.8,1.2,2.1,1.9,4.2,1.9c2.8,0,5.4-1.9,7.2-4.6v-15.9h4.4v24h-4.4V131.5z"/>
	<path class="st2" d="M345.9,111.4v3.9c1.8-2.8,4.6-4.5,7.8-4.5c3.4,0,5.6,1.2,7,3c1.6,2.2,2.2,5.4,2.2,9.1v12.5h-4.4v-12
		c0-2.4-0.1-4.9-1.2-6.6c-0.8-1.2-2.1-1.9-4.2-1.9c-2.8,0-5.4,1.9-7.2,4.6v15.9h-4.4v-24H345.9z"/>
	<path class="st2" d="M370.6,106.7v-4.9h4.4v4.9H370.6z M370.6,135.4v-24h4.4v24H370.6z"/>
	<path class="st2" d="M387.6,115.3v10.8c0,0.6,0,1.2,0,1.9c0.1,2.5,1,4,3.4,4c1,0,1.9-0.3,2.7-0.7l1.2,3.5c-1.2,0.6-2.9,1.1-4.5,1.1
		c-3.4,0-5.4-1.5-6.4-3.7c-0.6-1.3-0.8-3.1-0.8-5v-11.9H380v-3.8h3.2v-5.8h4.4v5.8h6.7v3.8H387.6z"/>
	<path class="st2" d="M401.4,111.4l6.2,18.2h0.1l6.4-18.2h4.8l-13.5,34.8l-3.8-1.5l3.8-10l-8.8-23.3H401.4z"/>
</g>
<g id="Spacing_Guide" class="st3">
	<g class="st4">
		<g>
			<line class="st5" x1="1.6" y1="69.5" x2="2.6" y2="69.5"/>
			<line class="st6" x1="4.6" y1="69.5" x2="535.7" y2="69.5"/>
			<line class="st5" x1="536.7" y1="69.5" x2="537.7" y2="69.5"/>
		</g>
	</g>
	<g class="st4">
		<g>
			<line class="st5" x1="1.6" y1="91" x2="2.6" y2="91"/>
			<line class="st6" x1="4.6" y1="91" x2="535.7" y2="91"/>
			<line class="st5" x1="536.7" y1="91" x2="537.7" y2="91"/>
		</g>
	</g>
	<g class="st4">
		<g>
			<line class="st5" x1="0.4" y1="101.2" x2="1.4" y2="101.2"/>
			<line class="st6" x1="3.4" y1="101.2" x2="534.5" y2="101.2"/>
			<line class="st5" x1="535.5" y1="101.2" x2="536.5" y2="101.2"/>
		</g>
	</g>
	<g class="st4">
		<g>
			<line class="st5" x1="69.5" y1="0" x2="69.5" y2="1"/>
			<line class="st7" x1="69.5" y1="3" x2="69.5" y2="202.9"/>
			<line class="st5" x1="69.5" y1="203.9" x2="69.5" y2="204.9"/>
		</g>
	</g>
	<g class="st4">
		<g>
			<line class="st5" x1="135.8" y1="0" x2="135.8" y2="1"/>
			<line class="st7" x1="135.8" y1="3" x2="135.8" y2="202.9"/>
			<line class="st5" x1="135.8" y1="203.9" x2="135.8" y2="204.9"/>
		</g>
	</g>
	<g class="st4">
		<g>
			<line class="st5" x1="162.9" y1="0" x2="162.9" y2="1"/>
			<line class="st7" x1="162.9" y1="3" x2="162.9" y2="202.9"/>
			<line class="st5" x1="162.9" y1="203.9" x2="162.9" y2="204.9"/>
		</g>
	</g>
	<g class="st4">
		<g>
			<line class="st5" x1="468.2" y1="0" x2="468.2" y2="1"/>
			<line class="st8" x1="468.2" y1="3" x2="468.2" y2="202.9"/>
			<line class="st5" x1="468.2" y1="203.9" x2="468.2" y2="204.9"/>
		</g>
	</g>
	<g class="st4">
		<g>
			<line class="st5" x1="0" y1="136" x2="1" y2="136"/>
			<line class="st6" x1="3" y1="136" x2="534.1" y2="136"/>
			<line class="st5" x1="535.1" y1="136" x2="536.1" y2="136"/>
		</g>
	</g>
	<path class="st9" d="M153.8,52.1c-10,0-18-6.8-18-17.4c0-9.9,8.1-17.4,18-17.4c3.3,0,6.4,1,9,2.6l-2.2,3.6c-2-1.2-4.4-2-6.9-2
		c-7.6,0-13.2,5.6-13.2,13.2c0,8.2,5.5,13.2,13.2,13.2c2.6,0,5.1-0.8,7.4-2.4l2.4,3.4C160.8,51,157.4,52.1,153.8,52.1z"/>
	<g class="st4">
		<path class="st10" d="M503,30.7c0,10-6.8,18-17.4,18c-9.9,0-17.4-8.1-17.4-18c0-3.3,1-6.4,2.6-9l3.6,2.2c-1.2,2-2,4.4-2,6.9
			c0,7.6,5.6,13.2,13.2,13.2c8.2,0,13.2-5.5,13.2-13.2c0-2.6-0.8-5.1-2.4-7.4l3.4-2.4C501.9,23.7,503,27.1,503,30.7z"/>
		<path class="st10" d="M537.7,30.7c0,10-6.8,18-17.4,18c-9.9,0-17.4-8.1-17.4-18c0-3.3,1-6.4,2.6-9l3.6,2.2c-1.2,2-2,4.4-2,6.9
			c0,7.6,5.6,13.2,13.2,13.2c8.2,0,13.2-5.5,13.2-13.2c0-2.6-0.8-5.1-2.4-7.4l3.4-2.4C536.6,23.7,537.7,27.1,537.7,30.7z"/>
	</g>
	<g class="st4">
		<path class="st10" d="M34.8,166.1c0,10-6.8,18-17.4,18c-9.9,0-17.4-8.1-17.4-18c0-3.3,1-6.4,2.6-9l3.6,2.2c-1.2,2-2,4.4-2,6.9
			c0,7.6,5.6,13.2,13.2,13.2c8.2,0,13.2-5.5,13.2-13.2c0-2.6-0.8-5.1-2.4-7.4l3.4-2.4C33.7,159.1,34.8,162.5,34.8,166.1z"/>
		<path class="st10" d="M69.5,166.1c0,10-6.8,18-17.4,18c-9.9,0-17.4-8.1-17.4-18c0-3.3,1-6.4,2.6-9l3.6,2.2c-1.2,2-2,4.4-2,6.9
			c0,7.6,5.6,13.2,13.2,13.2c8.2,0,13.2-5.5,13.2-13.2c0-2.6-0.8-5.1-2.4-7.4l3.4-2.4C68.4,159.1,69.5,162.5,69.5,166.1z"/>
	</g>
	<g class="st4">
		<path class="st10" d="M507,170.2c-10,0-18-6.8-18-17.4c0-9.9,8.1-17.4,18-17.4c3.3,0,6.4,1,9,2.6l-2.2,3.6c-2-1.2-4.4-2-6.9-2
			c-7.6,0-13.2,5.6-13.2,13.2c0,8.2,5.5,13.2,13.2,13.2c2.6,0,5.1-0.8,7.4-2.4l2.4,3.4C514,169.1,510.6,170.2,507,170.2z"/>
		<path class="st10" d="M507,204.9c-10,0-18-6.8-18-17.4c0-9.9,8.1-17.4,18-17.4c3.3,0,6.4,1,9,2.6l-2.2,3.6c-2-1.2-4.4-2-6.9-2
			c-7.6,0-13.2,5.6-13.2,13.2c0,8.2,5.5,13.2,13.2,13.2c2.6,0,5.1-0.8,7.4-2.4l2.4,3.4C514,203.8,510.6,204.9,507,204.9z"/>
	</g>
	<g class="st4">
		<path class="st10" d="M38.8,34.8c-10,0-18-6.8-18-17.4c0-9.9,8.1-17.4,18-17.4c3.3,0,6.4,1,9,2.6l-2.2,3.6c-2-1.2-4.4-2-6.9-2
			c-7.6,0-13.2,5.6-13.2,13.2c0,8.2,5.5,13.2,13.2,13.2c2.6,0,5.1-0.8,7.4-2.4l2.4,3.4C45.8,33.7,42.4,34.8,38.8,34.8z"/>
		<path class="st10" d="M38.8,69.5c-10,0-18-6.8-18-17.4c0-9.9,8.1-17.4,18-17.4c3.3,0,6.4,1,9,2.6l-2.2,3.6c-2-1.2-4.4-2-6.9-2
			c-7.6,0-13.2,5.6-13.2,13.2c0,8.2,5.5,13.2,13.2,13.2c2.6,0,5.1-0.8,7.4-2.4l2.4,3.4C45.8,68.4,42.4,69.5,38.8,69.5z"/>
	</g>
</g>
</svg>
