<svg id="Logo" xmlns="http://www.w3.org/2000/svg" viewBox="0 0 537.71 204.94"><defs><style>.cls-1{fill:#fff;}</style></defs><title>Artboard 1</title><path class="cls-1" d="M175.28,76.64,175,74.47c-.05-.32-.13-.43-.32-.51a6.35,6.35,0,0,0-1.95-.29c-2,0-3,.91-3,2.27,0,1.76,1.81,2.24,3.84,2.85,2.53.77,5.36,1.73,5.36,5.74,0,4.38-3.42,6.08-7.5,6.08a17.62,17.62,0,0,1-6.11-1.09v-5.2h3l.53,2.54c.05.32.11.4.45.48a9.54,9.54,0,0,0,2.24.29c2.16,0,3.36-.85,3.36-2.48s-1.52-2.24-3.31-2.75c-2.64-.75-5.9-1.47-5.9-5.76,0-4.11,3.1-6,7.15-6a14.53,14.53,0,0,1,5.47,1.07v5.2Z"/><path class="cls-1" d="M190.46,90.3V81.6c0-.8-.08-2.27-1.41-2.27a5.26,5.26,0,0,0-2.77,1v7.15c0,.43,0,.48.43.53l1.28.19V90.3h-7.36V88.19l1.2-.19c.37-.05.43-.13.43-.53V73.38c0-.29-.08-.48-.35-.56l-1.47-.51.29-2.16h5.5V77.7l.13,0a6.54,6.54,0,0,1,4.27-1.6c2.83,0,3.87,1.55,3.87,4.32v7c0,.43,0,.48.43.53l1.33.19V90.3Z"/><path class="cls-1" d="M206.23,90.3,206,88.86l-.13,0a6,6,0,0,1-4.48,1.79c-3.36,0-3.9-2.29-3.9-3.95,0-2.67,1.65-3.9,5-4.11l3.07-.21V80.88c0-1.25-.13-2.11-1.79-2.11-1.28,0-1.95.19-1.95,1.79L198,80.24c0-3.6,3.28-4.11,5.74-4.11,4.06,0,5.68,1.09,5.68,4.83v6.48c0,.43,0,.48.43.53l1.28.21V90.3Zm-.72-5.74-1.81.13c-1.57.11-2.13.51-2.13,1.57a1.34,1.34,0,0,0,1.52,1.47,4.38,4.38,0,0,0,2.43-1Z"/><path class="cls-1" d="M216.5,90.3l-4.24-11c-.13-.32-.24-.37-.56-.45l-1.12-.24L211,76.4h7.23v2.16l-1.71.21,2.72,7.6h.19l2.83-7.6-1.73-.21.35-2.16H227v2.16l-1,.16c-.35.08-.53.13-.67.45L221.17,90.3Z"/><path class="cls-1" d="M227.73,90.3V88.19l1.36-.19c.37-.05.43-.13.43-.53V79.62c0-.29-.08-.48-.35-.56l-1.44-.51L228,76.4h5.52V87.47c0,.43,0,.48.43.53l1.36.19V90.3Zm3.44-16a2.19,2.19,0,0,1-2.4-2.4,2.42,2.42,0,0,1,4.83,0A2.2,2.2,0,0,1,231.17,74.26Z"/><path class="cls-1" d="M246.17,90.3V81.68c0-1.28-.08-2.35-1.41-2.35a5.39,5.39,0,0,0-2.77,1v7.15c0,.43,0,.48.43.53l1.28.19V90.3h-7.36V88.16l1.2-.16c.37-.05.43-.13.43-.53V79.62c0-.29-.08-.48-.35-.56l-1.44-.51.32-2.16h4.67l.21,1.39.11.05a7.83,7.83,0,0,1,4.7-1.71c2.91,0,4,1.6,4,4.54v6.8c0,.43,0,.48.43.53l1.33.19V90.3Z"/><path class="cls-1" d="M264.66,78.85a4.22,4.22,0,0,1,1,2.69c0,3-2.32,4.7-5.68,4.7a8.5,8.5,0,0,1-2.11-.24L257,87.42l2.61.16c4.62.29,7.34.43,7.34,4,0,3.07-2.69,4.8-7.34,4.8-4.83,0-6.67-1.23-6.67-3.34a3.45,3.45,0,0,1,1.47-2.72,1.78,1.78,0,0,1-1.17-1.76,2.39,2.39,0,0,1,.77-1.63c.48-.51,1-1,1.65-1.6a4.26,4.26,0,0,1-2.29-4c0-3.07,2-5.18,6.11-5.18a9.19,9.19,0,0,1,2.45.27h5.2v2.27ZM256.76,91a2.37,2.37,0,0,0-.69,1.41c0,1.07,1.36,1.39,3.23,1.39,1.55,0,3.66-.11,3.66-1.55,0-.85-1-.91-2.29-1Zm2.93-12.25a2.27,2.27,0,0,0-2.56,2.45c0,1.31.72,2.21,2.48,2.21a2.26,2.26,0,0,0,2.51-2.27A2.19,2.19,0,0,0,259.7,78.77Z"/><path class="cls-1" d="M278.48,89.55a10.66,10.66,0,0,1-4.35,1.07c-3.18,0-4.38-1.28-4.38-4.3v-7c0-.16,0-.27-.21-.27h-1.87V76.69c2.35-.27,3.28-1.44,3.58-4.35h2.53v3.79c0,.19,0,.27.21.27h3.76v2.67h-4v6.38c0,1.57.37,2.19,1.81,2.19a6.37,6.37,0,0,0,2.16-.43Z"/><path class="cls-1" d="M279,83.44c0-4.43,2.32-7.31,7.2-7.31s6.86,2.94,6.86,7c0,4.54-2.3,7.47-7.2,7.47S279,87.63,279,83.44Zm9.85-.16c0-3.15-1-4.27-2.7-4.27s-2.93,1.09-2.93,4.3,1,4.51,2.83,4.51S288.8,86.62,288.8,83.28Z"/><path class="cls-1" d="M304.2,90.3V81.68c0-1.28-.08-2.35-1.41-2.35a5.39,5.39,0,0,0-2.77,1v7.15c0,.43,0,.48.43.53l1.28.19V90.3h-7.36V88.16l1.2-.16c.37-.05.43-.13.43-.53V79.62c0-.29-.08-.48-.35-.56l-1.44-.51.32-2.16h4.67l.21,1.39.11.05a7.83,7.83,0,0,1,4.7-1.71c2.91,0,4,1.6,4,4.54v6.8c0,.43,0,.48.43.53l1.33.19V90.3Z"/><path class="cls-1" d="M310.84,84.24V80.85h7.23v3.39Z"/><path class="cls-1" d="M332.05,89.31A10.24,10.24,0,0,1,327,90.62c-4.83,0-7-3-7-7.07,0-5,3-7.42,7.31-7.42a9.71,9.71,0,0,1,4.75,1.12v4.19l-2.86-.13-.32-1.76a.45.45,0,0,0-.32-.43,4.64,4.64,0,0,0-1.36-.19c-1.6,0-3,1.09-3,4.22,0,3.47,1.55,4.46,3.44,4.46a8.54,8.54,0,0,0,3.34-.77Z"/><path class="cls-1" d="M344.09,90.3l-.21-1.44-.13,0A7.36,7.36,0,0,1,339,90.62c-2.8,0-3.87-1.6-3.87-4.7V79.41c0-.43,0-.48-.43-.56l-1.28-.27.27-2.19h5.47v8.83c0,1.63.27,2.24,1.41,2.24a4.2,4.2,0,0,0,2.75-1.23V79.38c0-.43,0-.45-.43-.53l-1.15-.27L342,76.4h5.31V87.47c0,.35,0,.48.37.51l1.33.19V90.3Z"/><path class="cls-1" d="M367.08,90.3V81.68c0-1-.11-2.29-1.49-2.29a4,4,0,0,0-2.16.72,10.43,10.43,0,0,1,.08,1.31v6.06c0,.45,0,.51.43.56l1.07.16V90.3h-5.52V81.54c0-1-.08-2.16-1.41-2.16a3.71,3.71,0,0,0-2.21.85v7.23c0,.45,0,.45.43.53l1.31.19V90.3h-7.39V88.19l1.2-.19c.37-.05.43-.13.43-.53V79.62c0-.29-.08-.48-.35-.56L350,78.56l.29-2.16H355l.21,1.39.13,0a6.56,6.56,0,0,1,4.27-1.68,3.45,3.45,0,0,1,3.26,1.6,7.15,7.15,0,0,1,4.3-1.6c2.86,0,3.92,1.41,3.92,4.51v6.83c0,.43,0,.51.43.56l1.34.16V90.3Z"/><path class="cls-1" d="M373.75,84.24V80.85H381v3.39Z"/><path class="cls-1" d="M400.14,83.23c-.32,0-.43.11-.43.37v5.74a17,17,0,0,1-6.91,1.28c-7.28,0-9.79-4.3-9.79-10s3.28-10,10-10a11.88,11.88,0,0,1,6,1.55v5l-3-.21-.4-2.4c-.08-.37-.19-.48-.43-.53a9.91,9.91,0,0,0-2.45-.35c-3.44,0-5.5,2.62-5.5,6.8,0,4.4,1.87,7,5.68,7a14.29,14.29,0,0,0,2.22-.19c.29-.05.43-.13.43-.48v-3.5h-3L393,81h8.19v2.13Z"/><path class="cls-1" d="M402.17,90.3V88.14l1.2-.16c.37-.05.43-.13.43-.53V79.62c0-.29-.08-.48-.35-.56L402,78.56l.29-2.16H407l.32,2.13h.16a4.47,4.47,0,0,1,3.76-2.4,12.43,12.43,0,0,1,2.32.24v4.86l-3.2-.11-.27-1.41c-.05-.24-.13-.29-.35-.29a3.54,3.54,0,0,0-1.92.93v7.07c0,.43,0,.51.43.53l2.64.21V90.3Z"/><path class="cls-1" d="M427.06,89.26a12.47,12.47,0,0,1-5.47,1.36c-5.15,0-6.91-3.2-6.91-7.36,0-4.83,3-7.12,6.62-7.12s5.87,1.84,5.87,6.46c0,.32,0,1.25-.05,1.79h-8.17c.13,1.89,1,3.15,3.15,3.15a11.37,11.37,0,0,0,4-.91Zm-3.84-7.42c0-2.24-.91-2.83-2-2.83s-2.08.64-2.24,2.83Z"/><path class="cls-1" d="M436.82,80.58l-.27-1.39c0-.21-.08-.32-.27-.37a6.35,6.35,0,0,0-1.71-.21c-1.33,0-2.08.51-2.08,1.36,0,1.09,1.47,1.33,3.1,1.71,2.11.48,4.48,1.23,4.48,4.35s-2.64,4.59-6,4.59a13.65,13.65,0,0,1-5.28-1V85.79l2.85.21.27,1.52c0,.24.08.35.32.4a7,7,0,0,0,2.05.27c1.41,0,2.21-.4,2.21-1.39s-1.07-1.39-2.43-1.63c-2.24-.4-5.18-.88-5.18-4.38,0-3.31,2.83-4.67,5.9-4.67a15.88,15.88,0,0,1,4.91.77v3.87Z"/><path class="cls-1" d="M451.82,89.55a10.65,10.65,0,0,1-4.35,1.07c-3.18,0-4.38-1.28-4.38-4.3v-7c0-.16,0-.27-.21-.27H441V76.69c2.35-.27,3.28-1.44,3.58-4.35h2.54v3.79c0,.19,0,.27.21.27h3.76v2.67h-4v6.38c0,1.57.37,2.19,1.81,2.19a6.36,6.36,0,0,0,2.16-.43Z"/><path class="cls-1" d="M454.7,96V93.79l2.08-.24c.35,0,.51-.21.67-.59l1.15-2.53-5.1-11.15c-.11-.32-.24-.37-.56-.45l-1.09-.27.43-2.16h7.07v2.16l-1.68.21,3,7h.19l2.83-7-1.73-.21.35-2.16h5.95v2.16l-.85.16a.73.73,0,0,0-.67.45l-5.87,14.36,2.77.29V96Z"/><path class="cls-1" d="M135.76,131.08l-10.39-10.39a31.41,31.41,0,0,0-24.43-51.18H69.51v31.43a31.41,31.41,0,0,0,50.91,24.64L130.84,136Zm-10.35-30.14a24.34,24.34,0,0,1-5,14.79L101.29,96.6V76.47A24.5,24.5,0,0,1,125.41,100.94Zm-48.94,0V81.63l25.46,25.46H77.25A24.43,24.43,0,0,1,76.47,100.94ZM94.33,89.64,81.15,76.47H94.33Zm6.61,35.76a24.47,24.47,0,0,1-20.65-11.36h28.6l6.57,6.57A24.34,24.34,0,0,1,100.94,125.41Z"/><path class="cls-1" d="M180.94,136c-10,0-18-6.77-18-17.38,0-9.94,8.11-17.38,18-17.38a17.08,17.08,0,0,1,9,2.59l-2.16,3.55a13.05,13.05,0,0,0-6.86-2,12.79,12.79,0,0,0-13.15,13.25c0,8.16,5.47,13.25,13.15,13.25a13,13,0,0,0,7.44-2.35l2.45,3.41A17.47,17.47,0,0,1,180.94,136Z"/><path class="cls-1" d="M218.14,123.42a12.25,12.25,0,1,1-12.24-12.58A12.22,12.22,0,0,1,218.14,123.42Zm-12.24-8.54c-4.51,0-7.78,3.89-7.78,8.54s3.26,8.54,7.78,8.54,7.78-3.89,7.78-8.54S210.41,114.88,205.9,114.88Z"/><path class="cls-1" d="M256.16,135.43v-12c0-2.3,0-4.9-1.15-6.62a4.59,4.59,0,0,0-4.13-1.92c-2.3,0-4.85,1.63-6.62,4a26.77,26.77,0,0,1,.29,4.08v12.48h-4.37v-12c0-2.3,0-5.09-1.3-6.86a4.21,4.21,0,0,0-3.7-1.68c-2.45,0-5,2.21-6.62,4.42v16.13h-4.37v-24h4.37v3.65a9.67,9.67,0,0,1,7.54-4.22,7.5,7.5,0,0,1,6.67,3.31,6.07,6.07,0,0,1,.58,1.1,10,10,0,0,1,8.35-4.42c3.22,0,5.28,1.06,6.62,2.83,1.68,2.21,2.21,5.57,2.21,9.27v12.48Z"/><path class="cls-1" d="M300.27,135.43v-12c0-2.3,0-4.9-1.15-6.62a4.59,4.59,0,0,0-4.13-1.92c-2.3,0-4.85,1.63-6.62,4a26.77,26.77,0,0,1,.29,4.08v12.48h-4.37v-12c0-2.3,0-5.09-1.3-6.86a4.21,4.21,0,0,0-3.7-1.68c-2.45,0-5,2.21-6.62,4.42v16.13H268.3v-24h4.37v3.65a9.67,9.67,0,0,1,7.54-4.22,7.5,7.5,0,0,1,6.67,3.31,6.07,6.07,0,0,1,.58,1.1,10,10,0,0,1,8.35-4.42c3.22,0,5.28,1.06,6.62,2.83,1.68,2.21,2.21,5.57,2.21,9.27v12.48Z"/><path class="cls-1" d="M329.07,131.49a9.16,9.16,0,0,1-7.82,4.51c-3.36,0-5.57-1.15-7-3-1.63-2.21-2.16-5.42-2.16-9.07V111.42h4.37v12c0,2.35.1,4.9,1.25,6.62a4.62,4.62,0,0,0,4.18,1.92c2.78,0,5.42-1.92,7.15-4.61V111.42h4.37v24h-4.37Z"/><path class="cls-1" d="M345.87,111.42v3.94a9.16,9.16,0,0,1,7.82-4.51c3.36,0,5.57,1.15,7,3,1.63,2.21,2.16,5.42,2.16,9.07v12.48h-4.37v-12c0-2.35-.1-4.9-1.25-6.62a4.63,4.63,0,0,0-4.18-1.92c-2.78,0-5.42,1.92-7.15,4.61v15.94H341.5v-24Z"/><path class="cls-1" d="M370.59,106.72v-4.9H375v4.9Zm0,28.71v-24H375v24Z"/><path class="cls-1" d="M387.63,115.26v10.85c0,.62,0,1.15,0,1.87.14,2.54,1,4,3.36,4a6.18,6.18,0,0,0,2.69-.67l1.2,3.5a10.2,10.2,0,0,1-4.46,1.06c-3.36,0-5.42-1.49-6.43-3.74a13.18,13.18,0,0,1-.77-5v-11.9H380v-3.84h3.22v-5.76h4.37v5.76h6.72v3.84Z"/><path class="cls-1" d="M401.45,111.42l6.24,18.19h.1l6.38-18.19h4.75l-13.49,34.8-3.84-1.49,3.79-10-8.79-23.28Z"/></svg>