<svg id="Final" xmlns="http://www.w3.org/2000/svg" viewBox="0 0 1136.55 386.59"><defs><style>.cls-1{fill:#1d1d1b;}</style></defs><title>SCG-CoatofArms-Tagline-Black</title><path d="M111.66,183.47A8.49,8.49,0,0,0,97.09,176a8.62,8.62,0,0,0-1,1.3v0h0c-.12.22-.24.45-.36.67s-.27.57-.4.86a16,16,0,0,0,1.1,14.69l.49.2-.13.36a16,16,0,0,0,1,1.32,7,7,0,0,0,3.46-3.65l0-.08,0-.11.19-.48,0,0c.1-.2.2-.39.3-.57s.34-.55.52-.82a9,9,0,0,1-1.13-3.12,10.42,10.42,0,0,0,3.3.76,12,12,0,0,1,2.19-1.45,6.39,6.39,0,0,0,.17-2.16A9,9,0,0,0,111.66,183.47Z"/><path d="M126.83,117.05a9.47,9.47,0,0,1,4.65-2l.11-.81a23.81,23.81,0,0,0-5.43-.64,15.86,15.86,0,0,0-2.67.19c-4.77.89-7,3-8.06,4.45a25.64,25.64,0,0,1,10.55-.46A9.17,9.17,0,0,1,126.83,117.05Z"/><path d="M105.48,265.14a24.09,24.09,0,0,0,24.09-24.09,24,24,0,0,0-3.47-12.45,45,45,0,0,1-.33,6.42c-.81,6.41-3,10.93-6.36,13.46l0,0-.15.08-.08.06h0a9.84,9.84,0,0,1-2.82,1,15.63,15.63,0,0,1-6.49-.11,12.31,12.31,0,0,1-2.93-1.06,9.09,9.09,0,0,0,1.91,4.29l.37.44,1.9,2.14h0l-2.65-1-.49-.2c-2.37-1-5.89-3.09-7.35-7.09-2.35,3.77-1.37,8.24.27,10.87a16.56,16.56,0,0,1-4-1.49l-.1-.05a8.9,8.9,0,1,1,13.15-8.3,14.42,14.42,0,0,0,6.5.12,15.39,15.39,0,1,0-25.14,12.26,23.92,23.92,0,0,0,12.72,4.62C104.45,265.12,105,265.14,105.48,265.14Z"/><path d="M124.67,228.31c-2.39-.16-6.21-1.61-11.92-6.83.22,3.52-.53,7.33-1.72,8.87a1.83,1.83,0,0,1-.51.44,11.79,11.79,0,0,0,4.65,4.77,4.9,4.9,0,0,0,2.29-3.27,16.13,16.13,0,0,1,2.83,13.4C124.44,240.83,124.77,232.31,124.67,228.31Z"/><path d="M92.65,226.76a9,9,0,0,0,5.28.55,8.51,8.51,0,0,0,.13-7.59,24.89,24.89,0,0,1-1.15-4.4,4.57,4.57,0,0,0,.55.21,16.25,16.25,0,0,1,6.16,3.35,8.76,8.76,0,0,1,1.23,1.42,8.2,8.2,0,0,1,1.31,5.59c0,.15,0,.3-.05.45a18.38,18.38,0,0,1-1.31,4.59,9.48,9.48,0,0,0,3.44-.52,6.16,6.16,0,0,0,1.49-.79l.19-.13c1.49-1.93,2.35-9.61.07-12.73,3.62,3.83,9.88,9.72,14.63,10.12l.36,0h.14a5,5,0,0,0,.91-.09,4.2,4.2,0,0,0,1.55-.6.25.25,0,0,0,.08-.26,4.69,4.69,0,0,0,0-2.7,7.52,7.52,0,0,0-3.06-4l-.38-.25a9,9,0,0,0,2.92-2,8.48,8.48,0,0,0-7.61-7.31l0,0c-2.42-.21-4.81-.25-6.87-.52h.12a7.72,7.72,0,0,0,7.38-4.92,9.22,9.22,0,0,0-1.13-1.41l.42-.14c4.81-1.81,7.43-5.47,7-9.13a15.68,15.68,0,0,0-2-.79l-.09,0q-.65-.21-1.32-.36h0c-.41-.1-.83-.17-1.25-.24l-.15,0c-.41-.06-.81-.11-1.23-.14l-.27,0c-.38,0-.77,0-1.16,0h-.21l-.65,0-.86.06-.41,0a17.7,17.7,0,0,0-4.31,1c-.3.11-.6.24-.89.36a6.85,6.85,0,0,0-1-7.26,10.33,10.33,0,0,0-7.57,5.08,9.52,9.52,0,0,0-.44.88h0l-.06.13,0,.08c-3.1,7.41-13.21,5.33-13.21,5.33s4.62.21,5.79-3.11c-9.64-4-6.63-12.52-3.87-18.58l-.41-.44a18.6,18.6,0,0,1-3.94-7.12,10.26,10.26,0,0,1-5.48,2.75c-7.92,12.2-3.7,21.32-1.54,28.39,1.86,6.09-.57,13.34-1.8,16.37a9.29,9.29,0,0,0-.63,1.44,10.33,10.33,0,0,0,1.29,9,6.3,6.3,0,0,0,3.76-1.27A8.94,8.94,0,0,0,89.3,234,8.5,8.5,0,0,0,92.65,226.76Zm1.87-4.26A6.91,6.91,0,0,1,92.28,219a13.52,13.52,0,0,1-.26-4.12,14.74,14.74,0,0,0-.3-3.94A9.43,9.43,0,0,0,90,207.4l.07-.06a9.34,9.34,0,0,1,2.13,3.48,15.31,15.31,0,0,1,.61,4.06,27.65,27.65,0,0,0,.42,3.92,12.1,12.1,0,0,0,1.39,3.65Zm20.19-18a11.2,11.2,0,0,0-3.92-.13c-1.31.12-2.64.29-4,.35a13.81,13.81,0,0,1-4.06-.23,9.51,9.51,0,0,1-3.67-1.74l0-.08a28.24,28.24,0,0,0,3.81.89,30,30,0,0,0,3.86.4c1.31,0,2.63,0,4-.07a10.92,10.92,0,0,1,4,.51Zm-12.32-7a13.36,13.36,0,0,0,1.8-1.75c.54-.67,1-1.44,1.65-2.11a4.67,4.67,0,0,1,2.34-1.35l0,.09-.59.29-.54.36a4.86,4.86,0,0,0-.88.92c-.52.68-.9,1.47-1.39,2.24a6.43,6.43,0,0,1-1.85,2.08,5.84,5.84,0,0,1-2.61.9l0-.09C101,198.53,101.76,198.08,102.39,197.53ZM85.25,209.69a14.9,14.9,0,0,1-1.89,3.61,34.25,34.25,0,0,0-2,3.4,7.14,7.14,0,0,0-.85,3.78h-.09a7.2,7.2,0,0,1,.51-4,34.68,34.68,0,0,1,1.81-3.6,36,36,0,0,0,1.66-3.54,12.06,12.06,0,0,0,.88-3.77h.09A6.83,6.83,0,0,1,85.25,209.69Zm3.18,3.21c-.21,2.34-.54,4.65-.86,7-.16,1.16-.33,2.31-.44,3.47-.06.58-.1,1.16-.11,1.74a4,4,0,0,0,.26,1.68l-.08,0a4.13,4.13,0,0,1-.37-1.73c0-.59,0-1.18,0-1.76.05-1.17.16-2.34.26-3.5.22-2.33.45-4.65.57-7,.06-1.16.09-2.32.06-3.47,0-.58,0-1.15-.05-1.73s-.06-1.15-.1-1.72a16.17,16.17,0,0,0-1.07-5,18.18,18.18,0,0,1-2.19-2.8,11.21,11.21,0,0,1-1.87-5.92h.14a12.86,12.86,0,0,0,2.54,5.36,21,21,0,0,0,2,2.24l.42.15.49.17.51.13a9.11,9.11,0,0,0,1,.21,26.25,26.25,0,0,0,4.17.33,66.09,66.09,0,0,0,8.43-.5c2.8-.37,5.6-.87,8.37-1.49s5.53-1.28,8.26-2.08l0,.09c-2.69.92-5.42,1.72-8.18,2.45s-5.55,1.31-8.37,1.77a41.52,41.52,0,0,1-8.56.7,20,20,0,0,1-4.29-.63,9.64,9.64,0,0,1-1-.33l-.36-.13c.43.38.86.75,1.31,1.1l1.19.92,1.22.88c.82.57,1.65,1.14,2.51,1.67a59.86,59.86,0,0,0,5.27,3,87.74,87.74,0,0,0,11.24,4.67,64.25,64.25,0,0,0,11.82,3v.14a64.65,64.65,0,0,1-12-2.48,88.65,88.65,0,0,1-11.52-4.33,44.85,44.85,0,0,1-10.6-6.4q-.49-.43-1-.88c.05.12.11.24.16.36a15.31,15.31,0,0,1,.84,3.48A32.79,32.79,0,0,1,88.43,212.9Z"/><path d="M122.29,145.53a17.53,17.53,0,0,0-7.21-1.53,6.76,6.76,0,0,0,.75-4.11,6.4,6.4,0,0,0-7.1.33c-3.12,1.17-6-.19-8-2.11-.38-.06-.76-.13-1.13-.22A7.8,7.8,0,0,1,97.41,143l-.49.5-.38,0,0,.07a18.62,18.62,0,0,0,2.22,3.54,40.86,40.86,0,0,0,6.13,5.86,33,33,0,0,1,3.23,3,17.35,17.35,0,0,1,2.55,3.62,18.55,18.55,0,0,1,1.52,4.13,27.3,27.3,0,0,1,.61,4.32h-.14a30.27,30.27,0,0,0-.89-4.22,18,18,0,0,0-1.71-3.9,16.53,16.53,0,0,0-2.6-3.33,32.06,32.06,0,0,0-3.27-2.75c-1.15-.87-2.34-1.71-3.48-2.65a16.88,16.88,0,0,1-3.08-3.25,15,15,0,0,1-2.19-4.63A9.33,9.33,0,0,1,92.29,142a32.71,32.71,0,0,1,.11,5.11c0,.47-.09.94-.16,1.41a12.48,12.48,0,0,1,1.54,3.24,14.83,14.83,0,0,1,.48,5.52c-.12,1.84-.45,3.63-.73,5.41a20.64,20.64,0,0,0-.29,2.67,6.77,6.77,0,0,0,.38,2.64l-.09,0a7,7,0,0,1-.57-2.67,21,21,0,0,1,.11-2.73c.18-1.81.42-3.6.44-5.38a20.78,20.78,0,0,0-.64-5.23,20.11,20.11,0,0,0-.8-2.52h0a25.15,25.15,0,0,1-2.71,7c-.39.71-.82,1.44-1.28,2.16A73.43,73.43,0,0,1,79,169.84a9.08,9.08,0,0,0,3.65-.45,8.92,8.92,0,0,0,5-4.32,17.68,17.68,0,0,0,.57,2.79,17.26,17.26,0,0,0,3.68,6.7c.21.24.43.47.66.69.23-.05.45-.11.67-.19,3.2-1,5.59-4.23,6.08-8.61a16.39,16.39,0,0,0,2.8,3.37,5.35,5.35,0,0,0,3.11-2.8,10.69,10.69,0,0,0,.88-6c0-.39-.1-.78-.18-1.17a17.39,17.39,0,0,1,1.46,4.52,23.9,23.9,0,0,0,1,3.86,17.84,17.84,0,0,0,4.57,7.31,5,5,0,0,0,2.29-1.56,18.71,18.71,0,0,1,3.52,9,8.9,8.9,0,0,1-1.6,7.54c.58,0,1.16-.08,1.75-.08a19.57,19.57,0,0,1,5.91.9,16,16,0,0,0,1.26-5.69c0-.15,0-.31,0-.46s0-.25,0-.38,0-.27,0-.4a25.94,25.94,0,0,0-6-16,16.88,16.88,0,0,0,5.49-.47c.77-2.83-1.13-6.06-5.2-8.12a16.71,16.71,0,0,0-3.57-1.3,15.6,15.6,0,0,0,2.74-.59c.45-2-.41-4.12-2.38-5.86C120.63,150.65,122.53,148.12,122.29,145.53Zm-19.78,18.25h-.09a7.9,7.9,0,0,0-1-3.92,33,33,0,0,0-2.14-3.51c-.77-1.15-1.61-2.26-2.27-3.49A22.08,22.08,0,0,1,95.34,149l.08,0c.89,1.1,1.64,2.25,2.41,3.4s1.4,2.38,2.1,3.58a33.47,33.47,0,0,1,1.93,3.72A8.19,8.19,0,0,1,102.51,163.78Zm7.67-5.58,0,0,.1,0Zm5.8-10a9.25,9.25,0,0,0-3.81.08,18.7,18.7,0,0,1-3.93.31,8.08,8.08,0,0,1-3.88-1.1l-.83-.58c-.26-.22-.5-.45-.74-.69s-.24-.23-.35-.35l-.31-.39c-.2-.27-.4-.53-.58-.81l.07-.06a26.17,26.17,0,0,0,3.19,2.07,11,11,0,0,0,3.48,1.17,18.12,18.12,0,0,0,3.81,0,9.11,9.11,0,0,1,3.89.3Z"/><path d="M78.72,168.09l1.06-1.14.15-.16.95-1.05.12-.14,1-1.1.14-.16q.95-1.12,1.77-2.17l.08-.1.8-1.05h0l.77-1.06h0c.34-.48.66-.95,1-1.4l.4-.62c.46-.72.87-1.42,1.23-2.09.51-.93.93-1.8,1.28-2.63.26-.62.49-1.21.68-1.78s.34-1.11.47-1.62q.12-.52.21-1,0-.24.08-.48.07-.47.11-.91,0-.22,0-.43a39.58,39.58,0,0,0-.79-9.52,7.91,7.91,0,0,0,1.34,2,8,8,0,0,0,.68.66l.36.3A8,8,0,0,0,95,141.71a7.77,7.77,0,0,0,.89.22l.47.07a6.31,6.31,0,0,0,1.46-2.38,6.51,6.51,0,0,0,.21-.78,6.62,6.62,0,0,0,.12-.81,6.74,6.74,0,0,0,0-.83,6.89,6.89,0,0,0-.09-.84q0-.21-.08-.42h0l.64.22.21.06.35.1.09,0,.25.06.41.1.28.06.39.08.29,0,.38.06.3,0,.37,0,.3,0,.37,0H104l.34,0,.3,0,.34,0,.29,0,.34-.06.27,0,.35-.08.25-.06.35-.1.23-.07.37-.14.19-.07.54-.24c-.9-2.28-1-5-2.7-6.79-1.18-1.25-2.22-2.15-2.66-3.31a3.49,3.49,0,0,1-.21-1.55,10.71,10.71,0,0,0,.84.89l.5.45.17.14.37.29.2.15.37.26.21.14.42.26.18.11.61.34.11.06.52.26.22.1.43.18.25.1.43.16.24.08.5.15.17,0,.67.16.17,0,.51.09.24,0,.44.05.25,0,.44,0H113l.52-.05.16,0,.6-.11c-.33-2.24.15-4.74-1-6.69a2.41,2.41,0,0,1-.26-1.32,4.8,4.8,0,0,1,.26-1.3q.08-.23.18-.47a9.65,9.65,0,0,1,3.74-4.15,13.77,13.77,0,0,1,1.42-.8,17.93,17.93,0,0,1,4.6-1.47h.06l.13,0h0l.22,0h0l.29,0H124l.37,0h.07l.43,0h0l.51,0h1.84l.34,0h.2l.41,0h.15l.58.06.16,0,.45.06.23,0,.4.06.25,0,.4.07.26.05.44.09.24.05.57.14.12,0,.7.19.21.06.51.16.27.09.47.16.29.11.47.18.29.11.51.21.25.11.76.35h0c-.34,0-.68,0-1,0h-.36l-.69,0-.36,0-.68.12-.31.06a9.12,9.12,0,0,0-.93.27,4.27,4.27,0,0,0,0,1.12h-.81l-.38,0-.31,0-.37.07-.3.07-.37.11-.28.09-.37.14-.26.11-.37.18-.24.12-.38.23-.19.12q-.28.18-.54.39t-.48.41A7.3,7.3,0,0,0,126,120a5.94,5.94,0,0,0,.69,1.21,6.3,6.3,0,0,0,1,1,8.46,8.46,0,0,0-2.78,2.21,8.54,8.54,0,0,0-.59.82l-.26.43a8.53,8.53,0,0,0-.44.91q-.1.23-.18.47a8.48,8.48,0,0,0-.27,1q-.05.25-.09.5c.19.2.38.39.59.58l.14.12c.2.18.41.35.63.5l.09.06q.3.21.62.4l.14.09q.35.2.72.36l.14.06q.33.14.68.26l.12,0c.26.08.52.15.78.21l.18,0c.26.05.52.1.78.12h.05c.27,0,.55,0,.83,0h.5l.36,0,.22,0,.39-.05.19,0,.58-.12a8.9,8.9,0,0,0,3.1-1.43,8,8,0,0,0-.57,1.93,7.53,7.53,0,0,0-.09,1,7.14,7.14,0,0,0,0,1,5.94,5.94,0,0,0,.63.29l.1,0a6.05,6.05,0,0,0,.63.2l.12,0a6.21,6.21,0,0,0,.66.12h.09a6.39,6.39,0,0,0,.67,0h.07l.49,0h.08l.41,0,.17,0,.32-.06.19,0,.3-.08.2-.07.3-.11.2-.08.3-.14.19-.09.32-.18.16-.09.47-.3a2.81,2.81,0,0,1,.42-.23l.15-.06.32-.11.2,0,.32-.06.23,0,.33,0h.51l.34,0,.22,0,.39.07.19,0,.6.15a15.75,15.75,0,0,1,4,1.85,13.49,13.49,0,0,1,5.34,1.54h0a1.68,1.68,0,0,0,.21-.18l.11-.12.09-.11.12-.17.06-.1.12-.22,0-.08a6,6,0,0,0,.41-1.73v-.07q0-.31,0-.65h0c.16-3.51-2.3-7.24-3.48-9A38.09,38.09,0,0,0,150,121c-.24-.3-.68-.71-.93-1-.51-.59-1-1-1.57-1.59a36.08,36.08,0,0,0-6.32-5.17,35.7,35.7,0,0,0-19.38-5.68q-1.83,0-3.62.18h0a19,19,0,0,0-4.89,1.65,14.25,14.25,0,0,0-4.14,3.08,8.83,8.83,0,0,0-2.3,4.58,7.54,7.54,0,0,0,1.1,5.06,7.72,7.72,0,0,1-1.46-5.1,9.36,9.36,0,0,1,2.11-5,14.69,14.69,0,0,1,3.48-3.12l-1,.27q-.84.26-1.67.56a35.82,35.82,0,0,0-9.14,5l-.06,0a18.75,18.75,0,0,0-2,4.33,13.41,13.41,0,0,0-.61,5A12.31,12.31,0,0,0,99,128.85a12.73,12.73,0,0,0,3.25,4,12.85,12.85,0,0,1-5.35-8.74,14.3,14.3,0,0,1,.28-5.32,17.66,17.66,0,0,1,.64-2.06l-.18.15q-1.28,1.16-2.44,2.44a35.77,35.77,0,0,0-9.33,24.14v0A70.34,70.34,0,0,1,82.83,158a46.55,46.55,0,0,1-5.5,11.51l1.16-1.21Zm14.39-40.55h0a17.37,17.37,0,0,0,.06,2.48c.07.82.18,1.64.32,2.45s.36,1.61.54,2.41a24.63,24.63,0,0,0,.61,2.39l0,0a7.65,7.65,0,0,1-1-2.29,15.24,15.24,0,0,1-.45-2.47A20.11,20.11,0,0,1,93.12,127.54Z"/><path d="M288.06,178.84c-.12-.29-.25-.58-.4-.86s-.23-.45-.36-.67h0v0a8.62,8.62,0,0,0-1-1.3,8.49,8.49,0,0,0-14.57,7.45,9,9,0,0,0,4.73.25,6.39,6.39,0,0,0,.17,2.16,12,12,0,0,1,2.19,1.45,10.42,10.42,0,0,0,3.3-.76,9,9,0,0,1-1.13,3.12c.18.27.36.54.52.82s.2.37.3.57l0,0,.19.48,0,.11,0,.08a7,7,0,0,0,3.46,3.65,16,16,0,0,0,1-1.32l-.13-.36.49-.2A16,16,0,0,0,288.06,178.84Z"/><path d="M268,118.29c-1-1.44-3.29-3.56-8.06-4.45a15.86,15.86,0,0,0-2.67-.19,23.81,23.81,0,0,0-5.43.64l.11.81a9.47,9.47,0,0,1,4.65,2,9.17,9.17,0,0,1,.85.78,25.64,25.64,0,0,1,10.55.46Z"/><path d="M282.41,233.19a15.38,15.38,0,0,0-15.38,15,14.42,14.42,0,0,0,6.5-.12,8.9,8.9,0,1,1,13.15,8.3l-.1.05a16.56,16.56,0,0,1-4,1.49c1.64-2.63,2.62-7.1.27-10.87-1.47,4-5,6.09-7.35,7.09l-.49.2-2.65,1h0l1.9-2.14.37-.44a9.09,9.09,0,0,0,1.91-4.29,12.31,12.31,0,0,1-2.93,1.06,15.63,15.63,0,0,1-6.49.11,9.84,9.84,0,0,1-2.82-1h0l-.08-.06-.15-.08,0,0c-3.4-2.53-5.54-7.06-6.36-13.46a45,45,0,0,1-.33-6.42,24.09,24.09,0,0,0,16.23,36.14,24.2,24.2,0,0,0,4.39.41c.52,0,1,0,1.53-.05a23.92,23.92,0,0,0,12.72-4.62,15.39,15.39,0,0,0-9.76-27.28Z"/><path d="M258.73,228.31c-.1,4,.23,12.52,4.36,17.39a16.13,16.13,0,0,1,2.83-13.4,4.9,4.9,0,0,0,2.29,3.27,11.79,11.79,0,0,0,4.65-4.77,1.83,1.83,0,0,1-.51-.44c-1.18-1.54-1.94-5.35-1.72-8.87C264.95,226.71,261.12,228.16,258.73,228.31Z"/><path d="M305.29,215.9c-1.22-3-3.65-10.28-1.8-16.37,2.16-7.07,6.38-16.19-1.54-28.39a10.26,10.26,0,0,1-5.48-2.75,18.6,18.6,0,0,1-3.94,7.12l-.41.44c2.76,6.06,5.77,14.63-3.87,18.58,1.17,3.31,5.79,3.11,5.79,3.11s-10.11,2.07-13.21-5.33l0-.08-.06-.13h0a9.52,9.52,0,0,0-.44-.88,10.33,10.33,0,0,0-7.57-5.08,6.85,6.85,0,0,0-1,7.26c-.29-.13-.58-.25-.89-.36a17.7,17.7,0,0,0-4.31-1l-.41,0-.86-.06-.65,0h-.21c-.39,0-.77,0-1.16,0l-.27,0c-.41,0-.82.08-1.23.14l-.15,0c-.42.07-.84.14-1.25.24h0q-.67.16-1.32.36l-.09,0a15.68,15.68,0,0,0-2,.79c-.41,3.65,2.21,7.32,7,9.13l.42.14a9.22,9.22,0,0,0-1.13,1.41,7.72,7.72,0,0,0,7.38,4.92h.12c-2.06.28-4.45.31-6.87.52l0,0a8.48,8.48,0,0,0-7.61,7.31,9,9,0,0,0,2.92,2l-.38.25a7.52,7.52,0,0,0-3.06,4,4.69,4.69,0,0,0,0,2.7.25.25,0,0,0,.08.26,4.2,4.2,0,0,0,1.55.6,5,5,0,0,0,.91.09h.14l.36,0c4.75-.4,11-6.3,14.63-10.12-2.28,3.12-1.42,10.8.07,12.73l.19.13a6.16,6.16,0,0,0,1.49.79,9.48,9.48,0,0,0,3.44.52,18.38,18.38,0,0,1-1.31-4.59c0-.15,0-.3-.05-.45a8.2,8.2,0,0,1,1.31-5.59,8.76,8.76,0,0,1,1.23-1.42,16.25,16.25,0,0,1,6.16-3.35,4.57,4.57,0,0,0,.55-.21,24.89,24.89,0,0,1-1.15,4.4,8.51,8.51,0,0,0,.13,7.59,9,9,0,0,0,5.28-.55A8.5,8.5,0,0,0,294.1,234a8.94,8.94,0,0,0,6.77-8.92,6.3,6.3,0,0,0,3.76,1.27,10.33,10.33,0,0,0,1.29-9A9.29,9.29,0,0,0,305.29,215.9Zm-30.06-23.58a4.67,4.67,0,0,1,2.34,1.35c.64.67,1.11,1.44,1.65,2.11a13.36,13.36,0,0,0,1.8,1.75c.63.54,1.35,1,2.08,1.57l0,.09a5.84,5.84,0,0,1-2.61-.9,6.43,6.43,0,0,1-1.85-2.08c-.49-.77-.87-1.56-1.39-2.24a4.86,4.86,0,0,0-.88-.92l-.54-.36-.59-.29Zm-6.54,12.18,0-.09a10.92,10.92,0,0,1,4-.51c1.33,0,2.66.1,4,.07a30,30,0,0,0,3.86-.4,28.24,28.24,0,0,0,3.81-.89l0,.08a9.51,9.51,0,0,1-3.67,1.74,13.81,13.81,0,0,1-4.06.23c-1.34-.07-2.67-.23-4-.35A11.2,11.2,0,0,0,268.69,204.5Zm23,6.45a14.74,14.74,0,0,0-.3,3.94,13.52,13.52,0,0,1-.26,4.12,6.91,6.91,0,0,1-2.24,3.49l-.07-.06a12.1,12.1,0,0,0,1.39-3.65,27.65,27.65,0,0,0,.42-3.92,15.31,15.31,0,0,1,.61-4.06,9.34,9.34,0,0,1,2.13-3.48l.07.06A9.43,9.43,0,0,0,291.68,210.95Zm4,1.9c.12,2.32.35,4.64.57,7,.1,1.16.2,2.33.26,3.5,0,.58,0,1.17,0,1.76a4.13,4.13,0,0,1-.37,1.73l-.08,0a4,4,0,0,0,.26-1.68c0-.58,0-1.16-.11-1.74-.12-1.16-.28-2.31-.44-3.47-.31-2.31-.64-4.63-.86-7a32.79,32.79,0,0,1-.09-7.07,15.31,15.31,0,0,1,.84-3.48c0-.12.11-.24.16-.36q-.47.45-1,.88a44.85,44.85,0,0,1-10.6,6.4,88.65,88.65,0,0,1-11.52,4.33,64.65,64.65,0,0,1-12,2.48v-.14a64.25,64.25,0,0,0,11.82-3,87.74,87.74,0,0,0,11.24-4.67,59.86,59.86,0,0,0,5.27-3c.86-.53,1.68-1.1,2.51-1.67l1.22-.88,1.19-.92c.45-.36.88-.73,1.31-1.1l-.36.13a9.64,9.64,0,0,1-1,.33,20,20,0,0,1-4.29.63,41.52,41.52,0,0,1-8.56-.7c-2.82-.47-5.61-1.07-8.37-1.77s-5.49-1.52-8.18-2.45l0-.09c2.72.8,5.49,1.48,8.26,2.08s5.56,1.12,8.37,1.49a66.09,66.09,0,0,0,8.43.5,26.25,26.25,0,0,0,4.17-.33,9.11,9.11,0,0,0,1-.21l.51-.13.49-.17.42-.15a21,21,0,0,0,2-2.24,12.86,12.86,0,0,0,2.54-5.36h.14a11.21,11.21,0,0,1-1.87,5.92,18.18,18.18,0,0,1-2.19,2.8,16.17,16.17,0,0,0-1.07,5c0,.57-.09,1.14-.1,1.72s-.05,1.15-.05,1.73C295.64,210.53,295.67,211.69,295.73,212.85Zm7.3,7.66h-.09a7.14,7.14,0,0,0-.85-3.78,34.25,34.25,0,0,0-2-3.4,14.9,14.9,0,0,1-1.89-3.61,6.83,6.83,0,0,1-.08-4.09h.09a12.06,12.06,0,0,0,.88,3.77,36,36,0,0,0,1.66,3.54,34.68,34.68,0,0,1,1.81,3.6A7.2,7.2,0,0,1,303,220.5Z"/><path d="M290.82,175.25c.22-.22.44-.45.66-.69a17.26,17.26,0,0,0,3.68-6.7,17.68,17.68,0,0,0,.57-2.79,9,9,0,0,0,8.67,4.77,73.43,73.43,0,0,1-9.08-11.18c-.46-.72-.89-1.45-1.28-2.16a25.15,25.15,0,0,1-2.71-7h0a20.11,20.11,0,0,0-.8,2.52,20.78,20.78,0,0,0-.64,5.23c0,1.78.26,3.57.44,5.38a21,21,0,0,1,.11,2.73,7,7,0,0,1-.57,2.67l-.09,0a6.77,6.77,0,0,0,.38-2.64,20.64,20.64,0,0,0-.29-2.67c-.27-1.78-.61-3.57-.73-5.41a14.83,14.83,0,0,1,.48-5.52,12.48,12.48,0,0,1,1.54-3.24c-.07-.47-.13-.94-.16-1.41a32.71,32.71,0,0,1,.11-5.11,9.33,9.33,0,0,1-3.18,1.32,15,15,0,0,1-2.19,4.63,16.88,16.88,0,0,1-3.08,3.25c-1.15.94-2.33,1.78-3.48,2.65a32.06,32.06,0,0,0-3.27,2.75,16.53,16.53,0,0,0-2.6,3.33,18,18,0,0,0-1.71,3.9,30.27,30.27,0,0,0-.89,4.22h-.14a27.3,27.3,0,0,1,.61-4.32,18.55,18.55,0,0,1,1.52-4.13,17.35,17.35,0,0,1,2.55-3.62,33,33,0,0,1,3.23-3,40.86,40.86,0,0,0,6.13-5.86,18.62,18.62,0,0,0,2.22-3.54l0-.07-.38,0L286,143a7.8,7.8,0,0,1-2.21-5.11c-.38.09-.75.16-1.13.22-2,1.93-4.87,3.28-8,2.11a6.4,6.4,0,0,0-7.1-.33,6.76,6.76,0,0,0,.75,4.11,17.53,17.53,0,0,0-7.21,1.53c-.23,2.59,1.66,5.12,5.14,6.57-2,1.74-2.82,3.87-2.38,5.86a15.6,15.6,0,0,0,2.74.59,16.71,16.71,0,0,0-3.57,1.3c-4.06,2.06-6,5.29-5.2,8.12a16.88,16.88,0,0,0,5.49.47,25.94,25.94,0,0,0-6,16c0,.13,0,.27,0,.4s0,.25,0,.38,0,.31,0,.46a16,16,0,0,0,1.26,5.69,19.57,19.57,0,0,1,5.91-.9c.59,0,1.17,0,1.75.08a9,9,0,0,1-1.6-7.54,18.71,18.71,0,0,1,3.52-9,5,5,0,0,0,2.29,1.56,17.84,17.84,0,0,0,4.57-7.31,23.9,23.9,0,0,0,1-3.86,17.39,17.39,0,0,1,1.46-4.52c-.07.39-.13.78-.18,1.17a10.69,10.69,0,0,0,.88,6,5.35,5.35,0,0,0,3.11,2.8,16.39,16.39,0,0,0,2.8-3.37c.49,4.37,2.87,7.56,6.08,8.61C290.37,175.14,290.59,175.2,290.82,175.25Zm-17.61-17h-.06l.1,0Zm-5.8-10,0-.09a9.11,9.11,0,0,1,3.89-.3,18.12,18.12,0,0,0,3.81,0,11,11,0,0,0,3.48-1.17,26.17,26.17,0,0,0,3.19-2.07l.07.06c-.18.28-.38.54-.58.81l-.31.39c-.11.13-.23.24-.35.35s-.48.47-.74.69l-.83.58a8.08,8.08,0,0,1-3.88,1.1,18.7,18.7,0,0,1-3.93-.31A9.25,9.25,0,0,0,267.41,148.24Zm19,4.61c-.66,1.23-1.5,2.34-2.27,3.49a33,33,0,0,0-2.14,3.51,7.9,7.9,0,0,0-1,3.92h-.09a8.19,8.19,0,0,1,.66-4.12,33.47,33.47,0,0,1,1.93-3.72c.7-1.2,1.33-2.43,2.1-3.58s1.52-2.3,2.41-3.4l.08,0A22.08,22.08,0,0,1,286.39,152.85Z"/><path d="M216.2,128.81a24.43,24.43,0,0,0,.58,5.11,8.07,8.07,0,0,0,2.4,4.28,6.67,6.67,0,0,0,4.71,1.44,8.33,8.33,0,0,0,2.51-.5,6.32,6.32,0,0,0,2.19-1.3c-1.4-.4-2.53-1.75-2.67-4.95-.22-4.92,3.94-10,4.29-10.82s.23-2.69,1.3-3.77l.14-.13.12-.11.07-.07c.17-.17.34-.34.49-.52,2.14-2.44,2.66-5.33,1.63-7.57a9.54,9.54,0,0,0-3.7.34,10.25,10.25,0,0,0,2.32-2.51,7.54,7.54,0,0,0,.46-8.1,9.8,9.8,0,0,0-8.29,4.45c-3.86,5.69-6.47,8.56-8.7,25.28,0-.19.06-.37.09-.55Z"/><path d="M233.36,121a38.09,38.09,0,0,0-2.57,2.82c-1.18,1.8-3.64,5.53-3.48,9h0q0,.35,0,.65v.07a6,6,0,0,0,.41,1.73l0,.08.12.22.06.1.12.17.09.11.11.12a1.68,1.68,0,0,0,.21.18h0a13.49,13.49,0,0,1,5.34-1.54,15.75,15.75,0,0,1,4-1.85l.6-.15.19,0,.39-.07.22,0,.34,0h.51l.33,0,.23,0,.32.06.2,0,.32.11.15.06a2.81,2.81,0,0,1,.42.23l.47.3.16.09.32.18.19.09.3.14.2.08.3.11.2.07.3.08.19,0,.32.06.17,0,.41,0h.08l.49,0h.07a6.39,6.39,0,0,0,.67,0H247a6.21,6.21,0,0,0,.66-.12l.12,0a6.05,6.05,0,0,0,.63-.2l.1,0a5.94,5.94,0,0,0,.63-.29,7.14,7.14,0,0,0,0-1,7.53,7.53,0,0,0-.09-1,8,8,0,0,0-.57-1.93,8.9,8.9,0,0,0,3.1,1.43l.58.12.19,0,.39.05.22,0,.36,0h.5c.28,0,.56,0,.83,0h.05c.26,0,.52-.07.78-.12l.18,0c.26-.06.53-.13.78-.21l.12,0q.34-.12.68-.26l.14-.06q.37-.17.72-.36l.14-.09q.32-.19.62-.4l.09-.06c.22-.16.43-.33.63-.5l.14-.12c.2-.18.4-.37.59-.58q0-.25-.09-.5a8.48,8.48,0,0,0-.27-1q-.08-.24-.18-.47a8.53,8.53,0,0,0-.44-.91l-.26-.43a8.52,8.52,0,0,0-1.28-1.56,8.44,8.44,0,0,0-2.09-1.47,6.3,6.3,0,0,0,1-1,5.94,5.94,0,0,0,.69-1.21,7.3,7.3,0,0,0-1.21-1.45q-.23-.22-.48-.41t-.54-.39l-.19-.12-.38-.23-.24-.12-.37-.18-.26-.11-.37-.14-.28-.09-.37-.11-.3-.07-.37-.07-.31,0-.38,0h-.81a4.27,4.27,0,0,0,0-1.12,9.12,9.12,0,0,0-.93-.27l-.31-.06-.68-.12-.36,0-.69,0h-.36c-.34,0-.67,0-1,0h0l.76-.35.25-.11.51-.21L248,114l.47-.18.29-.11.47-.16.27-.09.51-.16.21-.06.7-.19.12,0,.57-.14.24-.05.44-.09.26-.05.4-.07.25,0,.4-.06.23,0,.45-.06.16,0,.58-.06h.15l.41,0h.2l.34,0H258l.51,0h0l.43,0H259l.37,0h.07l.29,0h0l.22,0h0l.13,0h.06a17.93,17.93,0,0,1,4.6,1.47,13.77,13.77,0,0,1,1.42.8,9.65,9.65,0,0,1,3.74,4.15q.1.24.18.47a4.8,4.8,0,0,1,.26,1.3,2.41,2.41,0,0,1-.26,1.32c-1.13,1.94-.65,4.44-1,6.69l.6.11.16,0,.52.05h.94l.44,0,.25,0,.44-.05.24,0,.51-.09.17,0,.67-.16.17,0,.5-.15.24-.08.43-.16.25-.1.43-.18.22-.1.52-.26.11-.06.61-.34.18-.11.42-.26.21-.14.37-.26.2-.15.37-.29.17-.14.5-.45a10.71,10.71,0,0,0,.84-.89,3.49,3.49,0,0,1-.21,1.55c-.44,1.16-1.48,2.06-2.66,3.31-1.67,1.76-1.79,4.51-2.7,6.79l.54.24.19.07.37.14.23.07.35.1.25.06.35.08.27,0,.34.06.29,0,.34,0,.3,0,.34,0h1.32l.37,0,.3,0,.37,0,.3,0,.38-.06.29,0,.39-.08.28-.06.41-.1.25-.06.09,0,.35-.1.21-.06.64-.22h0q0,.21-.08.42a6.89,6.89,0,0,0-.09.84,6.74,6.74,0,0,0,0,.83,6.62,6.62,0,0,0,.12.81,6.51,6.51,0,0,0,.21.78A6.31,6.31,0,0,0,287,142l.47-.07a7.77,7.77,0,0,0,.89-.22,8,8,0,0,0,2.46-1.28l.36-.3a8,8,0,0,0,.68-.66,7.91,7.91,0,0,0,1.34-2,39.58,39.58,0,0,0-.79,9.52q0,.21,0,.43,0,.44.11.91,0,.23.08.48.09.48.21,1c.12.52.28,1.06.47,1.62s.41,1.16.68,1.78c.35.82.78,1.7,1.28,2.63.37.67.78,1.36,1.23,2.09l.4.62c.3.46.62.93,1,1.4h0l.77,1.06h0l.8,1.05.08.1q.82,1.05,1.77,2.17l.14.16,1,1.1.12.14.95,1.05.15.16,1.06,1.14.23.25,1.16,1.21a46.55,46.55,0,0,1-5.5-11.51,70.34,70.34,0,0,1-3.09-14.57v0a35.77,35.77,0,0,0-9.33-24.14q-1.16-1.28-2.44-2.44l-.18-.15a17.66,17.66,0,0,1,.64,2.06,14.3,14.3,0,0,1,.28,5.32,12.85,12.85,0,0,1-5.35,8.74,12.73,12.73,0,0,0,3.25-4,12.31,12.31,0,0,0,1.39-4.85,13.41,13.41,0,0,0-.61-5,18.75,18.75,0,0,0-2-4.33l-.06,0a35.82,35.82,0,0,0-9.14-5q-.82-.3-1.67-.56l-1-.27a14.69,14.69,0,0,1,3.48,3.12,9.36,9.36,0,0,1,2.11,5,7.72,7.72,0,0,1-1.46,5.1,7.54,7.54,0,0,0,1.1-5.06,8.83,8.83,0,0,0-2.3-4.58,14.25,14.25,0,0,0-4.14-3.08,19,19,0,0,0-4.89-1.65h0q-1.79-.18-3.62-.18a35.7,35.7,0,0,0-19.38,5.68,36.08,36.08,0,0,0-6.32,5.17c-.54.56-1.07,1-1.57,1.59C234,120.26,233.61,120.67,233.36,121Zm56,13.9c.17-.8.39-1.6.54-2.41s.26-1.63.32-2.45a17.37,17.37,0,0,0,.06-2.48h0a20.11,20.11,0,0,1-.06,5,15.24,15.24,0,0,1-.45,2.47,7.65,7.65,0,0,1-1,2.29l0,0A24.63,24.63,0,0,0,289.31,134.87Z"/><path d="M156.92,164.46l-.64-.47h0a8.82,8.82,0,0,0-1.08-.61,9.31,9.31,0,0,0-9.38.82,7.51,7.51,0,0,0,1.8,4.69l0,0-.29.13-1.2.68a9.4,9.4,0,0,0-2.35,2.22h30c0-.52.09-1.05.16-1.58C167.38,171.54,159.23,166.12,156.92,164.46Z"/><path d="M164.62,129.78l-.85-2.38,3.51,1.31c-2.22-16.14-4.81-19-8.61-24.64a9.8,9.8,0,0,0-8.29-4.45,7.54,7.54,0,0,0,.46,8.1,10.25,10.25,0,0,0,2.32,2.51,9.54,9.54,0,0,0-3.7-.34c-1,2.23-.51,5.13,1.63,7.57.16.18.32.35.49.52l.07.07.12.11.14.13c1.07,1.09,1,2.93,1.3,3.77s4.51,5.9,4.29,10.82c-.14,3.2-1.27,4.55-2.67,4.95a6.32,6.32,0,0,0,2.19,1.3,8.33,8.33,0,0,0,2.51.5,6.67,6.67,0,0,0,4.71-1.44,7.35,7.35,0,0,0,2.16-3.46l-1.77-5Z"/><path d="M164.58,138.64a7.13,7.13,0,0,1-5.09,1.35,8.61,8.61,0,0,1-2.56-.66,6.44,6.44,0,0,1-2.17-1.46l0,0a11.6,11.6,0,0,0-7.31-1.65,6.36,6.36,0,0,0-.36,3.69,10.45,10.45,0,0,0-6.17,1.45,8.51,8.51,0,0,0,4.43,7.58,11.27,11.27,0,0,0-4.23,2.18c.49,2.54,2.81,4.69,6.33,5.45a13.29,13.29,0,0,0,9-1.31h0a11.19,11.19,0,0,0,1-.61s8.05-4.82,14-5.52l-4.75-13.3A7.09,7.09,0,0,1,164.58,138.64Z"/><path d="M179.41,158.69a10.75,10.75,0,0,0-4.78-2.85,1.41,1.41,0,0,1-1-.91L172,150.47c-4.91.44-12.09,4.3-13.75,5.33l-.32.21-.17.11-.53.31-.93.47a14.93,14.93,0,0,1-6.15,1.33,14.1,14.1,0,0,1-3-.31c-.29-.06-.57-.14-.85-.22l-.24-.07-.6-.2-.22-.08-.7-.3-.06,0q-.39-.19-.76-.4l0,0c-.23-.13-.45-.28-.66-.42l-.08-.06a8.65,8.65,0,0,1-1.76-1.66,13.51,13.51,0,0,1-1.84-7.77,10.94,10.94,0,0,0-3.08-8.88,5.41,5.41,0,0,0-2.64,1.84,10.05,10.05,0,0,0-6.72-3.81,8.77,8.77,0,0,0-1.37,9.17,10.52,10.52,0,0,0,1,1.92h0l0,0c.2.29.4.58.63.85.65,1,1.24,2.63-1.21,2.76h0c-.63-.06-1.26-.13-1.9-.17s-1.2-.07-1.8-.09a10.18,10.18,0,0,1-2.63,2.25,6.92,6.92,0,0,1,1.44,5.76l-.06.25.14.07a13.42,13.42,0,0,1,4,3,41.86,41.86,0,0,1,10.35,2.53,7,7,0,0,0-3.66,3.69,5.94,5.94,0,0,0,5.78,2.52c2.44-.28,3.63-2.81,5.84-2.14q.6.39,1.19.81c.22-.17.45-.34.68-.49l0,0,0,0,.12-.07a8.85,8.85,0,0,1-1.15-3.85,31,31,0,0,1-3.71,2,9.4,9.4,0,0,1-4.7.84,9.17,9.17,0,0,0,4.5-1.26,36.24,36.24,0,0,0,3.89-2.63h0l.59-.43a10.56,10.56,0,0,1,6.22-2,10.78,10.78,0,0,1,4.61,1,10.24,10.24,0,0,1,1.23.69h0l.05,0,0,0,.59.44c1.89,1.36,8.51,5.8,14.28,5.8a9.32,9.32,0,0,0,2.24-.26,23,23,0,0,1,1.19-3.82A22,22,0,0,1,179.41,158.69Z"/><path d="M220.94,171.94h18.67a9.4,9.4,0,0,0-2.35-2.22l-1.2-.68-.29-.13,0,0a7.51,7.51,0,0,0,1.8-4.69,9.31,9.31,0,0,0-9.38-.82,8.82,8.82,0,0,0-1.08.61h0l-.64.47a42.33,42.33,0,0,1-5.69,3.44A17.75,17.75,0,0,1,220.94,171.94Z"/><path d="M210.54,146.9l0,.05c-.22.46-.44.87-.66,1.26l-.43.87c5.92-.82,16.52,5.51,16.52,5.52a11.19,11.19,0,0,0,1,.61h0a13.29,13.29,0,0,0,9,1.31c3.52-.76,5.84-2.91,6.33-5.45a11.27,11.27,0,0,0-4.23-2.18,8.51,8.51,0,0,0,4.43-7.58,10.45,10.45,0,0,0-6.17-1.45,6.36,6.36,0,0,0-.36-3.69,11.6,11.6,0,0,0-7.31,1.65l0,0a6.44,6.44,0,0,1-2.17,1.46,8.61,8.61,0,0,1-2.56.66,7.13,7.13,0,0,1-5.09-1.35,7.62,7.62,0,0,1-2.74-4.57,13.77,13.77,0,0,1-.15-4c-.09.73-.19,1.48-.28,2.26a44.18,44.18,0,0,0-.39,7.24,9.39,9.39,0,0,1-2.44-.68,23.71,23.71,0,0,1-2.19,7.79A1.42,1.42,0,0,1,210.54,146.9Z"/><path d="M263.78,152.52a10.18,10.18,0,0,1-2.63-2.25c-.6,0-1.2.05-1.8.09s-1.27.1-1.9.17h0c-2.45-.13-1.86-1.73-1.21-2.76.22-.27.43-.56.63-.85l0,0h0a10.52,10.52,0,0,0,1-1.92,8.77,8.77,0,0,0-1.37-9.17,10.05,10.05,0,0,0-6.72,3.81,5.41,5.41,0,0,0-2.64-1.84,10.94,10.94,0,0,0-3.08,8.88,13.51,13.51,0,0,1-1.84,7.77,8.65,8.65,0,0,1-1.76,1.66l-.08.06c-.21.15-.43.29-.66.42l0,0q-.37.21-.76.4l-.06,0-.7.3-.22.08-.6.2-.24.07c-.28.08-.56.16-.85.22a14.1,14.1,0,0,1-3,.31,14.93,14.93,0,0,1-6.15-1.33l-.93-.47-.53-.31-.17-.11-.32-.21c-1.76-1.09-9.72-5.37-14.61-5.37a6.53,6.53,0,0,0-1.13.09l-.71.1a11.18,11.18,0,0,0-1,3c.43.77,3.25,2.47,4.78,3.39a28.64,28.64,0,0,1,4.16,2.79,9.16,9.16,0,0,1,3.55,4.43,16.66,16.66,0,0,1,.4,2.22,41.39,41.39,0,0,0,5.06-3.09l.59-.44,0,0,.05,0h0a10.24,10.24,0,0,1,1.23-.69,10.78,10.78,0,0,1,4.61-1,10.56,10.56,0,0,1,6.22,2l.59.43h0a36.24,36.24,0,0,0,3.89,2.63,9.17,9.17,0,0,0,4.5,1.26,9.4,9.4,0,0,1-4.7-.84,31,31,0,0,1-3.71-2,8.85,8.85,0,0,1-1.15,3.85l.12.07,0,0,0,0c.23.16.46.32.68.49q.59-.41,1.19-.81c2.21-.68,3.4,1.86,5.84,2.14a5.94,5.94,0,0,0,5.78-2.52,7,7,0,0,0-3.66-3.69,41.86,41.86,0,0,1,10.35-2.53,13.42,13.42,0,0,1,4-3l.14-.07-.06-.25A6.92,6.92,0,0,1,263.78,152.52Z"/><path class="cls-1" d="M219.31,169.67s-.07-.39-.23-1c-.11-.38-.25-.84-.45-1.34a12,12,0,0,0-.7-1.49l-.23-.39h0c-.15-.24-.3-.46-.46-.67l0,0,0,0c-.14-.18-.28-.34-.42-.49l-.16-.17c-.12-.12-.24-.23-.36-.33l-.27-.22h0l-.31-.22-.31-.19-.13-.07h0a5,5,0,0,0-.5-.23h0l-.36-.12h0l-.28-.07h0a5.15,5.15,0,0,0-.52-.1h-.09a5.59,5.59,0,0,0-.68,0c-.2,0-.4,0-.61,0l-.5.07h0a12.63,12.63,0,0,0-4.14,1.64l0,0-.55.34h0l-.16.11-.66.46-.1.07-.73.55-.24.19c-.69.56-1.36,1.15-2,1.77l-.21.21c-.31.31-.62.62-.92.94h0l0,0-.52.57c-.25.28-.49.56-.73.83h0l-.38.46,0,0-.38.46,0,0-.11.13-.26.31-.16.19,9.63,0,10.6-.05c0-.06,0-.49.05-.55Z"/><path class="cls-1" d="M195.57,144a2,2,0,0,1-.08-.61s0,0,0-.07a1.93,1.93,0,0,1,0-.24,1.89,1.89,0,0,1,.09-.32,1.94,1.94,0,0,1,0-3.83,1.82,1.82,0,0,1-.08-.28l0-.12s0-.08,0-.12a1.94,1.94,0,0,1,0-.35l-29.22-7.76,8.1,22.69c7.83-5.3,17.23-8,21.19-9Zm-22.12-6.67A1,1,0,1,1,174,136,1,1,0,0,1,173.45,137.3Zm1.92,5.44a1,1,0,1,1,.56-1.3A1,1,0,0,1,175.37,142.74Zm2,5.39a1,1,0,1,1,.56-1.3A1,1,0,0,1,177.36,148.13Zm3-8.91a1,1,0,1,1,1.42,0A1,1,0,0,1,180.34,139.21Zm2.71,6.08a1,1,0,1,1,.56-1.3A1,1,0,0,1,183.05,145.29Zm6.6-2.55a1,1,0,1,1,.56-1.3A1,1,0,0,1,189.65,142.74Z"/><path class="cls-1" d="M195.7,137.31h0a1.92,1.92,0,0,1,.18-.29l0,0a1.91,1.91,0,0,1,.21-.23l0,0a1.93,1.93,0,0,1,1.27-.48h0a2,2,0,0,1,1.5.72,2,2,0,0,1,1.5-.72h0a1.94,1.94,0,0,1,1.81,2.63,1.94,1.94,0,0,1,0,3.83,1.94,1.94,0,0,1-3.31,1.92,2,2,0,0,1-.32.31h0a2,2,0,0,1-.38.23h0a31.86,31.86,0,0,0,.31,7.28l1.59-.48a.16.16,0,0,1,.21.11l.41,1.35a.16.16,0,0,1-.11.21l-1.63.49-.13,0a18.74,18.74,0,0,0,5.8,10.29l.09-.06.34-.25.43-.31.42-.29.53-.35.33-.2.48-.28.33-.18.63-.32.31-.14.53-.23.24-.1h0l.31-.11h0c.26-.09.52-.18.79-.25l.27-.07h0a8.86,8.86,0,0,1,2.11-.28,7.13,7.13,0,0,1,.75,0h.11a6.35,6.35,0,0,1,2.21.68h0l.44.26,0,0,.43.3h0a7.48,7.48,0,0,1,.8.7h0l0,0h0l.3.33h0l0,0,.34.42h0l.16.22h0q.18.25.34.5v0l0,0a7.78,7.78,0,0,0-3.11-3.83h0c-2.06-2-9.43-5.21-9.48-7.17,0-1.35,1.4-4.4,2.3-6.16.23-.41.45-.82.65-1.24l0-.09h0a22.56,22.56,0,0,0,2.23-9.83c0-12-9.3-21.8-20.78-21.8l-.83,0-.28,0-.54,0-.33,0-.49.05-.35,0-.46.07-.36.06-.44.09-.36.08-.43.1-.36.09-.41.12-.36.11-.4.13-.36.12-.38.14-.36.14-.36.16-.37.16-.26.12-.87.43-.25.13-.42.24-.26.15-.41.26-.25.16-.41.27-.24.16-.41.3-.22.16-.41.32-.2.16-.41.35-.17.15-.42.38-.12.12-.45.43,0,0a21.7,21.7,0,0,0-2.79,3.48l0,.05-.36.59,0,.08-.34.59,0,.09-.32.61,0,.08-.3.63,0,.06q-.15.33-.29.67h0l23.86,10A1.94,1.94,0,0,1,195.7,137.31Z"/><path class="cls-1" d="M198.29,137.7a1,1,0,0,0-.15-.19l-.05,0-.14-.1-.06,0a1,1,0,0,0-.21-.09h0l-.22,0h-.07l-.17,0-.07,0a.94.94,0,0,0-.4.22h0l0,0h0l-.12.13h0v0h0a1,1,0,0,0-.09.17h0a1,1,0,0,0,.2,1.08l.05,0,.14.11.06,0a1,1,0,0,0,.21.09h0l.22,0h.07l.17,0,.07,0a1,1,0,0,0,.59-1.46Z"/><path class="cls-1" d="M196.43,143.54h0a1,1,0,1,0,1.95-.42h0l0,0h0a1,1,0,0,0-.07-.16h0l0,0-.11-.14h0l0,0a.92.92,0,0,0-.41-.23l-.07,0-.17,0h-.07l-.22,0h0a1,1,0,0,0-.21.09l-.06,0-.14.11-.05,0a.93.93,0,0,0-.24.39h0v0a1,1,0,0,0,0,.2h0a1,1,0,0,0,0,.19Z"/><circle class="cls-1" cx="201.93" cy="140.8" r="1"/><circle class="cls-1" cx="195.92" cy="140.8" r="1"/><path class="cls-1" d="M200.43,142.41a1,1,0,1,0,.87.5A1,1,0,0,0,200.43,142.41Z"/><path class="cls-1" d="M200.93,137.33a1,1,0,1,0,.37,1.37A1,1,0,0,0,200.93,137.33Z"/><path class="cls-1" d="M197.11,140.8a1.81,1.81,0,1,0,1.81-1.81A1.81,1.81,0,0,0,197.11,140.8Zm2.68,0a.87.87,0,1,1-.87-.87A.87.87,0,0,1,199.79,140.8Z"/><path d="M216.33,72.63c.12-.06.12-.08,0,0l0,0,0-.08c-.63-1.18-1.55-3.14-2.62-3.9-.41-.29-.87-.52-1.25-.85a15.45,15.45,0,0,1-1.14-1.21c-.47.2-.54.41-.52,2l-.78-.67a5.71,5.71,0,0,0-3.63-1.31,6.32,6.32,0,0,1-1.5-.1,14.39,14.39,0,0,1-1.81-.76c-.27.36,0,1,.57,1.75-.79.05-1.59,0-2.36.18a9.32,9.32,0,0,0-3.63,1.58,3.91,3.91,0,0,1-3.54.8c.51,1.33,1.65,1.52,2.57,1.77-1.11.65-2.26,3.47-2.65,5.69,0,.11-.06.23-.09.34l-.31-.62A17,17,0,0,1,192,72.85c-.13-.69-.38-1.36-.59-2.07a5.16,5.16,0,0,0,1-6L189.88,66a4,4,0,0,0-2.15,2.33c-2.68-.54-4.66.63-6.34,2.59-.62.73-1.32,1.39-2,2.1-.28.3-.52.65-.77,1s-.11.64,0,1a4.48,4.48,0,0,0,4.56,3c.58,0,.71.28.37.82a13.6,13.6,0,0,0-1.34,4.36,16.89,16.89,0,0,0,.12,2.83c0,.48,0,.77-.58.78a2.91,2.91,0,0,0-.29.07c-1.6.21-2.36.56-2.42,3,0,.8.16,1.06,1,1.57l.09-.42.74.44c0-.42,0-.73,0-1,.07-.93.67-1.27,1.48-.79a5.5,5.5,0,0,1,1.05.91c.4.4.74.87,1.15,1.25.67.63,1,.62,1.87-.09a3.48,3.48,0,0,1,.52,1.13,4.69,4.69,0,0,1-.24,1.81,29,29,0,0,1-1.38,3.1,8.7,8.7,0,0,0-.54,6.47,5.44,5.44,0,0,0,2,2.87c-1,.43-2.34.34-3.08,1.66-.06.45,1.33.13,1.43.13,1.45-.19,2.9-.47,4.37-.56,1.2-.08,2.41.07,3.62.08.93,0,1.87,0,2.8-.11.56,0,.92-.36.71-1.05a5.57,5.57,0,0,0,.85-.18c1.94-.2,4.61-1.11,5.23-2.08.18.78.31,1.76,1.42,2.25a3.33,3.33,0,0,1,.81-3,7.94,7.94,0,0,0,1.47-3c.14-.66.16-1.34.23-2,.59.49,1.15.77,1.47.55a12.26,12.26,0,0,1-.58-1.57,5.38,5.38,0,0,1,0-1.28,4.86,4.86,0,0,0-1-3.13L206,93c1.33.08,1.51,0,1.7-.37a13.17,13.17,0,0,1-1-1c-.26-.33-.44-.73-.68-1.09a7.29,7.29,0,0,0-2.34-1.86,22.46,22.46,0,0,1-.14-4.43,9.08,9.08,0,0,1,1-3.22,3.93,3.93,0,0,1,4.18-2.18,2.55,2.55,0,0,1,2.2,3.53c-.25.64-.66,1.22-1,1.84a8.42,8.42,0,0,0,2.7-.62,7.1,7.1,0,0,0,4-4.82A8.36,8.36,0,0,0,216.33,72.63Z"/><path d="M180.45,112l3.6,2.1a22.32,22.32,0,0,1,3.54-.81l-3.06-2.7A25.53,25.53,0,0,0,180.45,112Z"/><path d="M175.12,115.13l4.21,1.05a22.63,22.63,0,0,1,3-1.5l-3.41-2A26,26,0,0,0,175.12,115.13Z"/><path d="M172.42,117.52v0h0a1.64,1.64,0,0,0,0,2.28,1.57,1.57,0,0,0,2.24,0h0a23.2,23.2,0,0,1,1.82-1.67c.4-.33.81-.64,1.23-.94l-3.94-1C173.31,116.65,172.85,117.08,172.42,117.52Z"/><path d="M209.26,117.53h0s-1.26-1.22-1.93-1.78-1.3-1-2-1.5l1,4.9c.22.21.44.42.66.63h0l0,.05a1.58,1.58,0,0,0,2.26,0A1.64,1.64,0,0,0,209.26,117.53Z"/><path d="M199.62,111.31l1.73,4.31a22.9,22.9,0,0,1,3.23,2.08l-.87-4.48A25.71,25.71,0,0,0,199.62,111.31Z"/><path d="M190.74,109.76a25.74,25.74,0,0,0-4.52.41l3.27,2.88c.44,0,.89,0,1.34,0a22.55,22.55,0,0,1,2.48.14l-2.6-3.36Z"/><path d="M192.51,109.82l2.8,3.62h0a22.36,22.36,0,0,1,4.21,1.29l-1.6-4A25.55,25.55,0,0,0,192.51,109.82Z"/><path class="cls-1" d="M197.49,154.59l-.16,0-1.63.49a.16.16,0,0,1-.21-.11l-.41-1.35a.16.16,0,0,1,.11-.21l1.63-.49.33-.1c0-.2-.07-.4-.1-.6a32.77,32.77,0,0,1-.25-7.15,76.07,76.07,0,0,0-13.42,4.49,54.21,54.21,0,0,0-8,4.37c.3.11.6.22.89.35a13.41,13.41,0,0,1,2.19,1.2c.21.14.42.3.62.45s.38.3.56.46a10.53,10.53,0,0,1,1.71,1.94c.17.25.33.5.47.76a10.78,10.78,0,0,1,1.33,4.67,16.66,16.66,0,0,1-.44,4.77,16.48,16.48,0,0,0,.08-4.73,10.25,10.25,0,0,0-1.58-4.34l-.26-.37h0q-.3.31-.6.65l0,0q-.28.32-.55.66l-.06.08-.5.66-.1.15-.43.63-.15.23-.37.59-.2.35-.29.53-.26.52-.2.41q-.22.48-.43,1c-.23.56-.43,1.11-.61,1.67a21,21,0,0,0-.68,2.75q-.13.76-.21,1.51c0,.15,0,.29,0,.44h2.94a1.19,1.19,0,1,1,.76,0l-.14,0h18.64l.75-.9v0h0l.62-.74.07-.09.65-.78c.27-.32.54-.63.83-.95l.23-.25.7-.74.2-.21c.63-.63,1.28-1.25,2-1.83l.07-.06A20.19,20.19,0,0,1,197.49,154.59ZM179.73,167.2a1.07,1.07,0,1,1,.6-1.4A1.07,1.07,0,0,1,179.73,167.2Zm1.33-4.34a.87.87,0,1,1,.48-1.13A.87.87,0,0,1,181.06,162.86Zm11.9-9.73-1.6.48.48,1.6a.2.2,0,0,1-.13.24l-1.29.39a.2.2,0,0,1-.24-.13l-.48-1.6-1.6.48a.2.2,0,0,1-.24-.13l-.39-1.29a.2.2,0,0,1,.13-.24l1.6-.48-.48-1.6a.2.2,0,0,1,.13-.24l1.29-.39a.2.2,0,0,1,.24.13l.48,1.6,1.6-.48a.2.2,0,0,1,.24.13l.39,1.29A.2.2,0,0,1,193,153.13Zm1.92,17.55a1.31,1.31,0,1,1,.73-1.7A1.31,1.31,0,0,1,194.89,170.67Zm4.1-4.26a1.18,1.18,0,1,1,.65-1.53A1.18,1.18,0,0,1,199,166.42Z"/><path d="M256.26,276.1a13.4,13.4,0,0,1,10.17-4.74c.21,0,.42,0,.63,0h.11A7.49,7.49,0,0,0,274.1,266h0a25.72,25.72,0,0,0,4.65.43c.42,0,.87,0,1.34,0a13.46,13.46,0,0,1-13,10.87h-.83a7.48,7.48,0,0,0-6.18,11.46h0a25.72,25.72,0,0,0-3.39,3.21c-.28.32-.56.66-.85,1A13.42,13.42,0,0,1,256.26,276.1Z"/><path d="M127.83,276.11a13.4,13.4,0,0,0-10.17-4.74c-.21,0-.42,0-.63,0h-.11A7.49,7.49,0,0,1,110,266h0a25.72,25.72,0,0,1-4.65.43c-.42,0-.87,0-1.34,0a13.46,13.46,0,0,0,13,10.87h.83a7.48,7.48,0,0,1,6.18,11.46h0a25.72,25.72,0,0,1,3.39,3.21c.28.32.56.66.85,1A13.42,13.42,0,0,0,127.83,276.11Z"/><path d="M125,280.38a12,12,0,0,1,4-1.35c4.08-.47,6.76,2,9,4.89,2.07,2.65,3.88,5.5,5.94,8.16s4.44,4.64,8.08,4.28c-6.59,2.84-11.66-.71-17.06-4.25a11.65,11.65,0,0,0,6.15,6.31c2.64,1.11,5.44,1.83,8.13,2.83a48.62,48.62,0,0,1,7.16,3c3.34,1.9,4.86,5.14,5.44,8.87-2.41-3.25-5.86-4.66-9.57-5.52-2.85-.66-5.74-1.13-8.62-1.63-5.77-1-11.58-1.77-16.88-4.57-6.5-3.43-9.32-10.17-6.7-16.85A9.34,9.34,0,0,1,125,280.38ZM96.66,266.23"/><path d="M264,284.54c2.62,6.68-.2,13.42-6.7,16.85-5.3,2.8-11.11,3.57-16.88,4.57-2.88.5-5.78,1-8.62,1.63-3.71.86-7.16,2.27-9.57,5.52.58-3.73,2.1-7,5.44-8.87a48.62,48.62,0,0,1,7.16-3c2.69-1,5.49-1.73,8.13-2.83a11.65,11.65,0,0,0,6.15-6.31c-5.4,3.54-10.47,7.08-17.06,4.25,3.64.35,6.06-1.67,8.08-4.28s3.87-5.51,5.94-8.16c2.27-2.92,4.95-5.36,9-4.89a12,12,0,0,1,4,1.35A9.34,9.34,0,0,1,264,284.54Zm23.52-18.31"/><polygon points="245.65 246.98 206.77 246.98 206.77 243.68 248.01 243.68 245.65 246.98"/><polygon points="210.07 307.45 206.77 310.98 206.77 244.36 210.07 244.36 210.07 307.45"/><rect x="206.77" y="176.46" width="3.3" height="38.2"/><rect x="206.77" y="213.24" width="46.72" height="1.41"/><rect x="201.4" y="238.39" width="48.13" height="1.41"/><rect x="201.4" y="238.39" width="1.41" height="75.57"/><rect x="201.4" y="174.76" width="1.41" height="46.66"/><rect x="201.4" y="218.13" width="51.48" height="3.3"/><rect x="173.24" y="243.68" width="1.41" height="65.66"/><rect x="136.44" y="243.68" width="38.22" height="3.3"/><rect x="172.95" y="176.28" width="1.41" height="38.38"/><rect x="131.99" y="213.24" width="42.38" height="1.41"/><polygon points="181.48 315.69 178.18 313.34 178.18 238.39 181.48 238.39 181.48 315.69"/><rect x="134.82" y="238.39" width="46.66" height="1.41"/><rect x="179.12" y="174.76" width="3.3" height="46.66"/><rect x="131.52" y="218.13" width="50.67" height="3.3"/><path d="M251.78,177.12c1.48,24.87-.39,47.51-5.56,67.35-4.37,16.78-11.1,31.59-20,44a97.21,97.21,0,0,1-22.5,22.83c-5.93,4.2-10.53,6.2-12.06,6.65-1.53-.45-6.13-2.45-12.06-6.65a97.21,97.21,0,0,1-22.5-22.83c-8.89-12.44-15.62-27.26-20-44-5.17-19.84-7-42.49-5.56-67.35h120.2m3.53-3.77H128c-8.48,118.78,59.39,148.47,63.63,148.47s72.12-29.69,63.63-148.47Z"/><path class="cls-1" d="M346.48,162.65l1.1,5.78a11,11,0,0,0,2.69,1,14.26,14.26,0,0,0,3.36.41,12.3,12.3,0,0,0,3.19-.41,9,9,0,0,0,2.7-1.18,6.31,6.31,0,0,0,1.84-1.84,4.44,4.44,0,0,0,.69-2.45,4.07,4.07,0,0,0-.88-2.67,8.07,8.07,0,0,0-2.28-1.87,18.85,18.85,0,0,0-3.16-1.4q-1.76-.6-3.58-1.26-1.93-.82-3.71-1.68a13.68,13.68,0,0,1-3.19-2.09,9.08,9.08,0,0,1-2.23-3,11.5,11.5,0,0,1,.25-9.13,9.77,9.77,0,0,1,2.86-3.35,12.23,12.23,0,0,1,4.18-2,19.66,19.66,0,0,1,5-.63,21.7,21.7,0,0,1,2.58.17q1.37.16,2.69.41t2.48.55l2,.52,1.76.55-.28,9.35H363l-1.87-5.88a18.79,18.79,0,0,0-3.05-.71,21.61,21.61,0,0,0-3.11-.22,9.45,9.45,0,0,0-2.89.41,6.91,6.91,0,0,0-2.2,1.13,5.44,5.44,0,0,0-1.4,1.6,3.66,3.66,0,0,0-.5,1.81,4.77,4.77,0,0,0,1.54,3.63,13.35,13.35,0,0,0,3.68,2.25q2.2.94,4.76,1.76a25,25,0,0,1,4.73,2.06,11.56,11.56,0,0,1,3.63,3.22,8.52,8.52,0,0,1,1.46,5.17,11.18,11.18,0,0,1-1.1,5.06,10.82,10.82,0,0,1-3,3.71,13.7,13.7,0,0,1-4.56,2.31,19.52,19.52,0,0,1-5.67.8,22.59,22.59,0,0,1-2.61-.17q-1.4-.17-2.75-.41t-2.5-.55q-1.16-.3-1.92-.58l-1.54-.55v-9.62Z"/><path class="cls-1" d="M382.67,131.57v16.61q4.67-4,9.35-4t6.88,2.61q2.2,2.61,2.2,7.29v15.4l4.13,1.38v3H392v-3l3.58-1.32V154.67a7.07,7.07,0,0,0-1.1-4.37,4.13,4.13,0,0,0-3.46-1.4,8.49,8.49,0,0,0-2.26.3,11.79,11.79,0,0,0-3.85,1.87,8.82,8.82,0,0,0-1.26,1.13l-1,1.1v16.22l3.58,1.38v3H372.49v-3l4.67-1.37V136l-4.67-1.1v-3Z"/><path class="cls-1" d="M411,146.42a31.62,31.62,0,0,1,10.89-2.2q4.84,0,7.42,2t2.58,6.57v16.77l4.4,1.1v3l-8.53.28-1.15-3.85q-4.4,4.4-8.69,4.4t-6.43-2.14a8.26,8.26,0,0,1-2.15-6.11q0-8.52,12.65-8.52h4.4v-4.4q0-4.95-5.22-5a16.63,16.63,0,0,0-4.9.61l-.66.22-.77,4.13h-3.58Zm15.4,14.85h-3.85q-4.12,0-5.86,1.07a3.63,3.63,0,0,0-1.73,3.33,4.73,4.73,0,0,0,1,3.27,3.76,3.76,0,0,0,2.94,1.13,5.83,5.83,0,0,0,1.9-.33,12.21,12.21,0,0,0,1.87-.83,10.86,10.86,0,0,0,1.62-1.07,9.87,9.87,0,0,0,1.16-1.07l.93-1.1Z"/><path class="cls-1" d="M450.59,144.77v3.3l-3.85.55L453.29,169l6.6-20.08-3.79-.82v-3l12.32-.28v3.3l-3,.55L456,173.92h-6l-9-25-2.75-.82v-3Z"/><path class="cls-1" d="M481.06,144.77v24.75l4.13,1.38v3h-14.3v-3l4.67-1.37V149.17l-4.67-1.1v-3Zm-3-12.92q3.58,0,3.58,4.13a3.14,3.14,0,0,1-1.21,2.64,4.16,4.16,0,0,1-2.58.93,3.13,3.13,0,0,1-2.42-1,4,4,0,0,1-.93-2.83,3.83,3.83,0,0,1,1-2.83A3.47,3.47,0,0,1,478,131.85Z"/><path class="cls-1" d="M498.39,144.77l.49,3.91,1.54-1.21a16.23,16.23,0,0,1,2.34-1.49,18.48,18.48,0,0,1,3-1.24,11,11,0,0,1,3.38-.52q4.45,0,6.63,2.61t2.17,7.29v15.4L522,170.9v3h-13.2v-3l3.58-1.37V154.67a6.81,6.81,0,0,0-1.16-4.37,4.29,4.29,0,0,0-3.52-1.4,8.79,8.79,0,0,0-2.28.3,10.5,10.5,0,0,0-2.09.8,10.85,10.85,0,0,0-1.71,1.07,9.58,9.58,0,0,0-1.24,1.13l-.93,1.1v16.22l3.58,1.38v3H489.31v-3l4.67-1.37V149.17l-4.67-1.1v-3Z"/><path class="cls-1" d="M538.54,165.12a14.94,14.94,0,0,1-4.12-.5l-.27,5.17h8.52q5.39,0,8.2,2a7.11,7.11,0,0,1,2.8,6.16,8.26,8.26,0,0,1-3.63,7.07q-3.63,2.61-10.67,2.61-13.2,0-13.2-8,0-3.47,3.69-5.89a11.15,11.15,0,0,1,2.09-1,4.43,4.43,0,0,1-2.39-1,2.48,2.48,0,0,1-.91-1.87q0-1.81,2.14-5.28l.71-1.16a4.21,4.21,0,0,1-1.35-1,10.11,10.11,0,0,1-1.4-1.65,10.7,10.7,0,0,1-1.48-5.88q0-5.23,3.27-8t8.83-2.75a12.78,12.78,0,0,1,4.9.77l.6.27,9.63-.22v3l-5.33.77a9.1,9.1,0,0,1,1.49,5.55q0,5.39-3.25,8.06T538.54,165.12Zm2.75,8.8h-6a6.73,6.73,0,0,0-1.07.69,7.69,7.69,0,0,0-1.24,1.07,4.7,4.7,0,0,0-1.27,3.19,3.69,3.69,0,0,0,2.12,3.68,15.83,15.83,0,0,0,6.41,1q8.25,0,8.25-5.22a3.55,3.55,0,0,0-1.79-3.47A12,12,0,0,0,541.29,173.92Zm-2.2-25.85q-6.33,0-6.33,6.6a7.12,7.12,0,0,0,1.54,4.81,5.55,5.55,0,0,0,4.46,1.79q3.35,0,4.87-1.57t1.51-5Q545.14,148.07,539.09,148.07Z"/><path class="cls-1" d="M568,137v8h8v4.13h-8v17.66q0,3.35,2.75,3.35a9.42,9.42,0,0,0,4.29-1.37l1.49,2.92a12.86,12.86,0,0,1-7.7,2.75,6,6,0,0,1-4.56-1.84q-1.76-1.84-1.76-6.13V149.17H557V145.6l5.5-.55v-6.93Z"/><path class="cls-1" d="M579.79,159.79a19.17,19.17,0,0,1,1-6.41,14.08,14.08,0,0,1,2.89-4.92,12.82,12.82,0,0,1,4.43-3.13,14.12,14.12,0,0,1,5.64-1.1q6.16,0,9.57,3.91T606.74,159a18.8,18.8,0,0,1-1,6.24,14.89,14.89,0,0,1-2.78,4.9,12.46,12.46,0,0,1-4.35,3.22,13.67,13.67,0,0,1-5.69,1.16q-6.27,0-9.71-3.74T579.79,159.79Zm13.75-11.17q-8,0-8,10.72t7.7,10.73q4,0,5.86-2.75t1.84-8.25Q601,148.62,593.54,148.62Z"/><path class="cls-1" d="M620.21,144.77l.49,3.91,1.54-1.21a16.23,16.23,0,0,1,2.34-1.49,18.48,18.48,0,0,1,3-1.24,11,11,0,0,1,3.38-.52q4.45,0,6.63,2.61t2.17,7.29v15.4l4.13,1.38v3h-13.2v-3l3.58-1.37V154.67a6.81,6.81,0,0,0-1.16-4.37,4.29,4.29,0,0,0-3.52-1.4,8.79,8.79,0,0,0-2.28.3,10.5,10.5,0,0,0-2.09.8,10.85,10.85,0,0,0-1.71,1.07,9.58,9.58,0,0,0-1.24,1.13l-.93,1.1v16.22l3.58,1.38v3H611.13v-3l4.67-1.37V149.17l-4.67-1.1v-3Z"/><path class="cls-1" d="M648.81,161.27V156.6h14.3v4.67Z"/><path class="cls-1" d="M691.71,153.85h-3.58l-.83-4.67a20,20,0,0,0-5-.55,7.56,7.56,0,0,0-6.1,2.53q-2.14,2.53-2.15,7.86t2.26,8.2a7.53,7.53,0,0,0,6.27,2.86,11.83,11.83,0,0,0,2.28-.22,15.07,15.07,0,0,0,2.15-.58,13.18,13.18,0,0,0,1.84-.8,6.78,6.78,0,0,0,1.32-.88l.94-.83,1.92,3.3-.61.49a14.33,14.33,0,0,1-1.81,1.24,19.5,19.5,0,0,1-2.56,1.26,23.63,23.63,0,0,1-3,1,12,12,0,0,1-3.05.41q-6.71,0-10.23-4t-3.52-10.92a18.34,18.34,0,0,1,1-6.24,13.88,13.88,0,0,1,2.89-4.84,13.13,13.13,0,0,1,4.51-3.13,14.85,14.85,0,0,1,5.88-1.13,16,16,0,0,1,2.25.17q1.16.17,2.25.38a18.79,18.79,0,0,1,2,.52q.93.3,1.59.58l1.21.55Z"/><path class="cls-1" d="M723.88,144.77v24.75l4.67,1.1v3l-9.08.28-.55-3.85a18.19,18.19,0,0,1-5.22,3.22,13.66,13.66,0,0,1-5,1.18q-4.4,0-6.6-2.58t-2.2-7.26V149.17l-4.68-1.1v-3l10.18-.28v19.31a6.72,6.72,0,0,0,1.15,4.32,4.3,4.3,0,0,0,3.52,1.4,8.8,8.8,0,0,0,4.34-1.1,11.29,11.29,0,0,0,2.92-2.15l1-1.1V149.17l-4.67-1.1v-3Z"/><path class="cls-1" d="M741.21,144.77l.49,3.91a20.42,20.42,0,0,1,1.87-1.51,17.27,17.27,0,0,1,2.42-1.46,15.77,15.77,0,0,1,2.78-1.07,10.54,10.54,0,0,1,2.89-.41q5.55,0,7.65,4.73a14,14,0,0,1,2.31-1.84,23.39,23.39,0,0,1,2.72-1.51,16.41,16.41,0,0,1,2.75-1,9.67,9.67,0,0,1,2.45-.36q8.53,0,8.53,9.9v15.4l4.13,1.38v3H769v-3l3.58-1.37V154.67a7.34,7.34,0,0,0-1-4.4,4,4,0,0,0-3.41-1.37,8.19,8.19,0,0,0-2.23.3,10.43,10.43,0,0,0-3.66,1.87,7.5,7.5,0,0,0-1.16,1.13l-.88,1.1v16.22l3.58,1.38v3H751.11v-3l3.58-1.37V154.67a7.34,7.34,0,0,0-1-4.4,4,4,0,0,0-3.41-1.37,8.19,8.19,0,0,0-2.23.3,10.43,10.43,0,0,0-3.66,1.87,7.5,7.5,0,0,0-1.16,1.13l-.88,1.1v16.22l3.58,1.38v3H732.13v-3l4.67-1.37V149.17l-4.67-1.1v-3Z"/><path class="cls-1" d="M787.13,161.27V156.6h14.3v4.67Z"/><path class="cls-1" d="M839.38,159.4v11.77a9.73,9.73,0,0,0-1,.52,18.44,18.44,0,0,1-2.72,1.16,30.38,30.38,0,0,1-4.4,1.13,31.94,31.94,0,0,1-5.91.5q-8.42,0-13-4.87t-4.59-14.22a26.14,26.14,0,0,1,1.29-8.47,18.21,18.21,0,0,1,3.71-6.46,16.63,16.63,0,0,1,5.8-4.12,19.08,19.08,0,0,1,7.62-1.46,22.23,22.23,0,0,1,2.78.19q1.51.19,3,.52t2.75.69a21.07,21.07,0,0,1,2.12.69l1.76.66-.27,9.08h-3.58l-1.65-6.05a24.09,24.09,0,0,0-7.42-1.1,10,10,0,0,0-8.58,4q-3,4-3,11.5t3.25,11.08a11.23,11.23,0,0,0,8.85,3.66,21.91,21.91,0,0,0,6.66-1l1-.33v-9l-4.67-1.1v-3l14.3-.28v3.3Z"/><path class="cls-1" d="M857,144.77l.49,4q4.07-4.56,8.31-4.57a14.33,14.33,0,0,1,4.34.66l.61.17-.28,8h-3.58l-.83-4.12a9.7,9.7,0,0,0-8,4.29v16.33l5.5,1.38v3H848v-3l4.67-1.37V149.17l-4.67-1.1v-3Z"/><path class="cls-1" d="M898.29,160.06l-19,.11a11.14,11.14,0,0,0,2.17,7.21,7.07,7.07,0,0,0,5.8,2.7,13.44,13.44,0,0,0,2.42-.22,19.67,19.67,0,0,0,2.28-.55,15.12,15.12,0,0,0,2-.74,13.44,13.44,0,0,0,1.48-.8l1.1-.71,1.92,2.86a24.4,24.4,0,0,1-3.44,2.34,21.78,21.78,0,0,1-3.69,1.54,14.8,14.8,0,0,1-4.59.69q-6.49,0-9.85-3.93t-3.35-10.75a19.06,19.06,0,0,1,1-6.27,14.8,14.8,0,0,1,2.78-4.92,12.56,12.56,0,0,1,9.71-4.37q11.55,0,11.55,12.92Zm-18.75-4h13.2a9.46,9.46,0,0,0-1.43-5.45,5.2,5.2,0,0,0-4.62-2.09,6.35,6.35,0,0,0-5,2.12A9.07,9.07,0,0,0,879.53,156Z"/><path class="cls-1" d="M903,165.12h3.85l.61,4.73a7.21,7.21,0,0,0,1.73.36,20,20,0,0,0,2.34.14,9.69,9.69,0,0,0,5.2-1.07,3.65,3.65,0,0,0,1.62-3.27,2.84,2.84,0,0,0-1.13-2.37,10.05,10.05,0,0,0-2.83-1.48q-1.71-.6-3.71-1.21a18.07,18.07,0,0,1-3.71-1.57,8.85,8.85,0,0,1-2.83-2.5A6.73,6.73,0,0,1,903,152.8a7.55,7.55,0,0,1,2.75-6.3,12,12,0,0,1,7.31-2.28q1.92.06,3.93.3a23,23,0,0,1,4.1.91l1.38.44-.17,7.42h-3.58l-.88-4.29a12.81,12.81,0,0,0-1.71-.41,14,14,0,0,0-2.69-.25,10.19,10.19,0,0,0-1.87.17,5.14,5.14,0,0,0-1.57.55,2.88,2.88,0,0,0-1.1,1.1,3.48,3.48,0,0,0-.41,1.76,3,3,0,0,0,1.13,2.5,10.6,10.6,0,0,0,2.83,1.57q1.7.66,3.71,1.26a18.32,18.32,0,0,1,3.71,1.57,9.19,9.19,0,0,1,2.83,2.45,6.29,6.29,0,0,1,1.13,3.91,8.16,8.16,0,0,1-1,4.07,8.9,8.9,0,0,1-2.67,2.94,11.87,11.87,0,0,1-3.91,1.76,18.91,18.91,0,0,1-4.76.58q-.94,0-2-.08t-2-.22q-1-.14-1.84-.3t-1.4-.33l-1.26-.33Z"/><path class="cls-1" d="M938.49,137v8h8v4.13h-8v17.66q0,3.35,2.75,3.35a9.42,9.42,0,0,0,4.29-1.37l1.49,2.92a12.86,12.86,0,0,1-7.7,2.75,6,6,0,0,1-4.56-1.84Q933,170.79,933,166.5V149.17h-5.5V145.6L933,145v-6.93Z"/><path class="cls-1" d="M961.59,144.77v3.3l-3.85.55,6.6,19.25,6.05-19-3.85-.82v-3l13-.28v3.3l-3.58.55-7.81,21.78a88.37,88.37,0,0,1-4.07,9.57q-4.12,7.1-10.78,7.15l-3.52-.28.5-3.85h2.75a6.12,6.12,0,0,0,4.7-2.25,27.39,27.39,0,0,0,4-6.71L952,148.9l-3.3-.82v-3Z"/><path class="cls-1" d="M383.49,207q6.65,5.67,6.65,15.56t-6.65,15.62q-6.66,5.72-18,5.72H346.92v30h-5.5v-72.6h24.09Q376.84,201.32,383.49,207Zm-4.18,27.55q5-4.18,5-12t-5-11.93q-5-4.23-14.46-4.24H346.92v32.34h17.93Q374.31,238.72,379.31,234.54Z"/><path class="cls-1" d="M452.63,269.52l-.33,4.4a11.16,11.16,0,0,1-5.39,1.1,9.25,9.25,0,0,1-6.27-2.09q-2.42-2.09-2.75-7.26a16.81,16.81,0,0,1-8.14,6.88A28.84,28.84,0,0,1,418,275q-8.14,0-13-3.63T400,261.05q0-12.76,20.9-16.5l16.83-3v-4.84q0-6.6-3.91-10.34t-11.05-3.74q-13.09,0-17.6,11.66L401,231.24a19.2,19.2,0,0,1,8-10,25.68,25.68,0,0,1,13.75-3.46q9.57,0,15,4.67t5.45,13.58v28.38q0,5.83,5.06,5.83A9.75,9.75,0,0,0,452.63,269.52Zm-25.08-.93a18.32,18.32,0,0,0,7.32-4.73,10.68,10.68,0,0,0,2.92-7.53V246.09l-15.07,2.75q-8.91,1.65-13,4.62a9,9,0,0,0-4.07,7.59,7.73,7.73,0,0,0,3.41,6.76q3.41,2.37,9.46,2.37A26.27,26.27,0,0,0,427.55,268.59Z"/><path class="cls-1" d="M493.88,219.69l-1.43,5.17a11.16,11.16,0,0,0-7-2,13.46,13.46,0,0,0-7.86,2.58,18.37,18.37,0,0,0-5.94,7.26,23.62,23.62,0,0,0-2.25,10.4v30.8h-5.5v-55h4.62l.66,11.22a19.71,19.71,0,0,1,6.88-9.08,18.4,18.4,0,0,1,10.94-3.24A11.44,11.44,0,0,1,493.88,219.69Z"/><path class="cls-1" d="M504.82,207a5.08,5.08,0,1,1,3.36,1.26A4.53,4.53,0,0,1,504.82,207Zm6.11,66.93h-5.5v-55h5.5Z"/><path class="cls-1" d="M534,271.72a17.43,17.43,0,0,1-8.47-9.57l4.51-3a13.44,13.44,0,0,0,6.71,8.25,25.73,25.73,0,0,0,12.43,2.75q7.48,0,11.71-2.86a8.77,8.77,0,0,0,4.24-7.59,7.45,7.45,0,0,0-3.63-6.49q-3.63-2.42-12.76-4.07-11.55-2.09-16.28-5.61a11.73,11.73,0,0,1-4.73-10,13.18,13.18,0,0,1,2.64-7.92,17.6,17.6,0,0,1,7.48-5.72,27.51,27.51,0,0,1,11-2.09q8.69,0,13.92,3.3A17,17,0,0,1,570,231.24L565.27,234q-3.08-11.33-16.39-11.33a21.32,21.32,0,0,0-8,1.43,14.18,14.18,0,0,0-5.61,3.79,7.7,7.7,0,0,0-2,5.12,8,8,0,0,0,3.74,7q3.74,2.53,13.2,4.18,11.22,1.87,15.84,5.39a11.73,11.73,0,0,1,4.62,9.9,13.16,13.16,0,0,1-6,11.28q-6,4.23-16.12,4.23A30.31,30.31,0,0,1,534,271.72Z"/><path class="cls-1" d="M627.14,223.1q5.78,5.28,5.78,15.07v35.75h-5.5v-34q0-8.69-4.34-13t-11.71-4.34a20,20,0,0,0-9.79,2.48,18.58,18.58,0,0,0-7.21,7.09,21,21,0,0,0-2.7,10.78v31h-5.5v-80.3h5.5v36.19a19.08,19.08,0,0,1,8-8.91,24.09,24.09,0,0,1,12.27-3.08Q621.36,217.82,627.14,223.1Z"/><path class="cls-1" d="M734.72,269.91Q727.07,275,716.4,275A32.68,32.68,0,0,1,699,270.46a30.1,30.1,0,0,1-11.55-13,50.2,50.2,0,0,1,0-39.6,30.12,30.12,0,0,1,11.55-13,32.49,32.49,0,0,1,17.27-4.57q21.78,0,28.16,17.93l-5.39,2.53q-2.53-7.7-8.09-11.55t-14.35-3.85a26.42,26.42,0,0,0-14.36,3.9,25.66,25.66,0,0,0-9.62,11.22,40.4,40.4,0,0,0-3.41,17.21,41,41,0,0,0,3.35,17.21A25.54,25.54,0,0,0,702,266.06,26.05,26.05,0,0,0,716.4,270a25.53,25.53,0,0,0,15-4.29,22.27,22.27,0,0,0,8.58-12.21l5.5,2.09A27,27,0,0,1,734.72,269.91Z"/><path class="cls-1" d="M801.27,225.47q7,7.65,7,21t-7,21q-7,7.65-19.19,7.64t-19.2-7.64q-7-7.64-7-21t7-21q7-7.64,19.2-7.64T801.27,225.47Zm-34.37,3.46q-5.5,6.38-5.5,17.49t5.5,17.49q5.5,6.38,15.18,6.38t15.18-6.38q5.5-6.38,5.5-17.49t-5.5-17.49q-5.5-6.38-15.18-6.38T766.89,228.93Z"/><path class="cls-1" d="M870,218.92v55h-5L864.79,263a19.44,19.44,0,0,1-8.25,8.91,26.15,26.15,0,0,1-13,3.08q-9,0-14.41-5t-5.39-14.79v-36.3h5.5v35q0,16.28,15.18,16.28a20.83,20.83,0,0,0,10.62-2.64,17.94,17.94,0,0,0,7-7.15,20.61,20.61,0,0,0,2.42-9.9V218.92Z"/><path class="cls-1" d="M930.52,223.1q5.78,5.28,5.78,15.18v35.64h-5.5V240q0-8.8-4.29-13.09t-11.77-4.29a20.39,20.39,0,0,0-9.79,2.42,18.19,18.19,0,0,0-7.21,7A21,21,0,0,0,895,242.9v31h-5.5v-55h5l.22,11.11A19.14,19.14,0,0,1,902.8,221a24.57,24.57,0,0,1,12.49-3.13Q924.74,217.82,930.52,223.1Z"/><path class="cls-1" d="M991.79,221.73a21.63,21.63,0,0,1,8.3,10.95l-5.17,2.42a17.31,17.31,0,0,0-6.27-9.24,18.26,18.26,0,0,0-11-3.19q-9.57,0-15,6.33t-5.39,17.43q0,11.22,5.34,17.49t14.9,6.27a20.13,20.13,0,0,0,11.94-3.46,14.42,14.42,0,0,0,6-9.62l5.06,1.76a21.51,21.51,0,0,1-8.3,11.83A24.48,24.48,0,0,1,977.65,275q-12.21,0-19-7.59t-6.82-21q0-13.42,6.88-21t19.09-7.59A24.46,24.46,0,0,1,991.79,221.73Z"/><path class="cls-1" d="M1014.66,207a5.08,5.08,0,1,1,3.36,1.26A4.53,4.53,0,0,1,1014.66,207Zm6.11,66.93h-5.5v-55h5.5Z"/><path class="cls-1" d="M1045.52,260.61q0,5.06,1.6,7.15t5.33,2.09a15.42,15.42,0,0,0,7.26-1.54l-.77,5.28a17.12,17.12,0,0,1-7.26,1.43q-5.94,0-8.8-3.35t-2.86-10.5V193.62h5.5Z"/></svg>